Comme-Light.ufo
<glyph name="exclam" format="1">
  <advance width="327"/>
  <unicode hex="0021"/>
  <outline>
    <contour>
      <point x="160" y="-7" type="curve" smooth="yes"/>
      <point x="199" y="-7"/>
      <point x="214" y="21"/>
      <point x="214" y="48" type="curve" smooth="yes"/>
      <point x="214" y="74"/>
      <point x="199" y="102"/>
      <point x="160" y="102" type="curve" smooth="yes"/>
      <point x="121" y="102"/>
      <point x="107" y="74"/>
      <point x="107" y="48" type="curve" smooth="yes"/>
      <point x="107" y="22"/>
      <point x="121" y="-7"/>
    </contour>
    <contour>
      <point x="145" y="207" type="line"/>
      <point x="173" y="207" type="line"/>
      <point x="198" y="661" type="line"/>
      <point x="198" y="714" type="line"/>
      <point x="117" y="714" type="line"/>
      <point x="117" y="661" type="line"/>
    </contour>
  </outline>
</glyph>
<glyph name="quotedbl" format="1">
  <advance width="322"/>
  <unicode hex="0022"/>
  <outline>
    <contour>
      <point x="214" y="498" type="line"/>
      <point x="250" y="498" type="line"/>
      <point x="267" y="743" type="line"/>
      <point x="188" y="743" type="line"/>
    </contour>
    <contour>
      <point x="81" y="498" type="line"/>
      <point x="116" y="498" type="line"/>
      <point x="133" y="743" type="line"/>
      <point x="55" y="743" type="line"/>
    </contour>
  </outline>
</glyph>
<glyph name="numbersign" format="1">
  <advance width="569"/>
  <unicode hex="0023"/>
  <outline>
    <contour>
      <point x="191" y="258" type="line"/>
      <point x="237" y="481" type="line"/>
      <point x="384" y="481" type="line"/>
      <point x="339" y="258" type="line"/>
    </contour>
    <contour>
      <point x="90" y="-8" type="line"/>
      <point x="137" y="-8" type="line"/>
      <point x="183" y="215" type="line"/>
      <point x="330" y="215" type="line"/>
      <point x="285" y="-8" type="line"/>
      <point x="331" y="-8" type="line"/>
      <point x="376" y="215" type="line"/>
      <point x="485" y="215" type="line"/>
      <point x="492" y="258" type="line"/>
      <point x="385" y="258" type="line"/>
      <point x="431" y="481" type="line"/>
      <point x="531" y="481" type="line"/>
      <point x="538" y="523" type="line"/>
      <point x="439" y="523" type="line"/>
      <point x="487" y="751" type="line"/>
      <point x="442" y="751" type="line"/>
      <point x="393" y="523" type="line"/>
      <point x="246" y="523" type="line"/>
      <point x="294" y="751" type="line"/>
      <point x="247" y="751" type="line"/>
      <point x="198" y="523" type="line"/>
      <point x="102" y="523" type="line"/>
      <point x="96" y="481" type="line"/>
      <point x="189" y="481" type="line"/>
      <point x="144" y="258" type="line"/>
      <point x="49" y="258" type="line"/>
      <point x="43" y="215" type="line"/>
      <point x="135" y="215" type="line"/>
    </contour>
  </outline>
</glyph>
<glyph name="dollar" format="1">
  <advance width="593"/>
  <unicode hex="0024"/>
  <outline>
    <contour>
      <point x="271" y="17" type="line"/>
      <point x="271" y="-149" type="line"/>
      <point x="323" y="-149" type="line"/>
      <point x="330" y="17" type="line"/>
    </contour>
    <contour>
      <point x="280" y="856" type="line"/>
      <point x="273" y="698" type="line"/>
      <point x="334" y="698" type="line"/>
      <point x="334" y="856" type="line"/>
    </contour>
    <component base="S"/>
  </outline>
</glyph>
<glyph name="percent" format="1">
  <advance width="789"/>
  <unicode hex="0025"/>
  <outline>
    <contour>
      <point x="565" y="-1" type="curve" smooth="yes"/>
      <point x="674" y="-1"/>
      <point x="715" y="80"/>
      <point x="715" y="185" type="curve" smooth="yes"/>
      <point x="715" y="292"/>
      <point x="675" y="370"/>
      <point x="565" y="370" type="curve" smooth="yes"/>
      <point x="457" y="370"/>
      <point x="416" y="290"/>
      <point x="416" y="185" type="curve" smooth="yes"/>
      <point x="416" y="80"/>
      <point x="455" y="-1"/>
    </contour>
    <contour>
      <point x="566" y="42" type="curve" smooth="yes"/>
      <point x="488" y="42"/>
      <point x="470" y="103"/>
      <point x="470" y="185" type="curve" smooth="yes"/>
      <point x="470" y="265"/>
      <point x="488" y="326"/>
      <point x="566" y="326" type="curve" smooth="yes"/>
      <point x="643" y="326"/>
      <point x="662" y="268"/>
      <point x="662" y="185" type="curve" smooth="yes"/>
      <point x="662" y="105"/>
      <point x="644" y="42"/>
    </contour>
    <contour>
      <point x="142" y="0" type="line"/>
      <point x="203" y="0" type="line"/>
      <point x="603" y="711" type="line"/>
      <point x="547" y="711" type="line"/>
    </contour>
    <contour>
      <point x="180" y="348" type="curve" smooth="yes"/>
      <point x="289" y="348"/>
      <point x="329" y="430"/>
      <point x="329" y="534" type="curve" smooth="yes"/>
      <point x="329" y="641"/>
      <point x="290" y="720"/>
      <point x="180" y="720" type="curve" smooth="yes"/>
      <point x="72" y="720"/>
      <point x="33" y="639"/>
      <point x="33" y="534" type="curve" smooth="yes"/>
      <point x="33" y="430"/>
      <point x="70" y="348"/>
    </contour>
    <contour>
      <point x="180" y="392" type="curve" smooth="yes"/>
      <point x="102" y="392"/>
      <point x="84" y="452"/>
      <point x="84" y="535" type="curve" smooth="yes"/>
      <point x="84" y="615"/>
      <point x="102" y="676"/>
      <point x="180" y="676" type="curve" smooth="yes"/>
      <point x="257" y="676"/>
      <point x="276" y="618"/>
      <point x="276" y="535" type="curve" smooth="yes"/>
      <point x="276" y="455"/>
      <point x="258" y="392"/>
    </contour>
  </outline>
</glyph>
<glyph name="ampersand" format="1">
  <advance width="701"/>
  <unicode hex="0026"/>
  <outline>
    <contour>
      <point x="300" y="667" type="curve" smooth="yes"/>
      <point x="368" y="667"/>
      <point x="405" y="630"/>
      <point x="405" y="568" type="curve" smooth="yes"/>
      <point x="405" y="491"/>
      <point x="334" y="451"/>
      <point x="258" y="412" type="curve"/>
      <point x="197" y="482"/>
      <point x="180" y="519"/>
      <point x="180" y="567" type="curve" smooth="yes"/>
      <point x="180" y="626"/>
      <point x="231" y="667"/>
    </contour>
    <contour>
      <point x="57" y="187" type="curve" smooth="yes"/>
      <point x="57" y="70"/>
      <point x="140" y="-10"/>
      <point x="282" y="-10" type="curve" smooth="yes"/>
      <point x="374" y="-10"/>
      <point x="446" y="29"/>
      <point x="502" y="83" type="curve"/>
      <point x="594" y="-10" type="line"/>
      <point x="634" y="32" type="line"/>
      <point x="542" y="125" type="line"/>
      <point x="594" y="188"/>
      <point x="629" y="262"/>
      <point x="655" y="317" type="curve"/>
      <point x="609" y="348" type="line"/>
      <point x="570" y="271"/>
      <point x="534" y="211"/>
      <point x="500" y="167" type="curve"/>
      <point x="295" y="372" type="line"/>
      <point x="384" y="418"/>
      <point x="470" y="468"/>
      <point x="470" y="569" type="curve" smooth="yes"/>
      <point x="470" y="666"/>
      <point x="400" y="721"/>
      <point x="301" y="721" type="curve" smooth="yes"/>
      <point x="193" y="721"/>
      <point x="118" y="658"/>
      <point x="118" y="566" type="curve" smooth="yes"/>
      <point x="118" y="505"/>
      <point x="140" y="455"/>
      <point x="205" y="385" type="curve"/>
      <point x="110" y="336"/>
      <point x="57" y="285"/>
    </contour>
    <contour>
      <point x="294" y="49" type="curve" smooth="yes"/>
      <point x="186" y="49"/>
      <point x="128" y="102"/>
      <point x="128" y="192" type="curve" smooth="yes"/>
      <point x="128" y="263"/>
      <point x="166" y="303"/>
      <point x="242" y="345" type="curve"/>
      <point x="462" y="123" type="line"/>
      <point x="408" y="69"/>
      <point x="356" y="49"/>
    </contour>
  </outline>
</glyph>
<glyph name="quotesingle" format="1">
  <advance width="174"/>
  <unicode hex="0027"/>
  <outline>
    <contour>
      <point x="63" y="474" type="line"/>
      <point x="107" y="474" type="line"/>
      <point x="119" y="728" type="line"/>
      <point x="45" y="728" type="line"/>
    </contour>
  </outline>
</glyph>
<glyph name="parenright" format="1">
  <advance width="366"/>
  <unicode hex="0029"/>
  <outline>
    <contour>
      <point x="265" y="334" type="curve" smooth="yes"/>
      <point x="265" y="491"/>
      <point x="223" y="642"/>
      <point x="140" y="775" type="curve"/>
      <point x="79" y="775" type="line"/>
      <point x="79" y="761" type="line"/>
      <point x="168" y="613"/>
      <point x="197" y="475"/>
      <point x="197" y="334" type="curve" smooth="yes"/>
      <point x="197" y="193"/>
      <point x="168" y="55"/>
      <point x="79" y="-93" type="curve"/>
      <point x="79" y="-107" type="line"/>
      <point x="140" y="-107" type="line"/>
      <point x="223" y="26"/>
      <point x="265" y="178"/>
    </contour>
  </outline>
</glyph>
<glyph name="asterisk" format="1">
  <advance width="485"/>
  <unicode hex="002A"/>
  <outline>
    <contour>
      <point x="151" y="293" type="line"/>
      <point x="241" y="464" type="line"/>
      <point x="339" y="293" type="line"/>
      <point x="371" y="314"/>
      <point x="365" y="311"/>
      <point x="397" y="332" type="curve"/>
      <point x="344" y="398"/>
      <point x="298" y="463"/>
      <point x="279" y="488" type="curve"/>
      <point x="452" y="527" type="line"/>
      <point x="433" y="594" type="line"/>
      <point x="263" y="524" type="line"/>
      <point x="281" y="715" type="line"/>
      <point x="207" y="715" type="line"/>
      <point x="224" y="524" type="line"/>
      <point x="56" y="594" type="line"/>
      <point x="37" y="527" type="line"/>
      <point x="207" y="488" type="line"/>
      <point x="92" y="332" type="line"/>
    </contour>
  </outline>
</glyph>
<glyph name="plus" format="1">
  <advance width="556"/>
  <unicode hex="002B"/>
  <outline>
    <contour>
      <point x="239" y="554" type="line"/>
      <point x="239" y="368" type="line"/>
      <point x="62" y="368" type="line"/>
      <point x="62" y="298" type="line"/>
      <point x="239" y="298" type="line"/>
      <point x="239" y="108" type="line"/>
      <point x="312" y="108" type="line"/>
      <point x="312" y="298" type="line"/>
      <point x="487" y="298" type="line"/>
      <point x="487" y="368" type="line"/>
      <point x="312" y="368" type="line"/>
      <point x="312" y="554" type="line"/>
    </contour>
  </outline>
</glyph>
<glyph name="comma" format="1">
  <advance width="287"/>
  <unicode hex="002C"/>
  <outline>
    <contour>
      <point x="91" y="-146" type="curve"/>
      <point x="132" y="-146" type="line"/>
      <point x="132" y="-146"/>
      <point x="186" y="71"/>
      <point x="186" y="76" type="curve" smooth="yes"/>
      <point x="186" y="111" type="line"/>
      <point x="107" y="111" type="line"/>
      <point x="107" y="99"/>
      <point x="91" y="-146"/>
    </contour>
  </outline>
</glyph>
<glyph name="period" format="1">
  <advance width="287"/>
  <unicode hex="002E"/>
  <outline>
    <contour>
      <point x="146" y="-6" type="curve" smooth="yes"/>
      <point x="180" y="-6"/>
      <point x="192" y="15"/>
      <point x="192" y="48" type="curve" smooth="yes"/>
      <point x="192" y="80"/>
      <point x="180" y="100"/>
      <point x="146" y="100" type="curve" smooth="yes"/>
      <point x="111" y="100"/>
      <point x="99" y="80"/>
      <point x="99" y="48" type="curve" smooth="yes"/>
      <point x="99" y="15"/>
      <point x="111" y="-6"/>
    </contour>
  </outline>
</glyph>
<glyph name="slash" format="1">
  <advance width="476"/>
  <unicode hex="002F"/>
  <outline>
    <contour>
      <point x="65" y="-70" type="line"/>
      <point x="126" y="-70" type="line"/>
      <point x="437" y="762" type="line"/>
      <point x="375" y="762" type="line"/>
    </contour>
  </outline>
</glyph>
<glyph name="zero" format="1">
  <advance width="607"/>
  <unicode hex="0030"/>
  <outline>
    <contour>
      <point x="306" y="-10" type="curve" smooth="yes"/>
      <point x="471" y="-10"/>
      <point x="540" y="126"/>
      <point x="540" y="346" type="curve" smooth="yes"/>
      <point x="540" y="578"/>
      <point x="462" y="721"/>
      <point x="306" y="721" type="curve" smooth="yes"/>
      <point x="150" y="721"/>
      <point x="67" y="577"/>
      <point x="67" y="346" type="curve" smooth="yes"/>
      <point x="67" y="126"/>
      <point x="141" y="-10"/>
    </contour>
    <contour>
      <point x="306" y="54" type="curve" smooth="yes"/>
      <point x="207" y="54"/>
      <point x="141" y="130"/>
      <point x="141" y="348" type="curve" smooth="yes"/>
      <point x="141" y="352" type="line" smooth="yes"/>
      <point x="141" y="556"/>
      <point x="207" y="658"/>
      <point x="306" y="658" type="curve" smooth="yes"/>
      <point x="405" y="658"/>
      <point x="467" y="571"/>
      <point x="467" y="348" type="curve" smooth="yes"/>
      <point x="467" y="130"/>
      <point x="405" y="54"/>
    </contour>
  </outline>
</glyph>
<glyph name="one" format="1">
  <advance width="604"/>
  <unicode hex="0031"/>
  <outline>
    <contour>
      <point x="101" y="0" type="line"/>
      <point x="534" y="0" type="line"/>
      <point x="534" y="55" type="line"/>
      <point x="364" y="55" type="line"/>
      <point x="364" y="711" type="line"/>
      <point x="295" y="711" type="line"/>
      <point x="258" y="685"/>
      <point x="148" y="647"/>
      <point x="110" y="640" type="curve"/>
      <point x="110" y="580" type="line"/>
      <point x="144" y="584"/>
      <point x="237" y="613"/>
      <point x="291" y="643" type="curve"/>
      <point x="291" y="55" type="line"/>
      <point x="101" y="55" type="line"/>
    </contour>
  </outline>
</glyph>
<glyph name="two" format="1">
  <advance width="604"/>
  <unicode hex="0032"/>
  <outline>
    <contour>
      <point x="120" y="598" type="line"/>
      <point x="160" y="637"/>
      <point x="222" y="659"/>
      <point x="282" y="659" type="curve" smooth="yes"/>
      <point x="357" y="659"/>
      <point x="438" y="623"/>
      <point x="438" y="519" type="curve" smooth="yes"/>
      <point x="438" y="432"/>
      <point x="405" y="401"/>
      <point x="333" y="330" type="curve" smooth="yes"/>
      <point x="65" y="66" type="line"/>
      <point x="80" y="0" type="line"/>
      <point x="499" y="0" type="line"/>
      <point x="502" y="62" type="line"/>
      <point x="151" y="62" type="line"/>
      <point x="379" y="284" type="line" smooth="yes"/>
      <point x="474" y="376"/>
      <point x="508" y="418"/>
      <point x="508" y="522" type="curve" smooth="yes"/>
      <point x="508" y="663"/>
      <point x="387" y="721"/>
      <point x="282" y="721" type="curve" smooth="yes"/>
      <point x="204" y="721"/>
      <point x="124" y="692"/>
      <point x="77" y="643" type="curve"/>
      <point x="111" y="598" type="line"/>
    </contour>
  </outline>
</glyph>
<glyph name="three" format="1">
  <advance width="604"/>
  <unicode hex="0033"/>
  <outline>
    <contour>
      <point x="299" y="-10" type="curve" smooth="yes"/>
      <point x="448" y="-10"/>
      <point x="524" y="81"/>
      <point x="524" y="187" type="curve" smooth="yes"/>
      <point x="524" y="291"/>
      <point x="468" y="359"/>
      <point x="370" y="377" type="curve"/>
      <point x="456" y="397"/>
      <point x="505" y="452"/>
      <point x="505" y="535" type="curve" smooth="yes"/>
      <point x="505" y="539" type="line" smooth="yes"/>
      <point x="505" y="649"/>
      <point x="428" y="721"/>
      <point x="302" y="721" type="curve" smooth="yes"/>
      <point x="240" y="721"/>
      <point x="136" y="703"/>
      <point x="84" y="612" type="curve"/>
      <point x="127" y="576" type="line"/>
      <point x="135" y="576" type="line"/>
      <point x="177" y="635"/>
      <point x="235" y="658"/>
      <point x="297" y="658" type="curve" smooth="yes"/>
      <point x="303" y="658" type="line" smooth="yes"/>
      <point x="386" y="658"/>
      <point x="435" y="615"/>
      <point x="435" y="539" type="curve" smooth="yes"/>
      <point x="435" y="534" type="line" smooth="yes"/>
      <point x="435" y="422"/>
      <point x="330" y="408"/>
      <point x="248" y="407" type="curve"/>
      <point x="214" y="407" type="line"/>
      <point x="225" y="343" type="line"/>
      <point x="247" y="343" type="line" smooth="yes"/>
      <point x="375" y="343"/>
      <point x="454" y="310"/>
      <point x="454" y="188" type="curve" smooth="yes"/>
      <point x="454" y="94"/>
      <point x="386" y="53"/>
      <point x="299" y="53" type="curve" smooth="yes"/>
      <point x="245" y="53"/>
      <point x="177" y="69"/>
      <point x="139" y="126" type="curve"/>
      <point x="133" y="126" type="line"/>
      <point x="89" y="91" type="line"/>
      <point x="134" y="16"/>
      <point x="223" y="-10"/>
    </contour>
  </outline>
</glyph>
<glyph name="four" format="1">
  <advance width="604"/>
  <unicode hex="0034"/>
  <outline>
    <contour>
      <point x="143" y="247" type="line"/>
      <point x="388" y="615" type="line"/>
      <point x="388" y="247" type="line"/>
    </contour>
    <contour>
      <point x="388" y="0" type="line"/>
      <point x="459" y="0" type="line"/>
      <point x="459" y="187" type="line"/>
      <point x="538" y="187" type="line"/>
      <point x="543" y="247" type="line"/>
      <point x="459" y="247" type="line"/>
      <point x="459" y="711" type="line"/>
      <point x="386" y="711" type="line"/>
      <point x="66" y="251" type="line"/>
      <point x="86" y="187" type="line"/>
      <point x="388" y="187" type="line"/>
    </contour>
  </outline>
</glyph>
<glyph name="five" format="1">
  <advance width="604"/>
  <unicode hex="0035"/>
  <outline>
    <contour>
      <point x="319" y="396" type="curve" smooth="yes"/>
      <point x="418" y="396"/>
      <point x="465" y="313"/>
      <point x="465" y="228" type="curve" smooth="yes"/>
      <point x="465" y="134"/>
      <point x="404" y="54"/>
      <point x="295" y="54" type="curve" smooth="yes"/>
      <point x="227" y="54"/>
      <point x="179" y="78"/>
      <point x="135" y="128" type="curve"/>
      <point x="128" y="128" type="line"/>
      <point x="86" y="85" type="line"/>
      <point x="122" y="39"/>
      <point x="197" y="-10"/>
      <point x="295" y="-10" type="curve" smooth="yes"/>
      <point x="456" y="-10"/>
      <point x="544" y="102"/>
      <point x="544" y="229" type="curve" smooth="yes"/>
      <point x="544" y="343"/>
      <point x="471" y="453"/>
      <point x="328" y="453" type="curve" smooth="yes"/>
      <point x="271" y="453"/>
      <point x="229" y="434"/>
      <point x="192" y="402" type="curve"/>
      <point x="215" y="651" type="line"/>
      <point x="494" y="651" type="line"/>
      <point x="501" y="711" type="line"/>
      <point x="145" y="711" type="line"/>
      <point x="123" y="344" type="line"/>
      <point x="186" y="335" type="line"/>
      <point x="217" y="373"/>
      <point x="267" y="396"/>
    </contour>
  </outline>
</glyph>
<glyph name="six" format="1">
  <advance width="604"/>
  <unicode hex="0036"/>
  <outline>
    <contour>
      <point x="312" y="50" type="curve" smooth="yes"/>
      <point x="209" y="50"/>
      <point x="157" y="126"/>
      <point x="157" y="211" type="curve" smooth="yes"/>
      <point x="157" y="335"/>
      <point x="255" y="371"/>
      <point x="316" y="371" type="curve" smooth="yes"/>
      <point x="414" y="371"/>
      <point x="469" y="304"/>
      <point x="469" y="215" type="curve" smooth="yes"/>
      <point x="469" y="129"/>
      <point x="414" y="50"/>
    </contour>
    <contour>
      <point x="314" y="-10" type="curve" smooth="yes"/>
      <point x="454" y="-10"/>
      <point x="540" y="92"/>
      <point x="540" y="215" type="curve" smooth="yes"/>
      <point x="540" y="344"/>
      <point x="450" y="430"/>
      <point x="339" y="430" type="curve" smooth="yes"/>
      <point x="277" y="430"/>
      <point x="231" y="404"/>
      <point x="198" y="375" type="curve"/>
      <point x="275" y="484"/>
      <point x="353" y="593"/>
      <point x="431" y="701" type="curve"/>
      <point x="431" y="711" type="line"/>
      <point x="355" y="711" type="line"/>
      <point x="196" y="490" type="line" smooth="yes"/>
      <point x="127" y="394"/>
      <point x="87" y="324"/>
      <point x="87" y="216" type="curve" smooth="yes"/>
      <point x="87" y="100"/>
      <point x="167" y="-10"/>
    </contour>
  </outline>
</glyph>
<glyph name="seven" format="1">
  <advance width="604"/>
  <unicode hex="0037"/>
  <outline>
    <contour>
      <point x="173" y="0" type="line"/>
      <point x="245" y="0" type="line"/>
      <point x="515" y="657" type="line"/>
      <point x="515" y="711" type="line"/>
      <point x="86" y="711" type="line"/>
      <point x="97" y="651" type="line"/>
      <point x="440" y="651" type="line"/>
    </contour>
  </outline>
</glyph>
<glyph name="eight" format="1">
  <advance width="604"/>
  <unicode hex="0038"/>
  <outline>
    <contour>
      <point x="302" y="397" type="curve"/>
      <point x="208" y="418"/>
      <point x="161" y="468"/>
      <point x="161" y="548" type="curve" smooth="yes"/>
      <point x="161" y="621"/>
      <point x="217" y="664"/>
      <point x="302" y="664" type="curve" smooth="yes"/>
      <point x="387" y="664"/>
      <point x="442" y="621"/>
      <point x="442" y="548" type="curve" smooth="yes"/>
      <point x="442" y="468"/>
      <point x="396" y="418"/>
    </contour>
    <contour>
      <point x="302" y="49" type="curve" smooth="yes"/>
      <point x="197" y="49"/>
      <point x="142" y="95"/>
      <point x="142" y="183" type="curve" smooth="yes"/>
      <point x="142" y="272"/>
      <point x="211" y="322"/>
      <point x="302" y="342" type="curve"/>
      <point x="393" y="322"/>
      <point x="461" y="269"/>
      <point x="461" y="184" type="curve" smooth="yes"/>
      <point x="461" y="92"/>
      <point x="410" y="49"/>
    </contour>
    <contour>
      <point x="302" y="-10" type="curve" smooth="yes"/>
      <point x="427" y="-10"/>
      <point x="530" y="50"/>
      <point x="530" y="176" type="curve" smooth="yes"/>
      <point x="530" y="269"/>
      <point x="470" y="344"/>
      <point x="377" y="373" type="curve"/>
      <point x="459" y="401"/>
      <point x="514" y="455"/>
      <point x="514" y="545" type="curve" smooth="yes"/>
      <point x="514" y="657"/>
      <point x="428" y="721"/>
      <point x="303" y="721" type="curve" smooth="yes"/>
      <point x="178" y="721"/>
      <point x="89" y="657"/>
      <point x="89" y="545" type="curve" smooth="yes"/>
      <point x="89" y="456"/>
      <point x="150" y="396"/>
      <point x="228" y="372" type="curve"/>
      <point x="130" y="339"/>
      <point x="74" y="278"/>
      <point x="74" y="176" type="curve" smooth="yes"/>
      <point x="74" y="51"/>
      <point x="177" y="-10"/>
    </contour>
  </outline>
</glyph>
<glyph name="nine" format="1">
  <advance width="604"/>
  <unicode hex="0039"/>
  <outline>
    <contour>
      <point x="476" y="500" type="curve" smooth="yes"/>
      <point x="476" y="375"/>
      <point x="374" y="340"/>
      <point x="311" y="340" type="curve" smooth="yes"/>
      <point x="211" y="340"/>
      <point x="158" y="410"/>
      <point x="158" y="499" type="curve" smooth="yes"/>
      <point x="158" y="585"/>
      <point x="216" y="662"/>
      <point x="318" y="662" type="curve" smooth="yes"/>
      <point x="421" y="662"/>
      <point x="476" y="585"/>
    </contour>
    <contour>
      <point x="174" y="0" type="line"/>
      <point x="253" y="0" type="line"/>
      <point x="427" y="223" type="line" smooth="yes"/>
      <point x="498" y="315"/>
      <point x="545" y="387"/>
      <point x="545" y="495" type="curve" smooth="yes"/>
      <point x="545" y="611"/>
      <point x="465" y="721"/>
      <point x="318" y="721" type="curve" smooth="yes"/>
      <point x="178" y="721"/>
      <point x="87" y="622"/>
      <point x="87" y="498" type="curve" smooth="yes"/>
      <point x="87" y="369"/>
      <point x="180" y="281"/>
      <point x="294" y="281" type="curve" smooth="yes"/>
      <point x="336" y="281"/>
      <point x="381" y="293"/>
      <point x="417" y="318" type="curve"/>
      <point x="338" y="213"/>
      <point x="255" y="112"/>
      <point x="174" y="9" type="curve"/>
    </contour>
  </outline>
</glyph>
<glyph name="colon" format="1">
  <advance width="300"/>
  <unicode hex="003A"/>
  <outline>
    <contour>
      <point x="147" y="-6" type="curve" smooth="yes"/>
      <point x="186" y="-6"/>
      <point x="200" y="22"/>
      <point x="200" y="49" type="curve" smooth="yes"/>
      <point x="200" y="76"/>
      <point x="186" y="105"/>
      <point x="147" y="105" type="curve" smooth="yes"/>
      <point x="108" y="105"/>
      <point x="92" y="76"/>
      <point x="92" y="49" type="curve" smooth="yes"/>
      <point x="92" y="22"/>
      <point x="109" y="-6"/>
    </contour>
    <contour>
      <point x="147" y="415" type="curve" smooth="yes"/>
      <point x="186" y="415"/>
      <point x="200" y="443"/>
      <point x="200" y="470" type="curve" smooth="yes"/>
      <point x="200" y="497"/>
      <point x="186" y="526"/>
      <point x="147" y="526" type="curve" smooth="yes"/>
      <point x="108" y="526"/>
      <point x="92" y="497"/>
      <point x="92" y="470" type="curve" smooth="yes"/>
      <point x="92" y="443"/>
      <point x="109" y="415"/>
    </contour>
  </outline>
</glyph>
<glyph name="semicolon" format="1">
  <advance width="321"/>
  <unicode hex="003B"/>
  <outline>
    <contour>
      <point x="167" y="413" type="curve" smooth="yes"/>
      <point x="206" y="413"/>
      <point x="221" y="441"/>
      <point x="221" y="469" type="curve" smooth="yes"/>
      <point x="221" y="495"/>
      <point x="206" y="524"/>
      <point x="167" y="524" type="curve" smooth="yes"/>
      <point x="128" y="524"/>
      <point x="113" y="495"/>
      <point x="113" y="469" type="curve" smooth="yes"/>
      <point x="113" y="441"/>
      <point x="129" y="413"/>
    </contour>
    <contour>
      <point x="115" y="-146" type="curve"/>
      <point x="156" y="-146" type="line"/>
      <point x="156" y="-146"/>
      <point x="209" y="71"/>
      <point x="209" y="76" type="curve" smooth="yes"/>
      <point x="209" y="111" type="line"/>
      <point x="131" y="111" type="line"/>
      <point x="131" y="99"/>
      <point x="115" y="-146"/>
    </contour>
  </outline>
</glyph>
<glyph name="less" format="1">
  <advance width="552"/>
  <unicode hex="003C"/>
  <outline>
    <contour>
      <point x="497" y="63" type="line"/>
      <point x="498" y="127" type="line"/>
      <point x="123" y="307" type="line"/>
      <point x="498" y="499" type="line"/>
      <point x="498" y="563" type="line"/>
      <point x="42" y="325" type="line"/>
      <point x="42" y="285" type="line"/>
    </contour>
  </outline>
</glyph>
<glyph name="equal" format="1">
  <advance width="513"/>
  <unicode hex="003D"/>
  <outline>
    <contour>
      <point x="64" y="271" type="line"/>
      <point x="64" y="207" type="line"/>
      <point x="453" y="207" type="line"/>
      <point x="453" y="271" type="line"/>
    </contour>
    <contour>
      <point x="64" y="458" type="line"/>
      <point x="64" y="394" type="line"/>
      <point x="453" y="394" type="line"/>
      <point x="453" y="458" type="line"/>
    </contour>
  </outline>
</glyph>
<glyph name="greater" format="1">
  <advance width="553"/>
  <unicode hex="003E"/>
  <outline>
    <contour>
      <point x="52" y="502" type="line"/>
      <point x="421" y="307" type="line"/>
      <point x="51" y="131" type="line"/>
      <point x="51" y="66" type="line"/>
      <point x="506" y="284" type="line"/>
      <point x="506" y="325" type="line"/>
      <point x="52" y="567" type="line"/>
    </contour>
  </outline>
</glyph>
<glyph name="question" format="1">
  <advance width="442"/>
  <unicode hex="003F"/>
  <outline>
    <contour>
      <point x="181" y="-7" type="curve" smooth="yes"/>
      <point x="219" y="-7"/>
      <point x="234" y="19"/>
      <point x="234" y="46" type="curve" smooth="yes"/>
      <point x="234" y="72"/>
      <point x="219" y="99"/>
      <point x="181" y="99" type="curve" smooth="yes"/>
      <point x="143" y="99"/>
      <point x="127" y="72"/>
      <point x="127" y="46" type="curve" smooth="yes"/>
      <point x="127" y="20"/>
      <point x="143" y="-7"/>
    </contour>
    <contour>
      <point x="163" y="204" type="curve"/>
      <point x="199" y="204" type="line"/>
      <point x="248" y="384"/>
      <point x="363" y="417"/>
      <point x="363" y="562" type="curve" smooth="yes"/>
      <point x="363" y="676"/>
      <point x="288" y="725"/>
      <point x="200" y="725" type="curve" smooth="yes"/>
      <point x="140" y="725"/>
      <point x="92" y="705"/>
      <point x="57" y="679" type="curve"/>
      <point x="70" y="622" type="line"/>
      <point x="90" y="636"/>
      <point x="139" y="664"/>
      <point x="191" y="664" type="curve" smooth="yes"/>
      <point x="254" y="664"/>
      <point x="292" y="631"/>
      <point x="292" y="559" type="curve" smooth="yes"/>
      <point x="292" y="447"/>
      <point x="166" y="347"/>
    </contour>
  </outline>
</glyph>
<glyph name="at" format="1">
  <advance width="964"/>
  <unicode hex="0040"/>
  <outline>
    <contour>
      <point x="445" y="152" type="curve" smooth="yes"/>
      <point x="383" y="152"/>
      <point x="355" y="201"/>
      <point x="355" y="280" type="curve" smooth="yes"/>
      <point x="355" y="396"/>
      <point x="421" y="478"/>
      <point x="514" y="478" type="curve" smooth="yes"/>
      <point x="529" y="478"/>
      <point x="563" y="472"/>
      <point x="586" y="467" type="curve"/>
      <point x="564" y="335" type="line" smooth="yes"/>
      <point x="548" y="235"/>
      <point x="520" y="152"/>
    </contour>
    <contour>
      <point x="470" y="-104" type="curve" smooth="yes"/>
      <point x="565" y="-104"/>
      <point x="658" y="-79"/>
      <point x="721" y="-36" type="curve"/>
      <point x="702" y="10" type="line"/>
      <point x="635" y="-32"/>
      <point x="553" y="-49"/>
      <point x="471" y="-49" type="curve" smooth="yes"/>
      <point x="266" y="-49"/>
      <point x="144" y="85"/>
      <point x="144" y="293" type="curve" smooth="yes"/>
      <point x="144" y="508"/>
      <point x="287" y="670"/>
      <point x="500" y="670" type="curve" smooth="yes"/>
      <point x="707" y="670"/>
      <point x="819" y="541"/>
      <point x="819" y="367" type="curve" smooth="yes"/>
      <point x="819" y="236"/>
      <point x="759" y="158"/>
      <point x="695" y="158" type="curve" smooth="yes"/>
      <point x="653" y="158"/>
      <point x="626" y="192"/>
      <point x="626" y="235" type="curve" smooth="yes"/>
      <point x="626" y="297"/>
      <point x="641" y="381"/>
      <point x="658" y="491" type="curve"/>
      <point x="615" y="511"/>
      <point x="554" y="525"/>
      <point x="507" y="525" type="curve" smooth="yes"/>
      <point x="367" y="525"/>
      <point x="292" y="402"/>
      <point x="292" y="275" type="curve" smooth="yes"/>
      <point x="292" y="173"/>
      <point x="346" y="100"/>
      <point x="437" y="100" type="curve" smooth="yes"/>
      <point x="507" y="100"/>
      <point x="554" y="155"/>
      <point x="579" y="216" type="curve"/>
      <point x="592" y="143"/>
      <point x="632" y="104"/>
      <point x="695" y="104" type="curve" smooth="yes"/>
      <point x="780" y="104"/>
      <point x="876" y="192"/>
      <point x="876" y="363" type="curve" smooth="yes"/>
      <point x="876" y="585"/>
      <point x="715" y="724"/>
      <point x="503" y="724" type="curve" smooth="yes"/>
      <point x="257" y="724"/>
      <point x="78" y="542"/>
      <point x="78" y="294" type="curve" smooth="yes"/>
      <point x="78" y="46"/>
      <point x="237" y="-104"/>
    </contour>
  </outline>
</glyph>
<glyph name="A" format="1">
  <advance width="673"/>
  <unicode hex="0041"/>
  <outline>
    <contour>
      <point x="335" y="711" type="move" name="top"/>
    </contour>
    <contour>
      <point x="336" y="0" type="move" name="bot"/>
    </contour>
    <contour>
      <point x="299" y="711" type="line"/>
      <point x="30" y="0" type="line"/>
      <point x="105" y="0" type="line"/>
      <point x="192" y="231" type="line"/>
      <point x="482" y="231" type="line"/>
      <point x="568" y="0" type="line"/>
      <point x="644" y="0" type="line"/>
      <point x="372" y="711" type="line"/>
    </contour>
    <contour>
      <point x="211" y="286" type="line"/>
      <point x="336" y="630" type="line"/>
      <point x="463" y="286" type="line"/>
    </contour>
  </outline>
</glyph>
<glyph name="B" format="1">
  <advance width="666"/>
  <unicode hex="0042"/>
  <outline>
    <contour>
      <point x="323" y="711" type="move" name="top"/>
    </contour>
    <contour>
      <point x="271" y="-5" type="curve" smooth="yes"/>
      <point x="514" y="-5"/>
      <point x="602" y="59"/>
      <point x="602" y="208" type="curve" smooth="yes"/>
      <point x="602" y="296"/>
      <point x="558" y="358"/>
      <point x="454" y="383" type="curve"/>
      <point x="549" y="413"/>
      <point x="575" y="470"/>
      <point x="575" y="537" type="curve" smooth="yes"/>
      <point x="575" y="615"/>
      <point x="561" y="715"/>
      <point x="296" y="715" type="curve" smooth="yes"/>
      <point x="242" y="715"/>
      <point x="179" y="711"/>
      <point x="102" y="702" type="curve"/>
      <point x="102" y="3" type="line"/>
      <point x="165" y="-2"/>
      <point x="221" y="-5"/>
    </contour>
    <contour>
      <point x="179" y="651" type="line"/>
      <point x="226" y="655"/>
      <point x="266" y="658"/>
      <point x="301" y="658" type="curve" smooth="yes"/>
      <point x="459" y="658"/>
      <point x="506" y="618"/>
      <point x="506" y="533" type="curve" smooth="yes"/>
      <point x="506" y="429"/>
      <point x="426" y="410"/>
      <point x="331" y="410" type="curve" smooth="yes"/>
      <point x="179" y="410" type="line"/>
    </contour>
    <contour>
      <point x="179" y="354" type="line"/>
      <point x="318" y="354" type="line" smooth="yes"/>
      <point x="462" y="354"/>
      <point x="526" y="311"/>
      <point x="526" y="204" type="curve" smooth="yes"/>
      <point x="526" y="117"/>
      <point x="506" y="54"/>
      <point x="287" y="54" type="curve" smooth="yes"/>
      <point x="255" y="54"/>
      <point x="220" y="56"/>
      <point x="179" y="58" type="curve"/>
    </contour>
  </outline>
</glyph>
<glyph name="C" format="1">
  <advance width="681"/>
  <unicode hex="0043"/>
  <outline>
    <contour>
      <point x="379" y="711" type="move" name="top"/>
    </contour>
    <contour>
      <point x="387" y="0" type="move" name="bot"/>
    </contour>
    <contour>
      <point x="642" y="545" type="line"/>
      <point x="613" y="667"/>
      <point x="496" y="721"/>
      <point x="389" y="721" type="curve" smooth="yes"/>
      <point x="201" y="721"/>
      <point x="75" y="587"/>
      <point x="75" y="356" type="curve" smooth="yes"/>
      <point x="75" y="125"/>
      <point x="201" y="-9"/>
      <point x="389" y="-9" type="curve" smooth="yes"/>
      <point x="496" y="-9"/>
      <point x="614" y="45"/>
      <point x="644" y="167" type="curve"/>
      <point x="589" y="187" type="line"/>
      <point x="582" y="187" type="line"/>
      <point x="561" y="106"/>
      <point x="482" y="53"/>
      <point x="393" y="53" type="curve" smooth="yes"/>
      <point x="248" y="53"/>
      <point x="153" y="159"/>
      <point x="153" y="356" type="curve" smooth="yes"/>
      <point x="153" y="554"/>
      <point x="248" y="659"/>
      <point x="394" y="659" type="curve" smooth="yes"/>
      <point x="482" y="659"/>
      <point x="559" y="605"/>
      <point x="580" y="525" type="curve"/>
      <point x="587" y="525" type="line"/>
    </contour>
  </outline>
</glyph>
<glyph name="D" format="1">
  <advance width="732"/>
  <unicode hex="0044"/>
  <outline>
    <contour>
      <point x="362" y="711" type="move" name="top"/>
    </contour>
    <contour>
      <point x="379" y="-0" type="move" name="bot"/>
    </contour>
    <contour>
      <point x="102" y="4" type="line"/>
      <point x="155" y="-2"/>
      <point x="205" y="-5"/>
      <point x="249" y="-5" type="curve" smooth="yes"/>
      <point x="558" y="-5"/>
      <point x="658" y="138"/>
      <point x="658" y="362" type="curve" smooth="yes"/>
      <point x="658" y="576"/>
      <point x="587" y="714"/>
      <point x="282" y="714" type="curve" smooth="yes"/>
      <point x="229" y="714"/>
      <point x="169" y="711"/>
      <point x="102" y="702" type="curve"/>
    </contour>
    <contour>
      <point x="179" y="54" type="curve"/>
      <point x="179" y="652" type="line"/>
      <point x="219" y="656"/>
      <point x="255" y="658"/>
      <point x="287" y="658" type="curve" smooth="yes"/>
      <point x="523" y="658"/>
      <point x="581" y="550"/>
      <point x="581" y="359" type="curve" smooth="yes"/>
      <point x="581" y="173"/>
      <point x="519" y="50"/>
      <point x="269" y="50" type="curve" smooth="yes"/>
      <point x="242" y="50"/>
      <point x="211" y="51"/>
    </contour>
  </outline>
</glyph>
<glyph name="E" format="1">
  <advance width="619"/>
  <unicode hex="0045"/>
  <outline>
    <contour>
      <point x="352" y="711" type="move" name="top"/>
    </contour>
    <contour>
      <point x="333" y="0" type="move" name="bot"/>
    </contour>
    <contour>
      <point x="102" y="711" type="line"/>
      <point x="102" y="0" type="line"/>
      <point x="557" y="0" type="line"/>
      <point x="562" y="60" type="line"/>
      <point x="179" y="60" type="line"/>
      <point x="179" y="337" type="line"/>
      <point x="521" y="337" type="line"/>
      <point x="521" y="397" type="line"/>
      <point x="179" y="397" type="line"/>
      <point x="179" y="651" type="line"/>
      <point x="554" y="651" type="line"/>
      <point x="557" y="711" type="line"/>
    </contour>
  </outline>
</glyph>
<glyph name="F" format="1">
  <advance width="573"/>
  <unicode hex="0046"/>
  <outline>
    <contour>
      <point x="340" y="711" type="move" name="top"/>
    </contour>
    <contour>
      <point x="102" y="711" type="line"/>
      <point x="102" y="0" type="line"/>
      <point x="180" y="0" type="line"/>
      <point x="180" y="329" type="line"/>
      <point x="506" y="329" type="line"/>
      <point x="506" y="386" type="line"/>
      <point x="180" y="386" type="line"/>
      <point x="180" y="650" type="line"/>
      <point x="547" y="650" type="line"/>
      <point x="552" y="711" type="line"/>
    </contour>
  </outline>
</glyph>
<glyph name="G" format="1">
  <advance width="717"/>
  <unicode hex="0047"/>
  <outline>
    <contour>
      <point x="395" y="711" type="move" name="top"/>
    </contour>
    <contour>
      <point x="401" y="0" type="move" name="bot"/>
    </contour>
    <contour>
      <point x="404" y="-10" type="curve" smooth="yes"/>
      <point x="500" y="-10"/>
      <point x="574" y="6"/>
      <point x="645" y="34" type="curve"/>
      <point x="645" y="368" type="line"/>
      <point x="415" y="368" type="line"/>
      <point x="410" y="314" type="line"/>
      <point x="573" y="306" type="line"/>
      <point x="573" y="74" type="line"/>
      <point x="537" y="64"/>
      <point x="484" y="53"/>
      <point x="418" y="53" type="curve" smooth="yes"/>
      <point x="227" y="53"/>
      <point x="153" y="175"/>
      <point x="153" y="359" type="curve" smooth="yes"/>
      <point x="153" y="540"/>
      <point x="251" y="658"/>
      <point x="417" y="658" type="curve" smooth="yes"/>
      <point x="501" y="658"/>
      <point x="566" y="625"/>
      <point x="604" y="592" type="curve"/>
      <point x="610" y="592" type="line"/>
      <point x="644" y="639" type="line"/>
      <point x="596" y="687"/>
      <point x="512" y="720"/>
      <point x="416" y="720" type="curve" smooth="yes"/>
      <point x="207" y="720"/>
      <point x="75" y="579"/>
      <point x="75" y="358" type="curve" smooth="yes"/>
      <point x="75" y="145"/>
      <point x="183" y="-10"/>
    </contour>
  </outline>
</glyph>
<glyph name="H" format="1">
  <advance width="745"/>
  <unicode hex="0048"/>
  <outline>
    <contour>
      <point x="378" y="711" type="move" name="top"/>
    </contour>
    <contour>
      <point x="564" y="335" type="line"/>
      <point x="564" y="0" type="line"/>
      <point x="642" y="0" type="line"/>
      <point x="642" y="711" type="line"/>
      <point x="564" y="711" type="line"/>
      <point x="564" y="396" type="line"/>
      <point x="181" y="396" type="line"/>
      <point x="181" y="711" type="line"/>
      <point x="104" y="711" type="line"/>
      <point x="104" y="0" type="line"/>
      <point x="181" y="0" type="line"/>
      <point x="181" y="335" type="line"/>
    </contour>
  </outline>
</glyph>
<glyph name="J" format="1">
  <advance width="375"/>
  <unicode hex="004A"/>
  <outline>
    <contour>
      <point x="224" y="711" type="move" name="top"/>
    </contour>
    <contour>
      <point x="184" y="711" type="line"/>
      <point x="184" y="8" type="line" smooth="yes"/>
      <point x="184" y="-75"/>
      <point x="177" y="-86"/>
      <point x="119" y="-109" type="curve" smooth="yes"/>
      <point x="67" y="-130" type="line"/>
      <point x="91" y="-188" type="line"/>
      <point x="128" y="-175" type="line" smooth="yes"/>
      <point x="234" y="-137"/>
      <point x="261" y="-115"/>
      <point x="261" y="12" type="curve" smooth="yes"/>
      <point x="261" y="711" type="line"/>
    </contour>
  </outline>
</glyph>
<glyph name="K" format="1">
  <advance width="630"/>
  <unicode hex="004B"/>
  <outline>
    <contour>
      <point x="326" y="711" type="move" name="top"/>
    </contour>
    <contour>
      <point x="327" y="0" type="move" name="bot"/>
    </contour>
    <contour>
      <point x="612" y="711" type="line"/>
      <point x="527" y="711" type="line"/>
      <point x="179" y="363" type="line"/>
      <point x="179" y="711" type="line"/>
      <point x="102" y="711" type="line"/>
      <point x="102" y="0" type="line"/>
      <point x="179" y="0" type="line"/>
      <point x="179" y="291" type="line"/>
      <point x="257" y="367" type="line"/>
      <point x="543" y="0" type="line"/>
      <point x="630" y="0" type="line"/>
      <point x="630" y="8" type="line"/>
      <point x="314" y="408" type="line"/>
      <point x="612" y="702" type="line"/>
    </contour>
  </outline>
</glyph>
<glyph name="L" format="1">
  <advance width="532"/>
  <unicode hex="004C"/>
  <outline>
    <contour>
      <point x="229" y="711" type="move" name="top"/>
    </contour>
    <contour>
      <point x="313" y="0" type="move" name="bot"/>
    </contour>
    <contour>
      <point x="102" y="711" type="line"/>
      <point x="102" y="0" type="line"/>
      <point x="524" y="0" type="line"/>
      <point x="525" y="60" type="line"/>
      <point x="179" y="60" type="line"/>
      <point x="179" y="711" type="line"/>
    </contour>
  </outline>
</glyph>
<glyph name="M" format="1">
  <advance width="877"/>
  <unicode hex="004D"/>
  <outline>
    <contour>
      <point x="445" y="711" type="move" name="top"/>
    </contour>
    <contour>
      <point x="93" y="0" type="line"/>
      <point x="165" y="0" type="line"/>
      <point x="165" y="241" type="line"/>
      <point x="169" y="617" type="line"/>
      <point x="406" y="78" type="line"/>
      <point x="472" y="78" type="line"/>
      <point x="709" y="612" type="line"/>
      <point x="713" y="242" type="line"/>
      <point x="713" y="0" type="line"/>
      <point x="785" y="0" type="line"/>
      <point x="785" y="241" type="line"/>
      <point x="774" y="711" type="line"/>
      <point x="681" y="711" type="line"/>
      <point x="439" y="166" type="line"/>
      <point x="200" y="711" type="line"/>
      <point x="104" y="711" type="line"/>
      <point x="93" y="241" type="line"/>
    </contour>
  </outline>
</glyph>
<glyph name="N" format="1">
  <advance width="741"/>
  <unicode hex="004E"/>
  <outline>
    <contour>
      <point x="384" y="711" type="move" name="top"/>
    </contour>
    <contour>
      <point x="377" y="0" type="move" name="bot"/>
    </contour>
    <contour>
      <point x="571" y="711" type="line"/>
      <point x="571" y="297" type="line"/>
      <point x="576" y="97" type="line"/>
      <point x="179" y="711" type="line"/>
      <point x="102" y="711" type="line"/>
      <point x="102" y="0" type="line"/>
      <point x="171" y="0" type="line"/>
      <point x="171" y="395" type="line"/>
      <point x="164" y="610" type="line"/>
      <point x="561" y="0" type="line"/>
      <point x="640" y="0" type="line"/>
      <point x="640" y="711" type="line"/>
    </contour>
  </outline>
</glyph>
<glyph name="O" format="1">
  <advance width="791"/>
  <unicode hex="004F"/>
  <outline>
    <contour>
      <point x="397" y="711" type="move" name="top"/>
    </contour>
    <contour>
      <point x="638" y="351" type="curve" smooth="yes"/>
      <point x="638" y="174"/>
      <point x="575" y="52"/>
      <point x="396" y="52" type="curve" smooth="yes"/>
      <point x="217" y="52"/>
      <point x="154" y="174"/>
      <point x="154" y="351" type="curve" smooth="yes"/>
      <point x="154" y="536"/>
      <point x="224" y="659"/>
      <point x="397" y="659" type="curve" smooth="yes"/>
      <point x="571" y="659"/>
      <point x="638" y="535"/>
    </contour>
    <contour>
      <point x="77" y="352" type="curve" smooth="yes"/>
      <point x="77" y="133"/>
      <point x="176" y="-10"/>
      <point x="397" y="-10" type="curve" smooth="yes"/>
      <point x="615" y="-10"/>
      <point x="715" y="136"/>
      <point x="715" y="350" type="curve" smooth="yes"/>
      <point x="715" y="575"/>
      <point x="609" y="721"/>
      <point x="398" y="721" type="curve" smooth="yes"/>
      <point x="182" y="721"/>
      <point x="77" y="577"/>
    </contour>
  </outline>
</glyph>
<glyph name="P" format="1">
  <advance width="621"/>
  <unicode hex="0050"/>
  <outline>
    <contour>
      <point x="327" y="711" type="move" name="top"/>
    </contour>
    <contour>
      <point x="102" y="702" type="curve"/>
      <point x="102" y="0" type="line"/>
      <point x="179" y="0" type="line"/>
      <point x="179" y="326" type="line"/>
      <point x="219" y="323"/>
      <point x="254" y="321"/>
      <point x="286" y="321" type="curve" smooth="yes"/>
      <point x="521" y="321"/>
      <point x="574" y="403"/>
      <point x="574" y="526" type="curve" smooth="yes"/>
      <point x="574" y="653"/>
      <point x="506" y="714"/>
      <point x="298" y="714" type="curve" smooth="yes"/>
      <point x="243" y="714"/>
      <point x="178" y="711"/>
    </contour>
    <contour>
      <point x="179" y="382" type="curve"/>
      <point x="179" y="652" type="line"/>
      <point x="227" y="656"/>
      <point x="269" y="658"/>
      <point x="304" y="658" type="curve" smooth="yes"/>
      <point x="466" y="658"/>
      <point x="503" y="613"/>
      <point x="503" y="525" type="curve" smooth="yes"/>
      <point x="503" y="427"/>
      <point x="470" y="377"/>
      <point x="291" y="377" type="curve" smooth="yes"/>
      <point x="259" y="377"/>
      <point x="221" y="379"/>
    </contour>
  </outline>
</glyph>
<glyph name="Q" format="1">
  <advance width="781"/>
  <unicode hex="0051"/>
  <outline>
    <contour>
      <point x="421" y="14" type="line"/>
      <point x="430" y="-4"/>
      <point x="574" y="-202"/>
      <point x="577" y="-207" type="curve"/>
      <point x="625" y="-171" type="line"/>
      <point x="618" y="-164"/>
      <point x="489" y="16"/>
      <point x="484" y="27" type="curve"/>
    </contour>
    <component base="O"/>
  </outline>
</glyph>
<glyph name="R" format="1">
  <advance width="655"/>
  <unicode hex="0052"/>
  <outline>
    <contour>
      <point x="343" y="711" type="move" name="top"/>
    </contour>
    <contour>
      <point x="347" y="0" type="move" name="bot"/>
    </contour>
    <contour>
      <point x="597" y="527" type="curve" smooth="yes"/>
      <point x="597" y="659"/>
      <point x="531" y="714"/>
      <point x="318" y="714" type="curve" smooth="yes"/>
      <point x="258" y="714"/>
      <point x="187" y="710"/>
      <point x="102" y="702" type="curve"/>
      <point x="102" y="0" type="line"/>
      <point x="179" y="0" type="line"/>
      <point x="179" y="335" type="line"/>
      <point x="371" y="335" type="line"/>
      <point x="535" y="0" type="line"/>
      <point x="616" y="0" type="line"/>
      <point x="616" y="9" type="line"/>
      <point x="448" y="343" type="line"/>
      <point x="545" y="366"/>
      <point x="597" y="423"/>
    </contour>
    <contour>
      <point x="179" y="652" type="line"/>
      <point x="234" y="656"/>
      <point x="280" y="659"/>
      <point x="319" y="659" type="curve" smooth="yes"/>
      <point x="494" y="659"/>
      <point x="526" y="613"/>
      <point x="526" y="527" type="curve" smooth="yes"/>
      <point x="526" y="429"/>
      <point x="490" y="390"/>
      <point x="327" y="390" type="curve" smooth="yes"/>
      <point x="179" y="390" type="line"/>
    </contour>
  </outline>
</glyph>
<glyph name="S" format="1">
  <advance width="593"/>
  <unicode hex="0053"/>
  <outline>
    <contour>
      <point x="302" y="719" type="move" name="top"/>
    </contour>
    <contour>
      <point x="305" y="0" type="move" name="bot"/>
    </contour>
    <contour>
      <point x="461" y="188" type="curve" smooth="yes"/>
      <point x="461" y="89"/>
      <point x="392" y="53"/>
      <point x="292" y="53" type="curve" smooth="yes"/>
      <point x="218" y="53"/>
      <point x="154" y="76"/>
      <point x="106" y="121" type="curve"/>
      <point x="101" y="121" type="line"/>
      <point x="61" y="78" type="line"/>
      <point x="96" y="36"/>
      <point x="175" y="-10"/>
      <point x="292" y="-10" type="curve" smooth="yes"/>
      <point x="410" y="-10"/>
      <point x="533" y="37"/>
      <point x="533" y="188" type="curve" smooth="yes"/>
      <point x="533" y="312"/>
      <point x="462" y="345"/>
      <point x="351" y="389" type="curve" smooth="yes"/>
      <point x="247" y="431" type="line"/>
      <point x="164" y="466"/>
      <point x="140" y="482"/>
      <point x="140" y="544" type="curve" smooth="yes"/>
      <point x="140" y="633"/>
      <point x="218" y="659"/>
      <point x="303" y="659" type="curve" smooth="yes"/>
      <point x="379" y="659"/>
      <point x="439" y="630"/>
      <point x="475" y="593" type="curve"/>
      <point x="481" y="593" type="line"/>
      <point x="519" y="638" type="line"/>
      <point x="473" y="689"/>
      <point x="393" y="721"/>
      <point x="304" y="721" type="curve" smooth="yes"/>
      <point x="184" y="721"/>
      <point x="63" y="682"/>
      <point x="63" y="534" type="curve" smooth="yes"/>
      <point x="63" y="436"/>
      <point x="120" y="407"/>
      <point x="219" y="366" type="curve" smooth="yes"/>
      <point x="321" y="324" type="line" smooth="yes"/>
      <point x="428" y="280"/>
      <point x="461" y="259"/>
    </contour>
  </outline>
</glyph>
<glyph name="T" format="1">
  <advance width="553"/>
  <unicode hex="0054"/>
  <outline>
    <contour>
      <point x="278" y="711" type="move" name="top"/>
    </contour>
    <contour>
      <point x="278" y="0" type="move" name="bot"/>
    </contour>
    <contour>
      <point x="6" y="711" type="line"/>
      <point x="6" y="652" type="line"/>
      <point x="237" y="652" type="line"/>
      <point x="237" y="0" type="line"/>
      <point x="314" y="0" type="line"/>
      <point x="314" y="652" type="line"/>
      <point x="547" y="652" type="line"/>
      <point x="547" y="711" type="line"/>
    </contour>
  </outline>
</glyph>
<glyph name="U" format="1">
  <advance width="707"/>
  <unicode hex="0055"/>
  <outline>
    <contour>
      <point x="357" y="711" type="move" name="top"/>
    </contour>
    <contour>
      <point x="352" y="0" type="move" name="bot"/>
    </contour>
    <contour>
      <point x="543" y="711" type="line"/>
      <point x="543" y="266" type="line" smooth="yes"/>
      <point x="543" y="128"/>
      <point x="487" y="53"/>
      <point x="353" y="53" type="curve" smooth="yes"/>
      <point x="214" y="53"/>
      <point x="162" y="128"/>
      <point x="162" y="266" type="curve" smooth="yes"/>
      <point x="162" y="711" type="line"/>
      <point x="84" y="711" type="line"/>
      <point x="84" y="265" type="line" smooth="yes"/>
      <point x="84" y="104"/>
      <point x="162" y="-10"/>
      <point x="353" y="-10" type="curve" smooth="yes"/>
      <point x="542" y="-10"/>
      <point x="621" y="108"/>
      <point x="621" y="264" type="curve" smooth="yes"/>
      <point x="621" y="711" type="line"/>
    </contour>
  </outline>
</glyph>
<glyph name="V" format="1">
  <advance width="695"/>
  <unicode hex="0056"/>
  <outline>
    <contour>
      <point x="314" y="0" type="line"/>
      <point x="376" y="0" type="line"/>
      <point x="656" y="711" type="line"/>
      <point x="573" y="711" type="line"/>
      <point x="497" y="507"/>
      <point x="421" y="304"/>
      <point x="346" y="99" type="curve"/>
      <point x="272" y="305"/>
      <point x="194" y="507"/>
      <point x="118" y="711" type="curve"/>
      <point x="40" y="711" type="line"/>
    </contour>
  </outline>
</glyph>
<glyph name="W" format="1">
  <advance width="974"/>
  <unicode hex="0057"/>
  <outline>
    <contour>
      <point x="492" y="711" type="move" name="top"/>
    </contour>
    <contour>
      <point x="491" y="0" type="move" name="bot"/>
    </contour>
    <contour>
      <point x="492" y="604" type="line"/>
      <point x="668" y="0" type="line"/>
      <point x="744" y="0" type="line"/>
      <point x="937" y="711" type="line"/>
      <point x="863" y="711" type="line"/>
      <point x="706" y="96" type="line"/>
      <point x="529" y="694" type="line"/>
      <point x="454" y="694" type="line"/>
      <point x="277" y="102" type="line"/>
      <point x="105" y="711" type="line"/>
      <point x="38" y="711" type="line"/>
      <point x="237" y="0" type="line"/>
      <point x="311" y="0" type="line"/>
    </contour>
  </outline>
</glyph>
<glyph name="X" format="1">
  <advance width="626"/>
  <unicode hex="0058"/>
  <outline>
    <contour>
      <point x="354" y="355" type="line"/>
      <point x="587" y="711" type="line"/>
      <point x="505" y="711" type="line"/>
      <point x="314" y="415" type="line"/>
      <point x="118" y="711" type="line"/>
      <point x="34" y="711" type="line"/>
      <point x="268" y="358" type="line"/>
      <point x="32" y="0" type="line"/>
      <point x="110" y="0" type="line"/>
      <point x="308" y="297" type="line"/>
      <point x="504" y="0" type="line"/>
      <point x="589" y="0" type="line"/>
    </contour>
  </outline>
</glyph>
<glyph name="Y" format="1">
  <advance width="650"/>
  <unicode hex="0059"/>
  <outline>
    <contour>
      <point x="326" y="711" type="move" name="top"/>
    </contour>
    <contour>
      <point x="367" y="259" type="line"/>
      <point x="611" y="711" type="line"/>
      <point x="536" y="711" type="line"/>
      <point x="328" y="325" type="line"/>
      <point x="109" y="711" type="line"/>
      <point x="39" y="711" type="line"/>
      <point x="290" y="260" type="line"/>
      <point x="290" y="0" type="line"/>
      <point x="367" y="0" type="line"/>
    </contour>
  </outline>
</glyph>
<glyph name="Z" format="1">
  <advance width="579"/>
  <unicode hex="005A"/>
  <outline>
    <contour>
      <point x="326" y="711" type="move" name="top"/>
    </contour>
    <contour>
      <point x="318" y="0" type="move" name="bot"/>
    </contour>
    <contour>
      <point x="50" y="0" type="line"/>
      <point x="542" y="0" type="line"/>
      <point x="546" y="60" type="line"/>
      <point x="135" y="60" type="line"/>
      <point x="542" y="656" type="line"/>
      <point x="539" y="711" type="line"/>
      <point x="67" y="711" type="line"/>
      <point x="67" y="651" type="line"/>
      <point x="458" y="651" type="line"/>
      <point x="50" y="58" type="line"/>
    </contour>
  </outline>
</glyph>
<glyph name="bracketleft" format="1">
  <advance width="381"/>
  <unicode hex="005B"/>
  <outline>
    <contour>
      <point x="102" y="-122" type="line"/>
      <point x="325" y="-122" type="line"/>
      <point x="325" y="-68" type="line"/>
      <point x="179" y="-68" type="line"/>
      <point x="179" y="675" type="line"/>
      <point x="325" y="675" type="line"/>
      <point x="325" y="729" type="line"/>
      <point x="102" y="729" type="line"/>
    </contour>
  </outline>
</glyph>
<glyph name="backslash" format="1">
  <advance width="461"/>
  <unicode hex="005C"/>
  <outline>
    <contour>
      <point x="323" y="-15" type="line"/>
      <point x="379" y="-15" type="line"/>
      <point x="108" y="719" type="line"/>
      <point x="52" y="719" type="line"/>
    </contour>
  </outline>
</glyph>
<glyph name="bracketright" format="1">
  <advance width="437"/>
  <unicode hex="005D"/>
  <outline>
    <contour>
      <point x="117" y="-122" type="line"/>
      <point x="339" y="-122" type="line"/>
      <point x="339" y="729" type="line"/>
      <point x="117" y="729" type="line"/>
      <point x="117" y="675" type="line"/>
      <point x="263" y="675" type="line"/>
      <point x="263" y="-68" type="line"/>
      <point x="117" y="-68" type="line"/>
    </contour>
  </outline>
</glyph>
<glyph name="asciicircum" format="1">
  <advance width="619"/>
  <unicode hex="005E"/>
  <outline>
    <contour>
      <point x="291" y="711" type="line"/>
      <point x="51" y="152" type="line"/>
      <point x="120" y="152" type="line"/>
      <point x="310" y="603" type="line"/>
      <point x="500" y="152" type="line"/>
      <point x="569" y="152" type="line"/>
      <point x="327" y="711" type="line"/>
    </contour>
  </outline>
</glyph>
<glyph name="underscore" format="1">
  <advance width="433"/>
  <unicode hex="005F"/>
  <outline>
    <contour>
      <point x="0" y="-125" type="line"/>
      <point x="433" y="-125" type="line"/>
      <point x="433" y="-71" type="line"/>
      <point x="0" y="-71" type="line"/>
    </contour>
  </outline>
</glyph>
<glyph name="grave" format="1">
  <advance width="434"/>
  <unicode hex="0060"/>
  <outline>
    <contour>
      <point x="221" y="519" type="move" name="_top"/>
    </contour>
    <contour>
      <point x="195" y="590" type="line"/>
      <point x="244" y="590" type="line"/>
      <point x="146" y="771" type="line"/>
      <point x="49" y="771" type="line"/>
    </contour>
  </outline>
</glyph>
<glyph name="a" format="1">
  <advance width="544"/>
  <unicode hex="0061"/>
  <outline>
    <contour>
      <point x="272" y="529" type="move" name="top"/>
    </contour>
    <contour>
      <point x="243" y="0" type="move" name="bot"/>
    </contour>
    <contour>
      <point x="236" y="46" type="curve" smooth="yes"/>
      <point x="175" y="46"/>
      <point x="128" y="70"/>
      <point x="128" y="141" type="curve" smooth="yes"/>
      <point x="128" y="205"/>
      <point x="160" y="242"/>
      <point x="285" y="242" type="curve" smooth="yes"/>
      <point x="287" y="242" type="line"/>
      <point x="394" y="241" type="line"/>
      <point x="394" y="125" type="line"/>
      <point x="355" y="74"/>
      <point x="300" y="46"/>
    </contour>
    <contour>
      <point x="57" y="142" type="curve" smooth="yes"/>
      <point x="57" y="41"/>
      <point x="125" y="-10"/>
      <point x="227" y="-10" type="curve" smooth="yes"/>
      <point x="297" y="-10"/>
      <point x="353" y="14"/>
      <point x="399" y="71" type="curve"/>
      <point x="405" y="0" type="line"/>
      <point x="466" y="0" type="line"/>
      <point x="466" y="350" type="line" smooth="yes"/>
      <point x="466" y="490"/>
      <point x="386" y="540"/>
      <point x="269" y="540" type="curve" smooth="yes"/>
      <point x="201" y="540"/>
      <point x="126" y="523"/>
      <point x="78" y="492" type="curve"/>
      <point x="102" y="435" type="line"/>
      <point x="151" y="469"/>
      <point x="218" y="483"/>
      <point x="270" y="483" type="curve" smooth="yes"/>
      <point x="353" y="483"/>
      <point x="394" y="443"/>
      <point x="394" y="355" type="curve" smooth="yes"/>
      <point x="394" y="291" type="line"/>
      <point x="280" y="292" type="line"/>
      <point x="274" y="292" type="line" smooth="yes"/>
      <point x="117" y="292"/>
      <point x="57" y="236"/>
    </contour>
  </outline>
</glyph>
<glyph name="b" format="1">
  <advance width="591"/>
  <unicode hex="0062"/>
  <outline>
    <contour>
      <point x="320" y="528" type="move" name="top"/>
    </contour>
    <contour>
      <point x="307" y="46" type="curve" smooth="yes"/>
      <point x="239" y="46"/>
      <point x="186" y="75"/>
      <point x="154" y="125" type="curve"/>
      <point x="154" y="275" type="line" smooth="yes"/>
      <point x="154" y="399"/>
      <point x="206" y="484"/>
      <point x="315" y="484" type="curve" smooth="yes"/>
      <point x="426" y="484"/>
      <point x="460" y="388"/>
      <point x="460" y="264" type="curve" smooth="yes"/>
      <point x="460" y="135"/>
      <point x="415" y="46"/>
    </contour>
    <contour>
      <point x="324" y="540" type="curve" smooth="yes"/>
      <point x="260" y="540"/>
      <point x="193" y="516"/>
      <point x="155" y="427" type="curve"/>
      <point x="157" y="536" type="line"/>
      <point x="157" y="762" type="line"/>
      <point x="84" y="752" type="line"/>
      <point x="84" y="0" type="line"/>
      <point x="141" y="0" type="line"/>
      <point x="146" y="62" type="line"/>
      <point x="178" y="21"/>
      <point x="232" y="-10"/>
      <point x="308" y="-10" type="curve" smooth="yes"/>
      <point x="453" y="-10"/>
      <point x="535" y="100"/>
      <point x="535" y="264" type="curve" smooth="yes"/>
      <point x="535" y="427"/>
      <point x="468" y="540"/>
    </contour>
  </outline>
</glyph>
<glyph name="c" format="1">
  <advance width="524"/>
  <unicode hex="0063"/>
  <outline>
    <contour>
      <point x="301" y="529" type="move" name="top"/>
    </contour>
    <contour>
      <point x="293" y="0" type="move" name="bot"/>
    </contour>
    <contour>
      <point x="429" y="128" type="line"/>
      <point x="405" y="80"/>
      <point x="364" y="46"/>
      <point x="295" y="46" type="curve" smooth="yes"/>
      <point x="187" y="46"/>
      <point x="132" y="129"/>
      <point x="132" y="265" type="curve" smooth="yes"/>
      <point x="132" y="401"/>
      <point x="187" y="484"/>
      <point x="295" y="484" type="curve" smooth="yes"/>
      <point x="364" y="484"/>
      <point x="405" y="448"/>
      <point x="429" y="400" type="curve"/>
      <point x="436" y="400" type="line"/>
      <point x="481" y="426" type="line"/>
      <point x="460" y="482"/>
      <point x="404" y="540"/>
      <point x="292" y="540" type="curve" smooth="yes"/>
      <point x="148" y="540"/>
      <point x="57" y="433"/>
      <point x="57" y="265" type="curve" smooth="yes"/>
      <point x="57" y="97"/>
      <point x="148" y="-10"/>
      <point x="292" y="-10" type="curve" smooth="yes"/>
      <point x="404" y="-10"/>
      <point x="461" y="48"/>
      <point x="481" y="104" type="curve"/>
      <point x="436" y="128" type="line"/>
    </contour>
  </outline>
</glyph>
<glyph name="d" format="1">
  <advance width="587"/>
  <unicode hex="0064"/>
  <outline>
    <contour>
      <point x="547" y="579" type="move" name="caron.alt"/>
    </contour>
    <contour>
      <point x="270" y="528" type="move" name="top"/>
    </contour>
    <contour>
      <point x="290" y="46" type="curve" smooth="yes"/>
      <point x="185" y="46"/>
      <point x="132" y="131"/>
      <point x="132" y="268" type="curve" smooth="yes"/>
      <point x="132" y="400"/>
      <point x="186" y="484"/>
      <point x="291" y="484" type="curve" smooth="yes"/>
      <point x="353" y="484"/>
      <point x="409" y="458"/>
      <point x="438" y="408" type="curve"/>
      <point x="438" y="114" type="line"/>
      <point x="407" y="69"/>
      <point x="353" y="46"/>
    </contour>
    <contour>
      <point x="286" y="-10" type="curve" smooth="yes"/>
      <point x="342" y="-10"/>
      <point x="405" y="13"/>
      <point x="444" y="60" type="curve"/>
      <point x="449" y="0" type="line"/>
      <point x="511" y="0" type="line"/>
      <point x="511" y="762" type="line"/>
      <point x="435" y="752" type="line"/>
      <point x="435" y="566" type="line"/>
      <point x="438" y="478" type="line"/>
      <point x="407" y="515"/>
      <point x="357" y="539"/>
      <point x="292" y="539" type="curve" smooth="yes"/>
      <point x="289" y="539" type="line"/>
      <point x="287" y="539" type="line" smooth="yes"/>
      <point x="144" y="539"/>
      <point x="57" y="432"/>
      <point x="57" y="267" type="curve" smooth="yes"/>
      <point x="57" y="101"/>
      <point x="139" y="-10"/>
    </contour>
  </outline>
</glyph>
<glyph name="e" format="1">
  <advance width="550"/>
  <unicode hex="0065"/>
  <outline>
    <contour>
      <point x="297" y="528" type="move" name="top"/>
    </contour>
    <contour>
      <point x="301" y="0" type="move" name="bot"/>
    </contour>
    <contour>
      <point x="133" y="304" type="line"/>
      <point x="143" y="412"/>
      <point x="206" y="483"/>
      <point x="299" y="483" type="curve" smooth="yes"/>
      <point x="391" y="483"/>
      <point x="433" y="418"/>
      <point x="435" y="304" type="curve"/>
    </contour>
    <contour>
      <point x="493" y="255" type="line"/>
      <point x="493" y="257"/>
      <point x="497" y="291"/>
      <point x="497" y="304" type="curve" smooth="yes"/>
      <point x="497" y="450"/>
      <point x="420" y="540"/>
      <point x="296" y="540" type="curve" smooth="yes"/>
      <point x="167" y="540"/>
      <point x="57" y="440"/>
      <point x="57" y="263" type="curve" smooth="yes"/>
      <point x="57" y="95"/>
      <point x="164" y="-10"/>
      <point x="304" y="-10" type="curve" smooth="yes"/>
      <point x="377" y="-10"/>
      <point x="437" y="11"/>
      <point x="482" y="40" type="curve"/>
      <point x="464" y="90" type="line"/>
      <point x="458" y="90" type="line"/>
      <point x="413" y="65"/>
      <point x="373" y="46"/>
      <point x="313" y="46" type="curve" smooth="yes"/>
      <point x="214" y="46"/>
      <point x="138" y="109"/>
      <point x="131" y="255" type="curve"/>
    </contour>
  </outline>
</glyph>
<glyph name="f" format="1">
  <advance width="365"/>
  <unicode hex="0066"/>
  <outline>
    <contour>
      <point x="192" y="711" type="move" name="top"/>
    </contour>
    <contour>
      <point x="348" y="732" type="line"/>
      <point x="348" y="732"/>
      <point x="312" y="740"/>
      <point x="276" y="740" type="curve" smooth="yes"/>
      <point x="182" y="740"/>
      <point x="132" y="709"/>
      <point x="132" y="568" type="curve" smooth="yes"/>
      <point x="132" y="527" type="line"/>
      <point x="37" y="521" type="line"/>
      <point x="35" y="483" type="line"/>
      <point x="132" y="483" type="line"/>
      <point x="132" y="0" type="line"/>
      <point x="205" y="0" type="line"/>
      <point x="205" y="483" type="line"/>
      <point x="337" y="483" type="line"/>
      <point x="337" y="528" type="line"/>
      <point x="205" y="528" type="line"/>
      <point x="205" y="568" type="line" smooth="yes"/>
      <point x="205" y="666"/>
      <point x="225" y="686"/>
      <point x="292" y="686" type="curve" smooth="yes"/>
      <point x="311" y="686"/>
      <point x="343" y="682"/>
      <point x="343" y="682" type="curve"/>
    </contour>
  </outline>
</glyph>
<glyph name="g" format="1">
  <advance width="592"/>
  <unicode hex="0067"/>
  <outline>
    <contour>
      <point x="296" y="528" type="move" name="top"/>
    </contour>
    <contour>
      <point x="291" y="48" type="curve" smooth="yes"/>
      <point x="179" y="48"/>
      <point x="132" y="140"/>
      <point x="132" y="265" type="curve" smooth="yes"/>
      <point x="132" y="388"/>
      <point x="180" y="484"/>
      <point x="291" y="484" type="curve" smooth="yes"/>
      <point x="364" y="484"/>
      <point x="410" y="449"/>
      <point x="440" y="403" type="curve"/>
      <point x="440" y="121" type="line"/>
      <point x="414" y="82"/>
      <point x="365" y="48"/>
    </contour>
    <contour>
      <point x="288" y="-8" type="curve" smooth="yes"/>
      <point x="343" y="-8"/>
      <point x="402" y="10"/>
      <point x="441" y="55" type="curve"/>
      <point x="441" y="11" type="line" smooth="yes"/>
      <point x="441" y="-129"/>
      <point x="386" y="-174"/>
      <point x="273" y="-174" type="curve" smooth="yes"/>
      <point x="227" y="-174"/>
      <point x="171" y="-163"/>
      <point x="134" y="-147" type="curve"/>
      <point x="125" y="-147" type="line"/>
      <point x="119" y="-206" type="line"/>
      <point x="155" y="-220"/>
      <point x="213" y="-232"/>
      <point x="273" y="-232" type="curve" smooth="yes"/>
      <point x="452" y="-232"/>
      <point x="511" y="-143"/>
      <point x="511" y="30" type="curve" smooth="yes"/>
      <point x="511" y="528" type="line"/>
      <point x="449" y="528" type="line"/>
      <point x="445" y="467" type="line"/>
      <point x="414" y="509"/>
      <point x="363" y="540"/>
      <point x="291" y="540" type="curve" smooth="yes"/>
      <point x="137" y="540"/>
      <point x="57" y="421"/>
      <point x="57" y="265" type="curve" smooth="yes"/>
      <point x="57" y="112"/>
      <point x="133" y="-8"/>
    </contour>
  </outline>
</glyph>
<glyph name="h" format="1">
  <advance width="585"/>
  <unicode hex="0068"/>
  <outline>
    <contour>
      <point x="321" y="666" type="move" name="top"/>
    </contour>
    <contour>
      <point x="85" y="0" type="line"/>
      <point x="158" y="0" type="line"/>
      <point x="158" y="296" type="line" smooth="yes"/>
      <point x="158" y="385"/>
      <point x="195" y="484"/>
      <point x="323" y="484" type="curve" smooth="yes"/>
      <point x="405" y="484"/>
      <point x="435" y="430"/>
      <point x="435" y="326" type="curve" smooth="yes"/>
      <point x="435" y="0" type="line"/>
      <point x="509" y="0" type="line"/>
      <point x="509" y="328" type="line" smooth="yes"/>
      <point x="509" y="462"/>
      <point x="448" y="540"/>
      <point x="334" y="540" type="curve" smooth="yes"/>
      <point x="260" y="540"/>
      <point x="193" y="514"/>
      <point x="155" y="433" type="curve"/>
      <point x="158" y="557" type="line"/>
      <point x="158" y="762" type="line"/>
      <point x="85" y="752" type="line"/>
    </contour>
  </outline>
</glyph>
<glyph name="i" format="1">
  <advance width="247"/>
  <unicode hex="0069"/>
  <outline>
    <contour>
      <point x="187" y="695" type="curve" smooth="yes"/>
      <point x="187" y="729"/>
      <point x="167" y="749"/>
      <point x="131" y="749" type="curve" smooth="yes"/>
      <point x="95" y="749"/>
      <point x="76" y="729"/>
      <point x="76" y="695" type="curve" smooth="yes"/>
      <point x="76" y="661"/>
      <point x="95" y="640"/>
      <point x="131" y="640" type="curve" smooth="yes"/>
      <point x="167" y="640"/>
      <point x="187" y="661"/>
    </contour>
    <contour>
      <point x="92" y="528" type="line"/>
      <point x="92" y="0" type="line"/>
      <point x="165" y="0" type="line"/>
      <point x="165" y="528" type="line"/>
    </contour>
  </outline>
</glyph>
<glyph name="j" format="1">
  <advance width="275"/>
  <unicode hex="006A"/>
  <outline>
    <contour>
      <point x="211" y="694" type="curve" smooth="yes"/>
      <point x="211" y="728"/>
      <point x="192" y="748"/>
      <point x="156" y="748" type="curve" smooth="yes"/>
      <point x="120" y="748"/>
      <point x="100" y="728"/>
      <point x="100" y="694" type="curve" smooth="yes"/>
      <point x="100" y="660"/>
      <point x="120" y="640"/>
      <point x="156" y="640" type="curve" smooth="yes"/>
      <point x="192" y="640"/>
      <point x="211" y="660"/>
    </contour>
    <contour>
      <point x="118" y="528" type="line"/>
      <point x="118" y="14" type="line" smooth="yes"/>
      <point x="118" y="-80"/>
      <point x="116" y="-101"/>
      <point x="43" y="-113" type="curve"/>
      <point x="15" y="-118" type="line"/>
      <point x="22" y="-178" type="line"/>
      <point x="51" y="-175" type="line" smooth="yes"/>
      <point x="150" y="-165"/>
      <point x="190" y="-129"/>
      <point x="190" y="-6" type="curve" smooth="yes"/>
      <point x="190" y="528" type="line"/>
    </contour>
  </outline>
</glyph>
<glyph name="k" format="1">
  <advance width="526"/>
  <unicode hex="006B"/>
  <outline>
    <contour>
      <point x="287" y="0" type="move" name="bot"/>
    </contour>
    <contour>
      <point x="85" y="0" type="line"/>
      <point x="158" y="0" type="line"/>
      <point x="158" y="194" type="line"/>
      <point x="222" y="249" type="line"/>
      <point x="434" y="0" type="line"/>
      <point x="514" y="0" type="line"/>
      <point x="514" y="10" type="line"/>
      <point x="272" y="286" type="line"/>
      <point x="500" y="519" type="line"/>
      <point x="500" y="528" type="line"/>
      <point x="417" y="528" type="line"/>
      <point x="155" y="257" type="line"/>
      <point x="158" y="363" type="line"/>
      <point x="158" y="762" type="line"/>
      <point x="85" y="752" type="line"/>
    </contour>
  </outline>
</glyph>
<glyph name="l" format="1">
  <advance width="300"/>
  <unicode hex="006C"/>
  <outline>
    <contour>
      <point x="168" y="727" type="move" name="top"/>
    </contour>
    <contour>
      <point x="185" y="0" type="move" name="bot"/>
    </contour>
    <contour>
      <point x="219" y="-4" type="curve" smooth="yes"/>
      <point x="225" y="-4"/>
      <point x="257" y="-3"/>
      <point x="259" y="-3" type="curve"/>
      <point x="264" y="50" type="line" smooth="yes"/>
      <point x="263" y="50"/>
      <point x="237" y="51"/>
      <point x="232" y="51" type="curve" smooth="yes"/>
      <point x="170" y="54"/>
      <point x="159" y="67"/>
      <point x="159" y="145" type="curve" smooth="yes"/>
      <point x="159" y="762" type="line"/>
      <point x="86" y="752" type="line"/>
      <point x="86" y="143" type="line" smooth="yes"/>
      <point x="86" y="18"/>
      <point x="139" y="-4"/>
    </contour>
  </outline>
</glyph>
<glyph name="m" format="1">
  <advance width="886"/>
  <unicode hex="006D"/>
  <outline>
    <contour>
      <point x="461" y="528" type="move" name="top"/>
    </contour>
    <contour>
      <point x="483" y="296" type="line" smooth="yes"/>
      <point x="483" y="411"/>
      <point x="554" y="484"/>
      <point x="634" y="484" type="curve" smooth="yes"/>
      <point x="722" y="484"/>
      <point x="736" y="402"/>
      <point x="736" y="322" type="curve" smooth="yes"/>
      <point x="736" y="0" type="line"/>
      <point x="810" y="0" type="line"/>
      <point x="810" y="337" type="line" smooth="yes"/>
      <point x="810" y="471"/>
      <point x="754" y="540"/>
      <point x="645" y="540" type="curve" smooth="yes"/>
      <point x="569" y="540"/>
      <point x="502" y="503"/>
      <point x="468" y="414" type="curve"/>
      <point x="449" y="490"/>
      <point x="399" y="540"/>
      <point x="316" y="540" type="curve" smooth="yes"/>
      <point x="247" y="540"/>
      <point x="187" y="507"/>
      <point x="153" y="426" type="curve"/>
      <point x="145" y="528" type="line"/>
      <point x="84" y="528" type="line"/>
      <point x="84" y="0" type="line"/>
      <point x="157" y="0" type="line"/>
      <point x="157" y="315" type="line"/>
      <point x="167" y="406"/>
      <point x="214" y="484"/>
      <point x="306" y="484" type="curve" smooth="yes"/>
      <point x="384" y="484"/>
      <point x="410" y="427"/>
      <point x="410" y="308" type="curve" smooth="yes"/>
      <point x="410" y="0" type="line"/>
      <point x="483" y="0" type="line"/>
    </contour>
  </outline>
</glyph>
<glyph name="n" format="1">
  <advance width="581"/>
  <unicode hex="006E"/>
  <outline>
    <contour>
      <point x="334" y="528" type="move" name="top"/>
    </contour>
    <contour>
      <point x="292" y="0" type="move" name="bot"/>
    </contour>
    <contour>
      <point x="84" y="0" type="line"/>
      <point x="157" y="0" type="line"/>
      <point x="157" y="304" type="line" smooth="yes"/>
      <point x="157" y="398"/>
      <point x="200" y="484"/>
      <point x="321" y="484" type="curve" smooth="yes"/>
      <point x="407" y="484"/>
      <point x="432" y="421"/>
      <point x="432" y="331" type="curve" smooth="yes"/>
      <point x="432" y="0" type="line"/>
      <point x="505" y="0" type="line"/>
      <point x="505" y="318" type="line" smooth="yes"/>
      <point x="505" y="463"/>
      <point x="452" y="540"/>
      <point x="333" y="540" type="curve" smooth="yes"/>
      <point x="247" y="540"/>
      <point x="185" y="507"/>
      <point x="153" y="428" type="curve"/>
      <point x="145" y="528" type="line"/>
      <point x="84" y="528" type="line"/>
    </contour>
  </outline>
</glyph>
<glyph name="o" format="1">
  <advance width="585"/>
  <unicode hex="006F"/>
  <outline>
    <contour>
      <point x="293" y="528" type="move" name="top"/>
    </contour>
    <contour>
      <point x="293" y="-10" type="curve" smooth="yes"/>
      <point x="443" y="-10"/>
      <point x="529" y="102"/>
      <point x="529" y="265" type="curve" smooth="yes"/>
      <point x="529" y="432"/>
      <point x="444" y="540"/>
      <point x="293" y="540" type="curve" smooth="yes"/>
      <point x="142" y="540"/>
      <point x="57" y="432"/>
      <point x="57" y="265" type="curve" smooth="yes"/>
      <point x="57" y="102"/>
      <point x="143" y="-10"/>
    </contour>
    <contour>
      <point x="293" y="46" type="curve" smooth="yes"/>
      <point x="184" y="46"/>
      <point x="132" y="139"/>
      <point x="132" y="264" type="curve" smooth="yes"/>
      <point x="132" y="392"/>
      <point x="184" y="484"/>
      <point x="293" y="484" type="curve" smooth="yes"/>
      <point x="402" y="484"/>
      <point x="454" y="392"/>
      <point x="454" y="264" type="curve" smooth="yes"/>
      <point x="454" y="140"/>
      <point x="402" y="46"/>
    </contour>
  </outline>
</glyph>
<glyph name="p" format="1">
  <advance width="591"/>
  <unicode hex="0070"/>
  <outline>
    <contour>
      <point x="324" y="528" type="move" name="top"/>
    </contour>
    <contour>
      <point x="306" y="46" type="curve" smooth="yes"/>
      <point x="238" y="46"/>
      <point x="185" y="75"/>
      <point x="154" y="129" type="curve"/>
      <point x="154" y="272" type="line" smooth="yes"/>
      <point x="154" y="395"/>
      <point x="199" y="484"/>
      <point x="314" y="484" type="curve" smooth="yes"/>
      <point x="421" y="484"/>
      <point x="459" y="394"/>
      <point x="459" y="264" type="curve" smooth="yes"/>
      <point x="459" y="131"/>
      <point x="411" y="46"/>
    </contour>
    <contour>
      <point x="84" y="-226" type="line"/>
      <point x="157" y="-225" type="line"/>
      <point x="157" y="-37" type="line"/>
      <point x="154" y="51" type="line"/>
      <point x="188" y="12"/>
      <point x="242" y="-10"/>
      <point x="310" y="-10" type="curve" smooth="yes"/>
      <point x="448" y="-10"/>
      <point x="535" y="100"/>
      <point x="535" y="263" type="curve" smooth="yes"/>
      <point x="535" y="432"/>
      <point x="464" y="540"/>
      <point x="322" y="540" type="curve" smooth="yes"/>
      <point x="239" y="540"/>
      <point x="179" y="498"/>
      <point x="152" y="416" type="curve"/>
      <point x="144" y="528" type="line"/>
      <point x="84" y="528" type="line"/>
    </contour>
  </outline>
</glyph>
<glyph name="q" format="1">
  <advance width="589"/>
  <unicode hex="0071"/>
  <outline>
    <contour>
      <point x="289" y="46" type="curve" smooth="yes"/>
      <point x="182" y="46"/>
      <point x="131" y="130"/>
      <point x="131" y="266" type="curve" smooth="yes"/>
      <point x="131" y="399"/>
      <point x="184" y="484"/>
      <point x="289" y="484" type="curve" smooth="yes"/>
      <point x="351" y="484"/>
      <point x="402" y="458"/>
      <point x="436" y="404" type="curve"/>
      <point x="436" y="116" type="line"/>
      <point x="408" y="71"/>
      <point x="352" y="46"/>
    </contour>
    <contour>
      <point x="286" y="-10" type="curve" smooth="yes"/>
      <point x="338" y="-10"/>
      <point x="394" y="6"/>
      <point x="434" y="49" type="curve"/>
      <point x="433" y="-21" type="line"/>
      <point x="433" y="-226" type="line"/>
      <point x="506" y="-226" type="line"/>
      <point x="506" y="528" type="line"/>
      <point x="445" y="528" type="line"/>
      <point x="441" y="466" type="line"/>
      <point x="411" y="508"/>
      <point x="361" y="540"/>
      <point x="288" y="540" type="curve" smooth="yes"/>
      <point x="142" y="540"/>
      <point x="56" y="430"/>
      <point x="56" y="266" type="curve" smooth="yes"/>
      <point x="56" y="102"/>
      <point x="138" y="-10"/>
    </contour>
  </outline>
</glyph>
<glyph name="r" format="1">
  <advance width="375"/>
  <unicode hex="0072"/>
  <outline>
    <contour>
      <point x="225" y="528" type="move" name="top"/>
    </contour>
    <contour>
      <point x="135" y="0" type="move" name="bot"/>
    </contour>
    <contour>
      <point x="85" y="0" type="line"/>
      <point x="158" y="0" type="line"/>
      <point x="158" y="303" type="line" smooth="yes"/>
      <point x="158" y="396"/>
      <point x="212" y="475"/>
      <point x="318" y="475" type="curve" smooth="yes"/>
      <point x="319" y="475"/>
      <point x="337" y="474"/>
      <point x="339" y="474" type="curve"/>
      <point x="345" y="533" type="line"/>
      <point x="334" y="535"/>
      <point x="323" y="535"/>
      <point x="308" y="535" type="curve" smooth="yes"/>
      <point x="246" y="535"/>
      <point x="187" y="505"/>
      <point x="150" y="413" type="curve"/>
      <point x="142" y="528" type="line"/>
      <point x="85" y="528" type="line"/>
    </contour>
  </outline>
</glyph>
<glyph name="s" format="1">
  <advance width="470"/>
  <unicode hex="0073"/>
  <outline>
    <contour>
      <point x="247" y="529" type="move" name="top"/>
    </contour>
    <contour>
      <point x="232" y="0" type="move" name="bot"/>
    </contour>
    <contour>
      <point x="358" y="146" type="curve" smooth="yes"/>
      <point x="358" y="77"/>
      <point x="318" y="45"/>
      <point x="243" y="45" type="curve" smooth="yes"/>
      <point x="193" y="45"/>
      <point x="135" y="60"/>
      <point x="93" y="103" type="curve"/>
      <point x="86" y="103" type="line"/>
      <point x="50" y="63" type="line"/>
      <point x="94" y="15"/>
      <point x="167" y="-10"/>
      <point x="242" y="-10" type="curve" smooth="yes"/>
      <point x="342" y="-10"/>
      <point x="424" y="35"/>
      <point x="424" y="146" type="curve" smooth="yes"/>
      <point x="424" y="209"/>
      <point x="404" y="258"/>
      <point x="280" y="298" type="curve"/>
      <point x="218" y="316" type="line"/>
      <point x="145" y="339"/>
      <point x="128" y="360"/>
      <point x="128" y="402" type="curve" smooth="yes"/>
      <point x="128" y="454"/>
      <point x="169" y="483"/>
      <point x="245" y="483" type="curve" smooth="yes"/>
      <point x="300" y="483"/>
      <point x="342" y="463"/>
      <point x="366" y="438" type="curve"/>
      <point x="371" y="438" type="line"/>
      <point x="410" y="473" type="line"/>
      <point x="380" y="510"/>
      <point x="324" y="540"/>
      <point x="246" y="540" type="curve" smooth="yes"/>
      <point x="132" y="540"/>
      <point x="59" y="488"/>
      <point x="59" y="401" type="curve" smooth="yes"/>
      <point x="59" y="338"/>
      <point x="77" y="295"/>
      <point x="198" y="257" type="curve"/>
      <point x="262" y="238" type="line"/>
      <point x="345" y="212"/>
      <point x="358" y="187"/>
    </contour>
  </outline>
</glyph>
<glyph name="t" format="1">
  <advance width="381"/>
  <unicode hex="0074"/>
  <outline>
    <contour>
      <point x="154" y="663" type="move" name="top"/>
    </contour>
    <contour>
      <point x="226" y="0" type="move" name="bot"/>
    </contour>
    <contour>
      <point x="275" y="-4" type="curve" smooth="yes"/>
      <point x="285" y="-4"/>
      <point x="325" y="-3"/>
      <point x="325" y="-3" type="curve"/>
      <point x="328" y="48" type="line"/>
      <point x="328" y="48"/>
      <point x="280" y="49"/>
      <point x="273" y="49" type="curve" smooth="yes"/>
      <point x="198" y="51"/>
      <point x="188" y="67"/>
      <point x="188" y="152" type="curve" smooth="yes"/>
      <point x="188" y="483" type="line"/>
      <point x="333" y="483" type="line"/>
      <point x="333" y="528" type="line"/>
      <point x="188" y="528" type="line"/>
      <point x="188" y="673" type="line"/>
      <point x="128" y="668" type="line"/>
      <point x="116" y="528" type="line"/>
      <point x="35" y="524" type="line"/>
      <point x="34" y="483" type="line"/>
      <point x="115" y="483" type="line"/>
      <point x="115" y="152" type="line" smooth="yes"/>
      <point x="115" y="33"/>
      <point x="145" y="-4"/>
    </contour>
  </outline>
</glyph>
<glyph name="u" format="1">
  <advance width="583"/>
  <unicode hex="0075"/>
  <outline>
    <contour>
      <point x="297" y="529" type="move" name="top"/>
    </contour>
    <contour>
      <point x="275" y="0" type="move" name="bot"/>
    </contour>
    <contour>
      <point x="426" y="122" type="line"/>
      <point x="404" y="92"/>
      <point x="360" y="45"/>
      <point x="271" y="45" type="curve" smooth="yes"/>
      <point x="182" y="45"/>
      <point x="150" y="102"/>
      <point x="150" y="193" type="curve" smooth="yes"/>
      <point x="150" y="528" type="line"/>
      <point x="77" y="528" type="line"/>
      <point x="77" y="199" type="line" smooth="yes"/>
      <point x="77" y="58"/>
      <point x="142" y="-10"/>
      <point x="266" y="-10" type="curve" smooth="yes"/>
      <point x="345" y="-10"/>
      <point x="397" y="19"/>
      <point x="432" y="66" type="curve"/>
      <point x="436" y="0" type="line"/>
      <point x="499" y="0" type="line"/>
      <point x="499" y="528" type="line"/>
      <point x="426" y="528" type="line"/>
    </contour>
  </outline>
</glyph>
<glyph name="v" format="1">
  <advance width="522"/>
  <unicode hex="0076"/>
  <outline>
    <contour>
      <point x="226" y="0" type="line"/>
      <point x="301" y="0" type="line"/>
      <point x="492" y="528" type="line"/>
      <point x="419" y="528" type="line"/>
      <point x="368" y="380"/>
      <point x="317" y="231"/>
      <point x="264" y="84" type="curve"/>
      <point x="210" y="230"/>
      <point x="158" y="379"/>
      <point x="106" y="528" type="curve"/>
      <point x="32" y="528" type="line"/>
    </contour>
  </outline>
</glyph>
<glyph name="w" format="1">
  <advance width="735"/>
  <unicode hex="0077"/>
  <outline>
    <contour>
      <point x="369" y="528" type="move" name="top"/>
    </contour>
    <contour>
      <point x="370" y="458" type="line"/>
      <point x="516" y="0" type="line"/>
      <point x="580" y="0" type="line"/>
      <point x="719" y="528" type="line"/>
      <point x="652" y="528" type="line"/>
      <point x="547" y="98" type="line"/>
      <point x="407" y="525" type="line"/>
      <point x="329" y="525" type="line"/>
      <point x="197" y="99" type="line"/>
      <point x="85" y="528" type="line"/>
      <point x="17" y="528" type="line"/>
      <point x="161" y="0" type="line"/>
      <point x="225" y="0" type="line"/>
    </contour>
  </outline>
</glyph>
<glyph name="x" format="1">
  <advance width="510"/>
  <unicode hex="0078"/>
  <outline>
    <contour>
      <point x="299" y="268" type="line"/>
      <point x="481" y="528" type="line"/>
      <point x="405" y="528" type="line"/>
      <point x="263" y="320" type="line"/>
      <point x="121" y="528" type="line"/>
      <point x="39" y="528" type="line"/>
      <point x="217" y="269" type="line"/>
      <point x="27" y="0" type="line"/>
      <point x="102" y="0" type="line"/>
      <point x="252" y="216" type="line"/>
      <point x="400" y="0" type="line"/>
      <point x="481" y="0" type="line"/>
    </contour>
  </outline>
</glyph>
<glyph name="y" format="1">
  <advance width="545"/>
  <unicode hex="0079"/>
  <outline>
    <contour>
      <point x="283" y="528" type="move" name="top"/>
    </contour>
    <contour>
      <point x="519" y="528" type="line"/>
      <point x="448" y="528" type="line"/>
      <point x="282" y="102" type="line"/>
      <point x="103" y="528" type="line"/>
      <point x="25" y="528" type="line"/>
      <point x="246" y="18" type="line"/>
      <point x="170" y="-183" type="line"/>
      <point x="233" y="-199" type="line"/>
    </contour>
  </outline>
</glyph>
<glyph name="z" format="1">
  <advance width="483"/>
  <unicode hex="007A"/>
  <outline>
    <contour>
      <point x="247" y="528" type="move" name="top"/>
    </contour>
    <contour>
      <point x="230" y="0" type="move" name="bot"/>
    </contour>
    <contour>
      <point x="63" y="528" type="line"/>
      <point x="65" y="475" type="line"/>
      <point x="348" y="475" type="line"/>
      <point x="53" y="49" type="line"/>
      <point x="53" y="0" type="line"/>
      <point x="427" y="0" type="line"/>
      <point x="423" y="55" type="line"/>
      <point x="131" y="55" type="line"/>
      <point x="423" y="477" type="line"/>
      <point x="423" y="528" type="line"/>
    </contour>
  </outline>
</glyph>
<glyph name="braceleft" format="1">
  <advance width="413"/>
  <unicode hex="007B"/>
  <outline>
    <contour>
      <point x="344" y="-128" type="curve"/>
      <point x="344" y="-75" type="line"/>
      <point x="270" y="-75"/>
      <point x="262" y="-58"/>
      <point x="262" y="43" type="curve" smooth="yes"/>
      <point x="262" y="161" type="line" smooth="yes"/>
      <point x="262" y="248"/>
      <point x="241" y="285"/>
      <point x="167" y="297" type="curve"/>
      <point x="241" y="309"/>
      <point x="262" y="347"/>
      <point x="262" y="434" type="curve" smooth="yes"/>
      <point x="262" y="552" type="line" smooth="yes"/>
      <point x="262" y="653"/>
      <point x="270" y="671"/>
      <point x="344" y="671" type="curve"/>
      <point x="344" y="724" type="line"/>
      <point x="204" y="724"/>
      <point x="186" y="694"/>
      <point x="186" y="558" type="curve" smooth="yes"/>
      <point x="186" y="472" type="line" smooth="yes"/>
      <point x="186" y="365"/>
      <point x="184" y="327"/>
      <point x="87" y="327" type="curve"/>
      <point x="87" y="268" type="line"/>
      <point x="185" y="268"/>
      <point x="186" y="230"/>
      <point x="186" y="123" type="curve" smooth="yes"/>
      <point x="186" y="38" type="line" smooth="yes"/>
      <point x="186" y="-98"/>
      <point x="204" y="-128"/>
    </contour>
  </outline>
</glyph>
<glyph name="bar" format="1">
  <advance width="280"/>
  <unicode hex="007C"/>
  <outline>
    <contour>
      <point x="105" y="729" type="line"/>
      <point x="105" y="-143" type="line"/>
      <point x="168" y="-143" type="line"/>
      <point x="168" y="729" type="line"/>
    </contour>
  </outline>
</glyph>
<glyph name="braceright" format="1">
  <advance width="413"/>
  <unicode hex="007D"/>
  <outline>
    <contour>
      <point x="61" y="-128" type="line"/>
      <point x="201" y="-128"/>
      <point x="218" y="-98"/>
      <point x="218" y="38" type="curve" smooth="yes"/>
      <point x="218" y="123" type="line" smooth="yes"/>
      <point x="218" y="230"/>
      <point x="219" y="268"/>
      <point x="317" y="268" type="curve"/>
      <point x="317" y="327" type="line"/>
      <point x="220" y="327"/>
      <point x="218" y="365"/>
      <point x="218" y="472" type="curve" smooth="yes"/>
      <point x="218" y="558" type="line" smooth="yes"/>
      <point x="218" y="694"/>
      <point x="200" y="724"/>
      <point x="60" y="724" type="curve"/>
      <point x="60" y="671" type="line"/>
      <point x="134" y="671"/>
      <point x="142" y="653"/>
      <point x="142" y="552" type="curve" smooth="yes"/>
      <point x="142" y="434" type="line" smooth="yes"/>
      <point x="142" y="347"/>
      <point x="162" y="309"/>
      <point x="237" y="297" type="curve"/>
      <point x="162" y="285"/>
      <point x="142" y="248"/>
      <point x="142" y="161" type="curve" smooth="yes"/>
      <point x="142" y="43" type="line" smooth="yes"/>
      <point x="142" y="-58"/>
      <point x="135" y="-75"/>
      <point x="61" y="-75" type="curve"/>
    </contour>
  </outline>
</glyph>
<glyph name="asciitilde" format="1">
  <advance width="584"/>
  <unicode hex="007E"/>
  <outline>
    <contour>
      <point x="64" y="242" type="line"/>
      <point x="87" y="286"/>
      <point x="129" y="323"/>
      <point x="172" y="323" type="curve" smooth="yes"/>
      <point x="207" y="323"/>
      <point x="245" y="304"/>
      <point x="298" y="281" type="curve" smooth="yes"/>
      <point x="337" y="263"/>
      <point x="372" y="250"/>
      <point x="404" y="250" type="curve" smooth="yes"/>
      <point x="463" y="250"/>
      <point x="498" y="286"/>
      <point x="521" y="348" type="curve"/>
      <point x="501" y="387" type="line"/>
      <point x="485" y="345"/>
      <point x="445" y="308"/>
      <point x="404" y="308" type="curve" smooth="yes"/>
      <point x="374" y="308"/>
      <point x="335" y="328"/>
      <point x="288" y="349" type="curve" smooth="yes"/>
      <point x="238" y="371"/>
      <point x="212" y="382"/>
      <point x="173" y="382" type="curve" smooth="yes"/>
      <point x="112" y="382"/>
      <point x="69" y="340"/>
      <point x="48" y="286" type="curve"/>
    </contour>
  </outline>
</glyph>
<glyph name="cent" format="1">
  <advance width="518"/>
  <unicode hex="00A2"/>
  <outline>
    <component base="c"/>
    <contour>
      <point x="263" y="14" type="line"/>
      <point x="263" y="-149" type="line"/>
      <point x="315" y="-149" type="line"/>
      <point x="323" y="14" type="line"/>
    </contour>
    <contour>
      <point x="268" y="677" type="line"/>
      <point x="262" y="519" type="line"/>
      <point x="318" y="519" type="line"/>
      <point x="318" y="677" type="line"/>
    </contour>
  </outline>
</glyph>
<glyph name="sterling" format="1">
  <advance width="564"/>
  <unicode hex="00A3"/>
  <outline>
    <contour>
      <point x="204" y="462" type="line" smooth="yes"/>
      <point x="204" y="589"/>
      <point x="245" y="659"/>
      <point x="335" y="659" type="curve" smooth="yes"/>
      <point x="391" y="659"/>
      <point x="424" y="636"/>
      <point x="460" y="606" type="curve"/>
      <point x="468" y="606" type="line"/>
      <point x="496" y="655" type="line"/>
      <point x="462" y="688"/>
      <point x="412" y="721"/>
      <point x="330" y="721" type="curve" smooth="yes"/>
      <point x="163" y="721"/>
      <point x="128" y="588"/>
      <point x="128" y="457" type="curve" smooth="yes"/>
      <point x="128" y="388" type="line"/>
      <point x="42" y="388" type="line"/>
      <point x="42" y="334" type="line"/>
      <point x="128" y="334" type="line"/>
      <point x="128" y="58" type="line"/>
      <point x="42" y="50" type="line"/>
      <point x="48" y="0" type="line"/>
      <point x="495" y="0" type="line"/>
      <point x="500" y="59" type="line"/>
      <point x="204" y="59" type="line"/>
      <point x="204" y="334" type="line"/>
      <point x="396" y="334" type="line"/>
      <point x="396" y="388" type="line"/>
      <point x="204" y="388" type="line"/>
    </contour>
  </outline>
</glyph>
<glyph name="currency" format="1">
  <advance width="598"/>
  <unicode hex="00A4"/>
  <outline>
    <contour>
      <point x="449" y="350" type="curve" smooth="yes"/>
      <point x="449" y="264"/>
      <point x="391" y="189"/>
      <point x="295" y="189" type="curve" smooth="yes"/>
      <point x="200" y="189"/>
      <point x="143" y="264"/>
      <point x="143" y="350" type="curve" smooth="yes"/>
      <point x="143" y="436"/>
      <point x="200" y="510"/>
      <point x="295" y="510" type="curve" smooth="yes"/>
      <point x="391" y="510"/>
      <point x="449" y="436"/>
    </contour>
    <contour>
      <point x="424" y="504" type="line"/>
      <point x="389" y="534"/>
      <point x="344" y="551"/>
      <point x="295" y="551" type="curve" smooth="yes"/>
      <point x="247" y="551"/>
      <point x="203" y="534"/>
      <point x="167" y="504" type="curve"/>
      <point x="79" y="589" type="line"/>
      <point x="50" y="560" type="line"/>
      <point x="140" y="473" type="line"/>
      <point x="113" y="437"/>
      <point x="99" y="395"/>
      <point x="99" y="350" type="curve" smooth="yes"/>
      <point x="99" y="305"/>
      <point x="113" y="263"/>
      <point x="140" y="227" type="curve"/>
      <point x="51" y="141" type="line"/>
      <point x="79" y="111" type="line"/>
      <point x="167" y="196" type="line"/>
      <point x="202" y="166"/>
      <point x="246" y="149"/>
      <point x="295" y="149" type="curve" smooth="yes"/>
      <point x="344" y="149"/>
      <point x="389" y="165"/>
      <point x="424" y="195" type="curve"/>
      <point x="513" y="110" type="line"/>
      <point x="540" y="140" type="line"/>
      <point x="452" y="227" type="line"/>
      <point x="478" y="262"/>
      <point x="492" y="304"/>
      <point x="492" y="350" type="curve" smooth="yes"/>
      <point x="492" y="394"/>
      <point x="479" y="435"/>
      <point x="452" y="473" type="curve"/>
      <point x="540" y="559" type="line"/>
      <point x="513" y="589" type="line"/>
    </contour>
  </outline>
</glyph>
<glyph name="yen" format="1">
  <advance width="652"/>
  <unicode hex="00A5"/>
  <outline>
    <component base="Y"/>
    <contour>
      <point x="128" y="259" type="line"/>
      <point x="516" y="259" type="line"/>
      <point x="516" y="307" type="line"/>
      <point x="128" y="307" type="line"/>
    </contour>
    <contour>
      <point x="128" y="133" type="line"/>
      <point x="516" y="133" type="line"/>
      <point x="516" y="181" type="line"/>
      <point x="128" y="181" type="line"/>
    </contour>
  </outline>
</glyph>
<glyph name="brokenbar" format="1">
  <advance width="260"/>
  <unicode hex="00A6"/>
  <outline>
    <contour>
      <point x="104" y="760" type="line"/>
      <point x="104" y="399" type="line"/>
      <point x="158" y="399" type="line"/>
      <point x="158" y="760" type="line"/>
    </contour>
    <contour>
      <point x="104" y="269" type="line"/>
      <point x="104" y="-94" type="line"/>
      <point x="158" y="-94" type="line"/>
      <point x="158" y="269" type="line"/>
    </contour>
  </outline>
</glyph>
<glyph name="section" format="1">
  <advance width="522"/>
  <unicode hex="00A7"/>
  <outline>
    <contour>
      <point x="335" y="268" type="curve"/>
      <point x="323" y="273"/>
      <point x="298" y="282"/>
      <point x="242" y="299" type="curve" smooth="yes"/>
      <point x="167" y="324"/>
      <point x="149" y="336"/>
      <point x="149" y="381" type="curve" smooth="yes"/>
      <point x="149" y="416"/>
      <point x="166" y="437"/>
      <point x="191" y="451" type="curve"/>
      <point x="195" y="449"/>
      <point x="211" y="442"/>
      <point x="261" y="426" type="curve" smooth="yes"/>
      <point x="336" y="401"/>
      <point x="367" y="376"/>
      <point x="367" y="336" type="curve" smooth="yes"/>
      <point x="367" y="302"/>
      <point x="351" y="283"/>
    </contour>
    <contour>
      <point x="251" y="-17" type="curve" smooth="yes"/>
      <point x="346" y="-17"/>
      <point x="430" y="27"/>
      <point x="430" y="132" type="curve" smooth="yes"/>
      <point x="430" y="177"/>
      <point x="417" y="211"/>
      <point x="386" y="236" type="curve"/>
      <point x="413" y="259"/>
      <point x="431" y="290"/>
      <point x="431" y="334" type="curve" smooth="yes"/>
      <point x="431" y="409"/>
      <point x="400" y="446"/>
      <point x="287" y="483" type="curve" smooth="yes"/>
      <point x="171" y="522"/>
      <point x="149" y="533"/>
      <point x="149" y="583" type="curve" smooth="yes"/>
      <point x="149" y="635"/>
      <point x="185" y="666"/>
      <point x="264" y="666" type="curve" smooth="yes"/>
      <point x="316" y="666"/>
      <point x="363" y="648"/>
      <point x="394" y="633" type="curve"/>
      <point x="411" y="686" type="line"/>
      <point x="367" y="707"/>
      <point x="315" y="721"/>
      <point x="256" y="721" type="curve" smooth="yes"/>
      <point x="148" y="721"/>
      <point x="83" y="666"/>
      <point x="83" y="582" type="curve" smooth="yes"/>
      <point x="83" y="540"/>
      <point x="96" y="506"/>
      <point x="133" y="480" type="curve"/>
      <point x="102" y="456"/>
      <point x="83" y="421"/>
      <point x="83" y="379" type="curve" smooth="yes"/>
      <point x="83" y="313"/>
      <point x="112" y="278"/>
      <point x="212" y="245" type="curve" smooth="yes"/>
      <point x="344" y="202"/>
      <point x="366" y="175"/>
      <point x="366" y="133" type="curve" smooth="yes"/>
      <point x="366" y="70"/>
      <point x="321" y="38"/>
      <point x="256" y="38" type="curve" smooth="yes"/>
      <point x="201" y="38"/>
      <point x="150" y="53"/>
      <point x="94" y="80" type="curve"/>
      <point x="92" y="21" type="line"/>
      <point x="141" y="-2"/>
      <point x="198" y="-17"/>
    </contour>
  </outline>
</glyph>
<glyph name="dieresis" format="1">
  <advance width="435"/>
  <unicode hex="00A8"/>
  <outline>
    <contour>
      <point x="217" y="528" type="move" name="_top"/>
    </contour>
    <contour>
      <point x="312" y="639" type="curve" smooth="yes"/>
      <point x="345" y="639"/>
      <point x="358" y="660"/>
      <point x="358" y="685" type="curve" smooth="yes"/>
      <point x="358" y="710"/>
      <point x="345" y="732"/>
      <point x="312" y="732" type="curve" smooth="yes"/>
      <point x="278" y="732"/>
      <point x="267" y="710"/>
      <point x="267" y="685" type="curve" smooth="yes"/>
      <point x="267" y="660"/>
      <point x="279" y="639"/>
    </contour>
    <contour>
      <point x="111" y="639" type="curve" smooth="yes"/>
      <point x="144" y="639"/>
      <point x="156" y="660"/>
      <point x="156" y="685" type="curve" smooth="yes"/>
      <point x="156" y="710"/>
      <point x="144" y="732"/>
      <point x="111" y="732" type="curve" smooth="yes"/>
      <point x="77" y="732"/>
      <point x="65" y="710"/>
      <point x="65" y="685" type="curve" smooth="yes"/>
      <point x="65" y="660"/>
      <point x="78" y="639"/>
    </contour>
  </outline>
</glyph>
<glyph name="copyright" format="1">
  <advance width="858"/>
  <unicode hex="00A9"/>
  <outline>
    <contour>
      <point x="390" y="-13" type="curve" smooth="yes"/>
      <point x="577" y="-13"/>
      <point x="769" y="110"/>
      <point x="769" y="358" type="curve" smooth="yes"/>
      <point x="769" y="607"/>
      <point x="577" y="730"/>
      <point x="390" y="730" type="curve" smooth="yes"/>
      <point x="205" y="730"/>
      <point x="18" y="607"/>
      <point x="18" y="358" type="curve" smooth="yes"/>
      <point x="18" y="110"/>
      <point x="205" y="-13"/>
    </contour>
    <contour>
      <point x="390" y="26" type="curve" smooth="yes"/>
      <point x="226" y="26"/>
      <point x="63" y="137"/>
      <point x="63" y="358" type="curve" smooth="yes"/>
      <point x="63" y="579"/>
      <point x="226" y="690"/>
      <point x="390" y="690" type="curve" smooth="yes"/>
      <point x="555" y="690"/>
      <point x="719" y="579"/>
      <point x="719" y="358" type="curve" smooth="yes"/>
      <point x="719" y="138"/>
      <point x="555" y="26"/>
    </contour>
    <contour>
      <point x="402" y="113" type="curve" smooth="yes"/>
      <point x="450" y="113"/>
      <point x="498" y="126"/>
      <point x="541" y="154" type="curve"/>
      <point x="525" y="193" type="line"/>
      <point x="482" y="167"/>
      <point x="443" y="158"/>
      <point x="403" y="158" type="curve" smooth="yes"/>
      <point x="303" y="158"/>
      <point x="222" y="235"/>
      <point x="222" y="360" type="curve" smooth="yes"/>
      <point x="222" y="475"/>
      <point x="302" y="556"/>
      <point x="399" y="556" type="curve" smooth="yes"/>
      <point x="435" y="556"/>
      <point x="482" y="543"/>
      <point x="519" y="516" type="curve"/>
      <point x="540" y="557" type="line"/>
      <point x="496" y="587"/>
      <point x="447" y="601"/>
      <point x="398" y="601" type="curve" smooth="yes"/>
      <point x="272" y="601"/>
      <point x="164" y="498"/>
      <point x="164" y="358" type="curve" smooth="yes"/>
      <point x="164" y="214"/>
      <point x="274" y="113"/>
    </contour>
  </outline>
</glyph>
<glyph name="guillemotleft" format="1">
  <advance width="487"/>
  <unicode hex="00AB"/>
  <outline>
    <contour>
      <point x="353" y="74" type="line"/>
      <point x="419" y="75" type="line"/>
      <point x="286" y="269" type="line"/>
      <point x="423" y="460" type="line"/>
      <point x="354" y="461" type="line"/>
      <point x="216" y="267" type="line"/>
    </contour>
    <contour>
      <point x="185" y="74" type="line"/>
      <point x="251" y="75" type="line"/>
      <point x="119" y="269" type="line"/>
      <point x="255" y="460" type="line"/>
      <point x="187" y="461" type="line"/>
      <point x="48" y="267" type="line"/>
    </contour>
  </outline>
</glyph>
<glyph name="logicalnot" format="1">
  <advance width="606"/>
  <unicode hex="00AC"/>
  <outline>
    <contour>
      <point x="52" y="390" type="line"/>
      <point x="52" y="333" type="line"/>
      <point x="464" y="333" type="line"/>
      <point x="464" y="125" type="line"/>
      <point x="518" y="125" type="line"/>
      <point x="518" y="390" type="line"/>
    </contour>
  </outline>
</glyph>
<glyph name="uni00AD" format="1">
  <advance width="451"/>
  <unicode hex="00AD"/>
  <outline>
    <contour>
      <point x="52" y="218" type="line"/>
      <point x="398" y="218" type="line"/>
      <point x="398" y="277" type="line"/>
      <point x="52" y="277" type="line"/>
    </contour>
  </outline>
</glyph>
<glyph name="registered" format="1">
  <advance width="914"/>
  <unicode hex="00AE"/>
  <outline>
    <contour>
      <point x="456" y="-12" type="curve" smooth="yes"/>
      <point x="639" y="-12"/>
      <point x="826" y="111"/>
      <point x="826" y="359" type="curve" smooth="yes"/>
      <point x="826" y="607"/>
      <point x="639" y="730"/>
      <point x="456" y="730" type="curve" smooth="yes"/>
      <point x="274" y="730"/>
      <point x="87" y="607"/>
      <point x="87" y="359" type="curve" smooth="yes"/>
      <point x="87" y="111"/>
      <point x="274" y="-12"/>
    </contour>
    <contour>
      <point x="456" y="26" type="curve" smooth="yes"/>
      <point x="295" y="26"/>
      <point x="136" y="138"/>
      <point x="136" y="359" type="curve" smooth="yes"/>
      <point x="136" y="580"/>
      <point x="295" y="691"/>
      <point x="456" y="691" type="curve" smooth="yes"/>
      <point x="617" y="691"/>
      <point x="777" y="579"/>
      <point x="777" y="359" type="curve" smooth="yes"/>
      <point x="777" y="138"/>
      <point x="617" y="26"/>
    </contour>
    <contour>
      <point x="364" y="405" type="line"/>
      <point x="364" y="553" type="line"/>
      <point x="462" y="553" type="line" smooth="yes"/>
      <point x="542" y="553"/>
      <point x="571" y="543"/>
      <point x="571" y="480" type="curve" smooth="yes"/>
      <point x="571" y="428"/>
      <point x="552" y="405"/>
      <point x="482" y="405" type="curve" smooth="yes"/>
    </contour>
    <contour>
      <point x="312" y="146" type="line"/>
      <point x="364" y="146" type="line"/>
      <point x="364" y="360" type="line"/>
      <point x="476" y="360" type="line"/>
      <point x="479" y="357"/>
      <point x="579" y="146"/>
      <point x="579" y="146" type="curve"/>
      <point x="636" y="146" type="line"/>
      <point x="636" y="146"/>
      <point x="531" y="360"/>
      <point x="526" y="367" type="curve"/>
      <point x="589" y="372"/>
      <point x="620" y="416"/>
      <point x="620" y="482" type="curve" smooth="yes"/>
      <point x="620" y="561"/>
      <point x="584" y="599"/>
      <point x="468" y="599" type="curve" smooth="yes"/>
      <point x="312" y="599" type="line"/>
    </contour>
  </outline>
</glyph>
<glyph name="macron" format="1">
  <advance width="571"/>
  <unicode hex="00AF"/>
  <outline>
    <contour>
      <point x="286" y="519" type="move" name="_top"/>
    </contour>
    <contour>
      <point x="143" y="656" type="line"/>
      <point x="412" y="656" type="line"/>
      <point x="412" y="698" type="line"/>
      <point x="143" y="698" type="line"/>
    </contour>
  </outline>
</glyph>
<glyph name="degree" format="1">
  <advance width="426"/>
  <unicode hex="00B0"/>
  <outline>
    <contour>
      <point x="209" y="438" type="curve" smooth="yes"/>
      <point x="287" y="438"/>
      <point x="356" y="498"/>
      <point x="356" y="581" type="curve" smooth="yes"/>
      <point x="356" y="666"/>
      <point x="285" y="723"/>
      <point x="209" y="723" type="curve" smooth="yes"/>
      <point x="135" y="723"/>
      <point x="64" y="666"/>
      <point x="64" y="581" type="curve" smooth="yes"/>
      <point x="64" y="495"/>
      <point x="135" y="438"/>
    </contour>
    <contour>
      <point x="209" y="481" type="curve" smooth="yes"/>
      <point x="155" y="481"/>
      <point x="113" y="522"/>
      <point x="113" y="581" type="curve" smooth="yes"/>
      <point x="113" y="639"/>
      <point x="157" y="679"/>
      <point x="210" y="679" type="curve" smooth="yes"/>
      <point x="264" y="679"/>
      <point x="307" y="639"/>
      <point x="307" y="581" type="curve" smooth="yes"/>
      <point x="307" y="523"/>
      <point x="264" y="481"/>
    </contour>
  </outline>
</glyph>
<glyph name="plusminus" format="1">
  <advance width="558"/>
  <unicode hex="00B1"/>
  <outline>
    <contour>
      <point x="52" y="52" type="line"/>
      <point x="52" y="0" type="line"/>
      <point x="507" y="0" type="line"/>
      <point x="507" y="52" type="line"/>
    </contour>
    <contour>
      <point x="247" y="538" type="line"/>
      <point x="247" y="347" type="line"/>
      <point x="64" y="347" type="line"/>
      <point x="64" y="296" type="line"/>
      <point x="247" y="296" type="line"/>
      <point x="247" y="100" type="line"/>
      <point x="303" y="100" type="line"/>
      <point x="303" y="296" type="line"/>
      <point x="482" y="296" type="line"/>
      <point x="482" y="347" type="line"/>
      <point x="302" y="347" type="line"/>
      <point x="302" y="538" type="line"/>
    </contour>
  </outline>
</glyph>
<glyph name="uni00B2" format="1">
  <advance width="375"/>
  <unicode hex="00B2"/>
  <outline>
    <contour>
      <point x="73" y="323" type="line"/>
      <point x="319" y="323" type="line"/>
      <point x="322" y="368" type="line"/>
      <point x="151" y="368" type="line"/>
      <point x="201" y="417"/>
      <point x="214" y="428"/>
      <point x="249" y="464" type="curve" smooth="yes"/>
      <point x="297" y="513"/>
      <point x="323" y="554"/>
      <point x="323" y="611" type="curve" smooth="yes"/>
      <point x="323" y="693"/>
      <point x="262" y="736"/>
      <point x="193" y="736" type="curve" smooth="yes"/>
      <point x="129" y="736"/>
      <point x="81" y="712"/>
      <point x="48" y="670" type="curve"/>
      <point x="76" y="634" type="line"/>
      <point x="104" y="668"/>
      <point x="140" y="688"/>
      <point x="191" y="688" type="curve" smooth="yes"/>
      <point x="237" y="688"/>
      <point x="269" y="655"/>
      <point x="269" y="609" type="curve" smooth="yes"/>
      <point x="269" y="578"/>
      <point x="247" y="544"/>
      <point x="208" y="500" type="curve" smooth="yes"/>
      <point x="155" y="441"/>
      <point x="126" y="420"/>
      <point x="73" y="368" type="curve"/>
    </contour>
  </outline>
</glyph>
<glyph name="uni00B3" format="1">
  <advance width="426"/>
  <unicode hex="00B3"/>
  <outline>
    <contour>
      <point x="214" y="313" type="curve" smooth="yes"/>
      <point x="286" y="313"/>
      <point x="350" y="351"/>
      <point x="350" y="430" type="curve" smooth="yes"/>
      <point x="350" y="485"/>
      <point x="316" y="521"/>
      <point x="271" y="532" type="curve"/>
      <point x="316" y="543"/>
      <point x="346" y="578"/>
      <point x="346" y="628" type="curve" smooth="yes"/>
      <point x="346" y="704"/>
      <point x="286" y="734"/>
      <point x="220" y="734" type="curve" smooth="yes"/>
      <point x="167" y="734"/>
      <point x="116" y="718"/>
      <point x="86" y="688" type="curve"/>
      <point x="109" y="653" type="line"/>
      <point x="134" y="675"/>
      <point x="168" y="690"/>
      <point x="214" y="690" type="curve" smooth="yes"/>
      <point x="260" y="690"/>
      <point x="296" y="670"/>
      <point x="296" y="625" type="curve" smooth="yes"/>
      <point x="296" y="582"/>
      <point x="268" y="552"/>
      <point x="208" y="552" type="curve" smooth="yes"/>
      <point x="153" y="552" type="line"/>
      <point x="153" y="510" type="line"/>
      <point x="208" y="510" type="line"/>
      <point x="209" y="510" type="line" smooth="yes"/>
      <point x="267" y="510"/>
      <point x="300" y="478"/>
      <point x="300" y="431" type="curve" smooth="yes"/>
      <point x="300" y="383"/>
      <point x="261" y="357"/>
      <point x="213" y="357" type="curve" smooth="yes"/>
      <point x="166" y="357"/>
      <point x="130" y="373"/>
      <point x="108" y="396" type="curve"/>
      <point x="85" y="357" type="line"/>
      <point x="115" y="328"/>
      <point x="164" y="313"/>
    </contour>
  </outline>
</glyph>
<glyph name="acute" format="1">
  <advance width="349"/>
  <unicode hex="00B4"/>
  <outline>
    <contour>
      <point x="155" y="528" type="move" name="_top"/>
    </contour>
    <contour>
      <point x="129" y="590" type="line"/>
      <point x="178" y="590" type="line"/>
      <point x="318" y="771" type="line"/>
      <point x="228" y="771" type="line"/>
    </contour>
  </outline>
</glyph>
<glyph name="paragraph" format="1">
  <advance width="552"/>
  <unicode hex="00B6"/>
  <outline>
    <contour>
      <point x="312" y="657" type="line"/>
      <point x="381" y="657" type="line"/>
      <point x="381" y="-97" type="line"/>
      <point x="436" y="-97" type="line"/>
      <point x="436" y="711" type="line"/>
      <point x="264" y="711" type="line" smooth="yes"/>
      <point x="105" y="711"/>
      <point x="67" y="619"/>
      <point x="67" y="549" type="curve" smooth="yes"/>
      <point x="67" y="465"/>
      <point x="114" y="382"/>
      <point x="258" y="382" type="curve"/>
      <point x="258" y="-97" type="line"/>
      <point x="312" y="-97" type="line"/>
    </contour>
  </outline>
</glyph>
<glyph name="periodcentered" format="1">
  <advance width="293"/>
  <unicode hex="00B7"/>
  <outline>
    <contour>
      <point x="144" y="254" type="curve" smooth="yes"/>
      <point x="175" y="254"/>
      <point x="194" y="276"/>
      <point x="194" y="305" type="curve" smooth="yes"/>
      <point x="194" y="333"/>
      <point x="175" y="354"/>
      <point x="144" y="354" type="curve" smooth="yes"/>
      <point x="113" y="354"/>
      <point x="93" y="333"/>
      <point x="93" y="305" type="curve" smooth="yes"/>
      <point x="93" y="277"/>
      <point x="113" y="254"/>
    </contour>
  </outline>
</glyph>
<glyph name="cedilla" format="1">
  <advance width="325"/>
  <unicode hex="00B8"/>
  <outline>
    <contour>
      <point x="182" y="4" type="move" name="_bot"/>
    </contour>
    <contour>
      <point x="236" y="-97" type="curve" smooth="yes"/>
      <point x="236" y="-137"/>
      <point x="201" y="-156"/>
      <point x="160" y="-156" type="curve" smooth="yes"/>
      <point x="140" y="-156"/>
      <point x="119" y="-152"/>
      <point x="99" y="-142" type="curve"/>
      <point x="85" y="-178" type="line"/>
      <point x="108" y="-189"/>
      <point x="134" y="-194"/>
      <point x="161" y="-194" type="curve" smooth="yes"/>
      <point x="231" y="-194"/>
      <point x="283" y="-158"/>
      <point x="283" y="-99" type="curve" smooth="yes"/>
      <point x="283" y="-46"/>
      <point x="245" y="-20"/>
      <point x="200" y="-20" type="curve" smooth="yes"/>
      <point x="184" y="-20"/>
      <point x="168" y="-23"/>
      <point x="151" y="-29" type="curve"/>
      <point x="151" y="-52" type="line"/>
      <point x="162" y="-50"/>
      <point x="172" y="-49"/>
      <point x="181" y="-49" type="curve" smooth="yes"/>
      <point x="226" y="-49"/>
      <point x="236" y="-75"/>
    </contour>
  </outline>
</glyph>
<glyph name="uni00B9" format="1">
  <advance width="435"/>
  <unicode hex="00B9"/>
  <outline>
    <contour>
      <point x="131" y="316" type="line"/>
      <point x="364" y="316" type="line"/>
      <point x="364" y="364" type="line"/>
      <point x="280" y="364" type="line"/>
      <point x="280" y="729" type="line"/>
      <point x="231" y="729" type="line"/>
      <point x="212" y="712"/>
      <point x="156" y="687"/>
      <point x="129" y="679" type="curve"/>
      <point x="129" y="631" type="line"/>
      <point x="150" y="635"/>
      <point x="201" y="655"/>
      <point x="220" y="667" type="curve"/>
      <point x="220" y="364" type="line"/>
      <point x="131" y="364" type="line"/>
    </contour>
  </outline>
</glyph>
<glyph name="ordmasculine" format="1">
  <advance width="459"/>
  <unicode hex="00BA"/>
  <outline>
    <contour>
      <point x="333" y="540" type="curve" smooth="yes"/>
      <point x="333" y="458"/>
      <point x="300" y="406"/>
      <point x="229" y="406" type="curve" smooth="yes"/>
      <point x="162" y="406"/>
      <point x="128" y="459"/>
      <point x="128" y="542" type="curve" smooth="yes"/>
      <point x="128" y="625"/>
      <point x="163" y="680"/>
      <point x="229" y="680" type="curve" smooth="yes"/>
      <point x="298" y="680"/>
      <point x="333" y="624"/>
    </contour>
    <contour>
      <point x="65" y="541" type="curve" smooth="yes"/>
      <point x="65" y="436"/>
      <point x="124" y="357"/>
      <point x="229" y="357" type="curve" smooth="yes"/>
      <point x="329" y="357"/>
      <point x="393" y="437"/>
      <point x="393" y="541" type="curve" smooth="yes"/>
      <point x="393" y="650"/>
      <point x="337" y="728"/>
      <point x="229" y="728" type="curve" smooth="yes"/>
      <point x="124" y="728"/>
      <point x="65" y="649"/>
    </contour>
  </outline>
</glyph>
<glyph name="guillemotright" format="1">
  <advance width="482"/>
  <unicode hex="00BB"/>
  <outline>
    <contour>
      <point x="289" y="74" type="line"/>
      <point x="426" y="267" type="line"/>
      <point x="288" y="461" type="line"/>
      <point x="219" y="460" type="line"/>
      <point x="355" y="268" type="line"/>
      <point x="222" y="75" type="line"/>
    </contour>
    <contour>
      <point x="120" y="74" type="line"/>
      <point x="258" y="267" type="line"/>
      <point x="120" y="461" type="line"/>
      <point x="51" y="460" type="line"/>
      <point x="188" y="268" type="line"/>
      <point x="53" y="75" type="line"/>
    </contour>
  </outline>
</glyph>
<glyph name="onequarter" format="1">
  <advance width="843"/>
  <unicode hex="00BC"/>
  <outline>
    <contour>
      <point x="545" y="143" type="line"/>
      <point x="680" y="342" type="line"/>
      <point x="680" y="143" type="line"/>
    </contour>
    <contour>
      <point x="188" y="0" type="line"/>
      <point x="247" y="0" type="line"/>
      <point x="687" y="726" type="line"/>
      <point x="628" y="726" type="line"/>
    </contour>
    <contour>
      <point x="680" y="0" type="line"/>
      <point x="736" y="0" type="line"/>
      <point x="736" y="96" type="line"/>
      <point x="796" y="96" type="line"/>
      <point x="793" y="143" type="line"/>
      <point x="737" y="143" type="line"/>
      <point x="737" y="416" type="line"/>
      <point x="675" y="416" type="line"/>
      <point x="483" y="137" type="line"/>
      <point x="483" y="96" type="line"/>
      <point x="680" y="96" type="line"/>
    </contour>
    <contour>
      <point x="64" y="298" type="line"/>
      <point x="268" y="298" type="line"/>
      <point x="268" y="348" type="line"/>
      <point x="199" y="348" type="line"/>
      <point x="199" y="724" type="line"/>
      <point x="150" y="724" type="line"/>
      <point x="129" y="704"/>
      <point x="78" y="681"/>
      <point x="60" y="674" type="curve"/>
      <point x="60" y="624" type="line"/>
      <point x="77" y="631"/>
      <point x="120" y="649"/>
      <point x="138" y="661" type="curve"/>
      <point x="138" y="348" type="line"/>
      <point x="64" y="348" type="line"/>
    </contour>
  </outline>
</glyph>
<glyph name="onehalf" format="1">
  <advance width="848"/>
  <unicode hex="00BD"/>
  <outline>
    <contour>
      <point x="183" y="0" type="line"/>
      <point x="242" y="0" type="line"/>
      <point x="681" y="726" type="line"/>
      <point x="623" y="726" type="line"/>
    </contour>
    <contour>
      <point x="64" y="298" type="line"/>
      <point x="268" y="298" type="line"/>
      <point x="268" y="348" type="line"/>
      <point x="199" y="348" type="line"/>
      <point x="199" y="724" type="line"/>
      <point x="150" y="724" type="line"/>
      <point x="129" y="704"/>
      <point x="78" y="681"/>
      <point x="60" y="674" type="curve"/>
      <point x="60" y="624" type="line"/>
      <point x="77" y="631"/>
      <point x="120" y="649"/>
      <point x="138" y="661" type="curve"/>
      <point x="138" y="348" type="line"/>
      <point x="64" y="348" type="line"/>
    </contour>
    <contour>
      <point x="547" y="0" type="line"/>
      <point x="795" y="0" type="line"/>
      <point x="797" y="51" type="line"/>
      <point x="619" y="51" type="line"/>
      <point x="628" y="60"/>
      <point x="704" y="133"/>
      <point x="710" y="139" type="curve" smooth="yes"/>
      <point x="771" y="197"/>
      <point x="801" y="233"/>
      <point x="801" y="298" type="curve" smooth="yes"/>
      <point x="801" y="378"/>
      <point x="740" y="422"/>
      <point x="666" y="422" type="curve" smooth="yes"/>
      <point x="608" y="422"/>
      <point x="554" y="392"/>
      <point x="528" y="344" type="curve"/>
      <point x="562" y="310" type="line"/>
      <point x="590" y="351"/>
      <point x="625" y="368"/>
      <point x="665" y="368" type="curve" smooth="yes"/>
      <point x="708" y="368"/>
      <point x="742" y="343"/>
      <point x="742" y="295" type="curve" smooth="yes"/>
      <point x="742" y="259"/>
      <point x="725" y="230"/>
      <point x="670" y="173" type="curve" smooth="yes"/>
      <point x="663" y="167"/>
      <point x="559" y="61"/>
      <point x="547" y="49" type="curve"/>
    </contour>
  </outline>
</glyph>
<glyph name="threequarters" format="1">
  <advance width="851"/>
  <unicode hex="00BE"/>
  <outline>
    <contour>
      <point x="562" y="143" type="line"/>
      <point x="696" y="342" type="line"/>
      <point x="696" y="143" type="line"/>
    </contour>
    <contour>
      <point x="208" y="0" type="line"/>
      <point x="268" y="0" type="line"/>
      <point x="707" y="726" type="line"/>
      <point x="648" y="726" type="line"/>
    </contour>
    <contour>
      <point x="697" y="0" type="line"/>
      <point x="753" y="0" type="line"/>
      <point x="753" y="96" type="line"/>
      <point x="813" y="96" type="line"/>
      <point x="810" y="143" type="line"/>
      <point x="754" y="143" type="line"/>
      <point x="754" y="416" type="line"/>
      <point x="692" y="416" type="line"/>
      <point x="500" y="137" type="line"/>
      <point x="500" y="96" type="line"/>
      <point x="697" y="96" type="line"/>
    </contour>
    <contour>
      <point x="173" y="297" type="curve" smooth="yes"/>
      <point x="243" y="297"/>
      <point x="308" y="336"/>
      <point x="308" y="421" type="curve" smooth="yes"/>
      <point x="308" y="470"/>
      <point x="278" y="508"/>
      <point x="227" y="522" type="curve"/>
      <point x="277" y="534"/>
      <point x="298" y="581"/>
      <point x="298" y="619" type="curve" smooth="yes"/>
      <point x="298" y="691"/>
      <point x="240" y="725"/>
      <point x="176" y="725" type="curve" smooth="yes"/>
      <point x="135" y="725"/>
      <point x="93" y="711"/>
      <point x="60" y="685" type="curve"/>
      <point x="83" y="644" type="line"/>
      <point x="115" y="664"/>
      <point x="147" y="674"/>
      <point x="174" y="674" type="curve" smooth="yes"/>
      <point x="213" y="674"/>
      <point x="241" y="654"/>
      <point x="241" y="612" type="curve" smooth="yes"/>
      <point x="241" y="570"/>
      <point x="210" y="544"/>
      <point x="160" y="544" type="curve" smooth="yes"/>
      <point x="117" y="544" type="line"/>
      <point x="117" y="494" type="line"/>
      <point x="161" y="494" type="line" smooth="yes"/>
      <point x="219" y="494"/>
      <point x="249" y="468"/>
      <point x="249" y="419" type="curve" smooth="yes"/>
      <point x="249" y="368"/>
      <point x="215" y="348"/>
      <point x="173" y="348" type="curve" smooth="yes"/>
      <point x="143" y="348"/>
      <point x="109" y="358"/>
      <point x="81" y="376" type="curve"/>
      <point x="61" y="333" type="line"/>
      <point x="93" y="310"/>
      <point x="134" y="297"/>
    </contour>
  </outline>
</glyph>
<glyph name="AE" format="1">
  <advance width="802"/>
  <unicode hex="00C6"/>
  <outline>
    <contour>
      <point x="403" y="290" type="line"/>
      <point x="208" y="290" type="line"/>
      <point x="403" y="647" type="line"/>
    </contour>
    <contour>
      <point x="362" y="711" type="line"/>
      <point x="-34" y="0" type="line"/>
      <point x="48" y="0" type="line"/>
      <point x="179" y="235" type="line"/>
      <point x="403" y="235" type="line"/>
      <point x="403" y="0" type="line"/>
      <point x="779" y="0" type="line"/>
      <point x="785" y="60" type="line"/>
      <point x="477" y="60" type="line"/>
      <point x="477" y="341" type="line"/>
      <point x="744" y="341" type="line"/>
      <point x="744" y="401" type="line"/>
      <point x="477" y="401" type="line"/>
      <point x="477" y="651" type="line"/>
      <point x="776" y="651" type="line"/>
      <point x="779" y="711" type="line"/>
    </contour>
  </outline>
</glyph>
<glyph name="multiply" format="1">
  <advance width="450"/>
  <unicode hex="00D7"/>
  <outline>
    <contour>
      <point x="48" y="466" type="line"/>
      <point x="185" y="317" type="line"/>
      <point x="42" y="163" type="line"/>
      <point x="82" y="123" type="line"/>
      <point x="224" y="275" type="line"/>
      <point x="364" y="123" type="line"/>
      <point x="402" y="165" type="line"/>
      <point x="402" y="165"/>
      <point x="270" y="310"/>
      <point x="263" y="317" type="curve"/>
      <point x="400" y="464" type="line"/>
      <point x="358" y="505" type="line"/>
      <point x="224" y="359" type="line"/>
      <point x="88" y="508" type="line"/>
    </contour>
  </outline>
</glyph>
<glyph name="Oslash" format="1">
  <advance width="795"/>
  <unicode hex="00D8"/>
  <outline>
    <contour>
      <point x="398" y="711" type="move" name="top"/>
    </contour>
    <contour>
      <point x="396" y="52" type="curve" smooth="yes"/>
      <point x="367" y="52"/>
      <point x="342" y="55"/>
      <point x="319" y="62" type="curve"/>
      <point x="534" y="621" type="line"/>
      <point x="607" y="571"/>
      <point x="638" y="475"/>
      <point x="638" y="351" type="curve" smooth="yes"/>
      <point x="638" y="174"/>
      <point x="575" y="52"/>
    </contour>
    <contour>
      <point x="276" y="78" type="line"/>
      <point x="188" y="122"/>
      <point x="154" y="222"/>
      <point x="154" y="351" type="curve" smooth="yes"/>
      <point x="154" y="536"/>
      <point x="224" y="659"/>
      <point x="397" y="659" type="curve" smooth="yes"/>
      <point x="433" y="659"/>
      <point x="465" y="653"/>
      <point x="492" y="643" type="curve"/>
    </contour>
    <contour>
      <point x="250" y="-119" type="line"/>
      <point x="296" y="2" type="line"/>
      <point x="326" y="-6"/>
      <point x="360" y="-10"/>
      <point x="397" y="-10" type="curve" smooth="yes"/>
      <point x="615" y="-10"/>
      <point x="715" y="136"/>
      <point x="715" y="350" type="curve" smooth="yes"/>
      <point x="715" y="507"/>
      <point x="663" y="626"/>
      <point x="559" y="683" type="curve"/>
      <point x="605" y="805" type="line"/>
      <point x="560" y="822" type="line"/>
      <point x="515" y="703" type="line"/>
      <point x="481" y="715"/>
      <point x="441" y="721"/>
      <point x="398" y="721" type="curve" smooth="yes"/>
      <point x="182" y="721"/>
      <point x="77" y="577"/>
      <point x="77" y="352" type="curve" smooth="yes"/>
      <point x="77" y="188"/>
      <point x="133" y="67"/>
      <point x="253" y="17" type="curve"/>
      <point x="207" y="-104" type="line"/>
    </contour>
  </outline>
</glyph>
<glyph name="Thorn" format="1">
  <advance width="582"/>
  <unicode hex="00DE"/>
  <outline>
    <contour>
      <point x="97" y="0" type="line"/>
      <point x="174" y="0" type="line"/>
      <point x="174" y="222" type="line"/>
      <point x="283" y="222" type="line" smooth="yes"/>
      <point x="443" y="222"/>
      <point x="504" y="283"/>
      <point x="504" y="405" type="curve" smooth="yes"/>
      <point x="504" y="529"/>
      <point x="413" y="569"/>
      <point x="284" y="569" type="curve" smooth="yes"/>
      <point x="174" y="569" type="line"/>
      <point x="174" y="727" type="line"/>
      <point x="97" y="727" type="line"/>
    </contour>
    <contour>
      <point x="174" y="512" type="line"/>
      <point x="284" y="512" type="line" smooth="yes"/>
      <point x="372" y="512"/>
      <point x="427" y="491"/>
      <point x="427" y="405" type="curve" smooth="yes"/>
      <point x="427" y="308"/>
      <point x="387" y="280"/>
      <point x="282" y="280" type="curve" smooth="yes"/>
      <point x="174" y="280" type="line"/>
    </contour>
  </outline>
</glyph>
<glyph name="germandbls" format="1">
  <advance width="614"/>
  <unicode hex="00DF"/>
  <outline>
    <contour>
      <point x="408" y="-10" type="curve" smooth="yes"/>
      <point x="504" y="-10"/>
      <point x="562" y="50"/>
      <point x="562" y="142" type="curve" smooth="yes"/>
      <point x="562" y="286"/>
      <point x="370" y="336"/>
      <point x="370" y="395" type="curve" smooth="yes"/>
      <point x="370" y="442"/>
      <point x="475" y="500"/>
      <point x="475" y="603" type="curve" smooth="yes"/>
      <point x="475" y="692"/>
      <point x="409" y="755"/>
      <point x="300" y="755" type="curve" smooth="yes"/>
      <point x="154" y="755"/>
      <point x="86" y="669"/>
      <point x="86" y="525" type="curve" smooth="yes"/>
      <point x="86" y="0" type="line"/>
      <point x="159" y="0" type="line"/>
      <point x="159" y="528" type="line" smooth="yes"/>
      <point x="159" y="652"/>
      <point x="209" y="697"/>
      <point x="302" y="697" type="curve" smooth="yes"/>
      <point x="371" y="697"/>
      <point x="404" y="659"/>
      <point x="404" y="604" type="curve" smooth="yes"/>
      <point x="404" y="500"/>
      <point x="303" y="470"/>
      <point x="303" y="388" type="curve" smooth="yes"/>
      <point x="303" y="291"/>
      <point x="492" y="245"/>
      <point x="492" y="139" type="curve" smooth="yes"/>
      <point x="492" y="95"/>
      <point x="466" y="50"/>
      <point x="401" y="50" type="curve" smooth="yes"/>
      <point x="344" y="50"/>
      <point x="290" y="70"/>
      <point x="262" y="85" type="curve"/>
      <point x="241" y="29" type="line"/>
      <point x="276" y="10"/>
      <point x="344" y="-10"/>
    </contour>
  </outline>
</glyph>
<glyph name="ae" format="1">
  <advance width="820"/>
  <unicode hex="00E6"/>
  <outline>
    <contour>
      <point x="435" y="528" type="move" name="top"/>
    </contour>
    <contour>
      <point x="601" y="481" type="curve" smooth="yes"/>
      <point x="679" y="481"/>
      <point x="711" y="433"/>
      <point x="711" y="379" type="curve" smooth="yes"/>
      <point x="711" y="331"/>
      <point x="691" y="291"/>
      <point x="536" y="291" type="curve" smooth="yes"/>
      <point x="509" y="291"/>
      <point x="478" y="293"/>
      <point x="442" y="295" type="curve"/>
      <point x="450" y="414"/>
      <point x="504" y="481"/>
    </contour>
    <contour>
      <point x="215" y="47" type="curve" smooth="yes"/>
      <point x="165" y="47"/>
      <point x="108" y="71"/>
      <point x="108" y="145" type="curve" smooth="yes"/>
      <point x="108" y="208"/>
      <point x="133" y="253"/>
      <point x="257" y="253" type="curve" smooth="yes"/>
      <point x="275" y="253"/>
      <point x="338" y="252"/>
      <point x="371" y="248" type="curve"/>
      <point x="371" y="240"/>
      <point x="372" y="176"/>
      <point x="375" y="168" type="curve"/>
      <point x="365" y="90"/>
      <point x="297" y="47"/>
    </contour>
    <contour>
      <point x="780" y="385" type="curve" smooth="yes"/>
      <point x="780" y="471"/>
      <point x="715" y="538"/>
      <point x="600" y="538" type="curve" smooth="yes"/>
      <point x="524" y="538"/>
      <point x="453" y="507"/>
      <point x="418" y="428" type="curve"/>
      <point x="400" y="510"/>
      <point x="337" y="538"/>
      <point x="247" y="538" type="curve" smooth="yes"/>
      <point x="168" y="538"/>
      <point x="107" y="517"/>
      <point x="50" y="479" type="curve"/>
      <point x="81" y="431" type="line"/>
      <point x="140" y="470"/>
      <point x="204" y="482"/>
      <point x="254" y="482" type="curve" smooth="yes"/>
      <point x="337" y="482"/>
      <point x="372" y="445"/>
      <point x="372" y="354" type="curve" smooth="yes"/>
      <point x="372" y="298" type="line"/>
      <point x="337" y="302"/>
      <point x="268" y="304"/>
      <point x="248" y="304" type="curve" smooth="yes"/>
      <point x="88" y="304"/>
      <point x="37" y="237"/>
      <point x="37" y="143" type="curve" smooth="yes"/>
      <point x="37" y="42"/>
      <point x="103" y="-5"/>
      <point x="194" y="-9" type="curve"/>
      <point x="277" y="-9"/>
      <point x="370" y="20"/>
      <point x="413" y="101" type="curve"/>
      <point x="450" y="28"/>
      <point x="521" y="-10"/>
      <point x="607" y="-10" type="curve" smooth="yes"/>
      <point x="680" y="-10"/>
      <point x="739" y="12"/>
      <point x="784" y="40" type="curve"/>
      <point x="761" y="90" type="line"/>
      <point x="712" y="64"/>
      <point x="676" y="47"/>
      <point x="617" y="47" type="curve" smooth="yes"/>
      <point x="518" y="47"/>
      <point x="448" y="100"/>
      <point x="440" y="243" type="curve"/>
      <point x="482" y="241"/>
      <point x="520" y="239"/>
      <point x="556" y="239" type="curve" smooth="yes"/>
      <point x="692" y="239"/>
      <point x="780" y="264"/>
    </contour>
  </outline>
</glyph>
<glyph name="eth" format="1">
  <advance width="610"/>
  <unicode hex="00F0"/>
  <outline>
    <contour>
      <point x="474" y="244" type="curve" smooth="yes"/>
      <point x="474" y="124"/>
      <point x="416" y="46"/>
      <point x="302" y="46" type="curve" smooth="yes"/>
      <point x="185" y="46"/>
      <point x="130" y="142"/>
      <point x="130" y="238" type="curve" smooth="yes"/>
      <point x="130" y="342"/>
      <point x="193" y="421"/>
      <point x="299" y="421" type="curve" smooth="yes"/>
      <point x="412" y="421"/>
      <point x="474" y="334"/>
    </contour>
    <contour>
      <point x="121" y="779" type="line"/>
      <point x="228" y="679" type="line"/>
      <point x="114" y="635" type="line"/>
      <point x="136" y="586" type="line"/>
      <point x="262" y="636" type="line"/>
      <point x="362" y="538"/>
      <point x="412" y="468"/>
      <point x="438" y="415" type="curve"/>
      <point x="410" y="439"/>
      <point x="373" y="477"/>
      <point x="293" y="477" type="curve" smooth="yes"/>
      <point x="157" y="477"/>
      <point x="59" y="382"/>
      <point x="59" y="239" type="curve" smooth="yes"/>
      <point x="59" y="110"/>
      <point x="139" y="-11"/>
      <point x="299" y="-11" type="curve" smooth="yes"/>
      <point x="463" y="-11"/>
      <point x="540" y="101"/>
      <point x="540" y="241" type="curve" smooth="yes"/>
      <point x="540" y="307"/>
      <point x="524" y="377"/>
      <point x="500" y="426" type="curve" smooth="yes"/>
      <point x="468" y="488"/>
      <point x="420" y="553"/>
      <point x="320" y="660" type="curve"/>
      <point x="447" y="708" type="line"/>
      <point x="425" y="755" type="line"/>
      <point x="282" y="700" type="line"/>
      <point x="203" y="779" type="line"/>
    </contour>
  </outline>
</glyph>
<glyph name="divide" format="1">
  <advance width="554"/>
  <unicode hex="00F7"/>
  <outline>
    <contour>
      <point x="232" y="529" type="line"/>
      <point x="232" y="436" type="line"/>
      <point x="320" y="436" type="line"/>
      <point x="320" y="529" type="line"/>
    </contour>
    <contour>
      <point x="232" y="111" type="line"/>
      <point x="232" y="17" type="line"/>
      <point x="319" y="17" type="line"/>
      <point x="319" y="111" type="line"/>
    </contour>
    <contour>
      <point x="46" y="312" type="line"/>
      <point x="46" y="249" type="line"/>
      <point x="504" y="249" type="line"/>
      <point x="504" y="312" type="line"/>
    </contour>
  </outline>
</glyph>
<glyph name="oslash" format="1">
  <advance width="585"/>
  <unicode hex="00F8"/>
  <outline>
    <component base="o"/>
    <contour>
      <point x="96" y="-60" type="line"/>
      <point x="127" y="-78" type="line"/>
      <point x="482" y="585" type="line"/>
      <point x="448" y="603" type="line"/>
    </contour>
  </outline>
</glyph>
<glyph name="thorn" format="1">
  <advance width="599"/>
  <unicode hex="00FE"/>
  <outline>
    <contour>
      <point x="59" y="152" type="line"/>
      <point x="59" y="-231" type="line"/>
      <point x="129" y="-231" type="line"/>
      <point x="129" y="152" type="line"/>
    </contour>
    <component base="b" xOffset="-25"/>
  </outline>
</glyph>
<glyph name="Hbar" format="1">
  <advance width="721"/>
  <unicode hex="0126"/>
  <outline>
    <component base="H"/>
    <contour>
      <point x="35" y="611" type="line"/>
      <point x="35" y="560" type="line"/>
      <point x="682" y="560" type="line"/>
      <point x="682" y="611" type="line"/>
    </contour>
  </outline>
</glyph>
<glyph name="dotlessi" format="1">
  <advance width="247"/>
  <unicode hex="0131"/>
  <outline>
    <contour>
      <point x="131" y="528" type="move" name="top"/>
    </contour>
    <contour>
      <point x="92" y="528" type="line"/>
      <point x="92" y="0" type="line"/>
      <point x="165" y="0" type="line"/>
      <point x="165" y="528" type="line"/>
    </contour>
  </outline>
</glyph>
<glyph name="kgreenlandic" format="1">
  <advance width="524"/>
  <unicode hex="0138"/>
  <outline>
    <contour>
      <point x="79" y="0" type="line"/>
      <point x="152" y="0" type="line"/>
      <point x="152" y="194" type="line"/>
      <point x="216" y="250" type="line"/>
      <point x="428" y="0" type="line"/>
      <point x="507" y="0" type="line"/>
      <point x="507" y="11" type="line"/>
      <point x="267" y="287" type="line"/>
      <point x="494" y="518" type="line"/>
      <point x="494" y="528" type="line"/>
      <point x="411" y="528" type="line"/>
      <point x="149" y="258" type="line"/>
      <point x="152" y="364" type="line"/>
      <point x="152" y="528" type="line"/>
      <point x="79" y="528" type="line"/>
    </contour>
  </outline>
</glyph>
<glyph name="Eng" format="1">
  <advance width="738"/>
  <unicode hex="014A"/>
  <outline>
    <component base="N"/>
    <contour>
      <point x="571" y="409" type="line"/>
      <point x="571" y="-3" type="line" smooth="yes"/>
      <point x="571" y="-110"/>
      <point x="544" y="-150"/>
      <point x="359" y="-150" type="curve"/>
      <point x="360" y="-208" type="line"/>
      <point x="564" y="-208"/>
      <point x="639" y="-157"/>
      <point x="639" y="-5" type="curve" smooth="yes"/>
      <point x="639" y="409" type="line"/>
    </contour>
  </outline>
</glyph>
<glyph name="eng" format="1">
  <advance width="579"/>
  <unicode hex="014B"/>
  <outline>
    <component base="n"/>
    <contour>
      <point x="432" y="75" type="line"/>
      <point x="432" y="-4" type="line" smooth="yes"/>
      <point x="432" y="-112"/>
      <point x="413" y="-147"/>
      <point x="230" y="-147" type="curve"/>
      <point x="232" y="-205" type="line"/>
      <point x="445" y="-205"/>
      <point x="505" y="-158"/>
      <point x="505" y="-6" type="curve" smooth="yes"/>
      <point x="505" y="75" type="line"/>
    </contour>
  </outline>
</glyph>
<glyph name="OE" format="1">
  <advance width="1194"/>
  <unicode hex="0152"/>
  <outline>
    <contour>
      <point x="633" y="351" type="curve" smooth="yes"/>
      <point x="633" y="174"/>
      <point x="570" y="52"/>
      <point x="392" y="52" type="curve" smooth="yes"/>
      <point x="213" y="52"/>
      <point x="149" y="174"/>
      <point x="149" y="351" type="curve" smooth="yes"/>
      <point x="149" y="536"/>
      <point x="220" y="659"/>
      <point x="393" y="659" type="curve" smooth="yes"/>
      <point x="566" y="659"/>
      <point x="633" y="535"/>
    </contour>
    <contour>
      <point x="72" y="352" type="curve" smooth="yes"/>
      <point x="72" y="133"/>
      <point x="172" y="-10"/>
      <point x="393" y="-10" type="curve" smooth="yes"/>
      <point x="503" y="-10"/>
      <point x="586" y="32"/>
      <point x="633" y="105" type="curve"/>
      <point x="633" y="0" type="line"/>
      <point x="1088" y="0" type="line"/>
      <point x="1093" y="60" type="line"/>
      <point x="710" y="60" type="line"/>
      <point x="710" y="337" type="line"/>
      <point x="1053" y="337" type="line"/>
      <point x="1053" y="397" type="line"/>
      <point x="710" y="397" type="line"/>
      <point x="710" y="651" type="line"/>
      <point x="1085" y="651" type="line"/>
      <point x="1088" y="711" type="line"/>
      <point x="633" y="711" type="line"/>
      <point x="633" y="601" type="line"/>
      <point x="585" y="677"/>
      <point x="501" y="721"/>
      <point x="393" y="721" type="curve" smooth="yes"/>
      <point x="177" y="721"/>
      <point x="72" y="577"/>
    </contour>
  </outline>
</glyph>
<glyph name="oe" format="1">
  <advance width="942"/>
  <unicode hex="0153"/>
  <outline>
    <contour>
      <point x="529" y="302" type="line"/>
      <point x="539" y="409"/>
      <point x="603" y="480"/>
      <point x="696" y="480" type="curve" smooth="yes"/>
      <point x="787" y="480"/>
      <point x="829" y="414"/>
      <point x="831" y="302" type="curve"/>
    </contour>
    <contour>
      <point x="292" y="46" type="curve" smooth="yes"/>
      <point x="180" y="46"/>
      <point x="131" y="141"/>
      <point x="131" y="262" type="curve" smooth="yes"/>
      <point x="131" y="386"/>
      <point x="180" y="480"/>
      <point x="292" y="480" type="curve" smooth="yes"/>
      <point x="404" y="480"/>
      <point x="453" y="387"/>
      <point x="453" y="262" type="curve" smooth="yes"/>
      <point x="453" y="142"/>
      <point x="405" y="46"/>
    </contour>
    <contour>
      <point x="889" y="253" type="line"/>
      <point x="889" y="254"/>
      <point x="893" y="289"/>
      <point x="893" y="302" type="curve" smooth="yes"/>
      <point x="893" y="447"/>
      <point x="816" y="537"/>
      <point x="692" y="537" type="curve" smooth="yes"/>
      <point x="610" y="537"/>
      <point x="526" y="486"/>
      <point x="493" y="400" type="curve"/>
      <point x="466" y="484"/>
      <point x="389" y="537"/>
      <point x="292" y="537" type="curve" smooth="yes"/>
      <point x="139" y="537"/>
      <point x="56" y="428"/>
      <point x="56" y="263" type="curve" smooth="yes"/>
      <point x="56" y="102"/>
      <point x="140" y="-10"/>
      <point x="292" y="-10" type="curve" smooth="yes"/>
      <point x="385" y="-10"/>
      <point x="467" y="47"/>
      <point x="492" y="130" type="curve"/>
      <point x="522" y="44"/>
      <point x="611" y="-10"/>
      <point x="700" y="-10" type="curve" smooth="yes"/>
      <point x="776" y="-10"/>
      <point x="833" y="12"/>
      <point x="878" y="41" type="curve"/>
      <point x="860" y="91" type="line"/>
      <point x="854" y="91" type="line"/>
      <point x="806" y="65"/>
      <point x="769" y="47"/>
      <point x="708" y="47" type="curve" smooth="yes"/>
      <point x="611" y="47"/>
      <point x="528" y="105"/>
      <point x="528" y="253" type="curve"/>
    </contour>
  </outline>
</glyph>
<glyph name="florin" format="1">
  <advance width="485"/>
  <unicode hex="0192"/>
  <outline>
    <contour>
      <point x="266" y="598" type="curve" smooth="yes"/>
      <point x="247" y="502" type="line"/>
      <point x="168" y="502" type="line"/>
      <point x="161" y="464" type="line"/>
      <point x="241" y="464" type="line"/>
      <point x="146" y="63" type="line" smooth="yes"/>
      <point x="129" y="-10"/>
      <point x="135" y="-81"/>
      <point x="51" y="-81" type="curve" smooth="yes"/>
      <point x="38" y="-81"/>
      <point x="24" y="-79"/>
      <point x="7" y="-76" type="curve"/>
      <point x="-0" y="-113" type="line"/>
      <point x="16" y="-117"/>
      <point x="31" y="-120"/>
      <point x="46" y="-120" type="curve" smooth="yes"/>
      <point x="126" y="-120"/>
      <point x="189" y="-58"/>
      <point x="217" y="62" type="curve" smooth="yes"/>
      <point x="312" y="464" type="line"/>
      <point x="420" y="464" type="line"/>
      <point x="427" y="502" type="line"/>
      <point x="320" y="502" type="line"/>
      <point x="339" y="603" type="line" smooth="yes"/>
      <point x="350" y="658"/>
      <point x="364" y="703"/>
      <point x="412" y="703" type="curve" smooth="yes"/>
      <point x="441" y="703"/>
      <point x="456" y="678"/>
      <point x="456" y="627" type="curve"/>
      <point x="514" y="627" type="line"/>
      <point x="514" y="717"/>
      <point x="465" y="741"/>
      <point x="409" y="741" type="curve" smooth="yes"/>
      <point x="324" y="741"/>
      <point x="283" y="682"/>
    </contour>
  </outline>
</glyph>
<glyph name="uni0237" format="1">
  <advance width="275"/>
  <unicode hex="0237"/>
  <outline>
    <contour>
      <point x="155" y="528" type="move" name="top"/>
    </contour>
    <contour>
      <point x="118" y="528" type="line"/>
      <point x="118" y="14" type="line" smooth="yes"/>
      <point x="118" y="-80"/>
      <point x="116" y="-101"/>
      <point x="43" y="-113" type="curve"/>
      <point x="15" y="-118" type="line"/>
      <point x="22" y="-178" type="line"/>
      <point x="51" y="-175" type="line" smooth="yes"/>
      <point x="150" y="-165"/>
      <point x="190" y="-129"/>
      <point x="190" y="-6" type="curve" smooth="yes"/>
      <point x="190" y="528" type="line"/>
    </contour>
  </outline>
</glyph>
<glyph name="uni0259" format="1">
  <advance width="550"/>
  <unicode hex="0259"/>
  <outline>
    <contour>
      <point x="426" y="226" type="line"/>
      <point x="416" y="118"/>
      <point x="354" y="46"/>
      <point x="261" y="46" type="curve" smooth="yes"/>
      <point x="169" y="46"/>
      <point x="127" y="112"/>
      <point x="125" y="226" type="curve"/>
    </contour>
    <contour>
      <point x="67" y="275" type="line"/>
      <point x="67" y="273"/>
      <point x="63" y="239"/>
      <point x="63" y="226" type="curve" smooth="yes"/>
      <point x="63" y="80"/>
      <point x="139" y="-10"/>
      <point x="263" y="-10" type="curve" smooth="yes"/>
      <point x="392" y="-10"/>
      <point x="502" y="90"/>
      <point x="502" y="267" type="curve" smooth="yes"/>
      <point x="502" y="435"/>
      <point x="395" y="540"/>
      <point x="255" y="540" type="curve" smooth="yes"/>
      <point x="182" y="540"/>
      <point x="123" y="519"/>
      <point x="78" y="490" type="curve"/>
      <point x="96" y="439" type="line"/>
      <point x="102" y="439" type="line"/>
      <point x="147" y="464"/>
      <point x="186" y="483"/>
      <point x="246" y="483" type="curve" smooth="yes"/>
      <point x="345" y="483"/>
      <point x="421" y="421"/>
      <point x="428" y="275" type="curve"/>
    </contour>
  </outline>
</glyph>
<glyph name="afii57929" format="1">
  <advance width="313"/>
  <unicode hex="02BC"/>
  <outline>
    <contour>
      <point x="65" y="571" type="curve"/>
      <point x="121" y="571" type="line"/>
      <point x="121" y="571"/>
      <point x="172" y="750"/>
      <point x="177" y="781" type="curve"/>
      <point x="98" y="781" type="line"/>
      <point x="97" y="765"/>
      <point x="65" y="571"/>
    </contour>
  </outline>
</glyph>
<glyph name="circumflex" format="1">
  <advance width="426"/>
  <unicode hex="02C6"/>
  <outline>
    <contour>
      <point x="73" y="604" type="line"/>
      <point x="135" y="604" type="line"/>
      <point x="207" y="718" type="line"/>
      <point x="279" y="604" type="line"/>
      <point x="341" y="604" type="line"/>
      <point x="247" y="767" type="line"/>
      <point x="167" y="767" type="line"/>
    </contour>
    <contour>
      <point x="210" y="528" type="move" name="_top"/>
    </contour>
  </outline>
</glyph>
<glyph name="caron" format="1">
  <advance width="431"/>
  <unicode hex="02C7"/>
  <outline>
    <contour>
      <point x="213" y="528" type="move" name="_top"/>
    </contour>
    <contour>
      <point x="167" y="599" type="line"/>
      <point x="248" y="599" type="line"/>
      <point x="341" y="763" type="line"/>
      <point x="279" y="763" type="line"/>
      <point x="208" y="648" type="line"/>
      <point x="136" y="763" type="line"/>
      <point x="73" y="763" type="line"/>
    </contour>
  </outline>
</glyph>
<glyph name="uni02C9" format="1">
  <advance width="292"/>
  <unicode hex="02C9"/>
  <outline>
    <contour>
      <point x="152" y="519" type="move" name="_top"/>
    </contour>
    <contour>
      <point x="3" y="638" type="line"/>
      <point x="288" y="638" type="line"/>
      <point x="288" y="696" type="line"/>
      <point x="3" y="696" type="line"/>
    </contour>
  </outline>
</glyph>
<glyph name="breve" format="1">
  <advance width="418"/>
  <unicode hex="02D8"/>
  <outline>
    <contour>
      <point x="206" y="519" type="move" name="_top"/>
    </contour>
    <contour>
      <point x="204" y="625" type="curve" smooth="yes"/>
      <point x="266" y="625"/>
      <point x="317" y="660"/>
      <point x="317" y="740" type="curve"/>
      <point x="271" y="740" type="line"/>
      <point x="271" y="692"/>
      <point x="235" y="671"/>
      <point x="204" y="671" type="curve" smooth="yes"/>
      <point x="174" y="671"/>
      <point x="139" y="692"/>
      <point x="139" y="740" type="curve"/>
      <point x="92" y="740" type="line"/>
      <point x="92" y="660"/>
      <point x="142" y="625"/>
    </contour>
  </outline>
</glyph>
<glyph name="dotaccent" format="1">
  <advance width="197"/>
  <unicode hex="02D9"/>
  <outline>
    <contour>
      <point x="98" y="528" type="move" name="_top"/>
    </contour>
    <contour>
      <point x="154" y="695" type="curve" smooth="yes"/>
      <point x="154" y="729"/>
      <point x="134" y="749"/>
      <point x="98" y="749" type="curve" smooth="yes"/>
      <point x="62" y="749"/>
      <point x="42" y="729"/>
      <point x="42" y="695" type="curve" smooth="yes"/>
      <point x="42" y="661"/>
      <point x="62" y="640"/>
      <point x="98" y="640" type="curve" smooth="yes"/>
      <point x="134" y="640"/>
      <point x="154" y="661"/>
    </contour>
  </outline>
</glyph>
<glyph name="ring" format="1">
  <advance width="334"/>
  <unicode hex="02DA"/>
  <outline>
    <contour>
      <point x="163" y="519" type="move" name="_top"/>
    </contour>
    <contour>
      <point x="164" y="585" type="curve" smooth="yes"/>
      <point x="215" y="585"/>
      <point x="253" y="624"/>
      <point x="253" y="673" type="curve" smooth="yes"/>
      <point x="253" y="721"/>
      <point x="215" y="759"/>
      <point x="164" y="759" type="curve" smooth="yes"/>
      <point x="112" y="759"/>
      <point x="74" y="721"/>
      <point x="74" y="673" type="curve" smooth="yes"/>
      <point x="74" y="624"/>
      <point x="113" y="585"/>
    </contour>
    <contour>
      <point x="164" y="622" type="curve" smooth="yes"/>
      <point x="136" y="622"/>
      <point x="116" y="645"/>
      <point x="116" y="672" type="curve" smooth="yes"/>
      <point x="116" y="699"/>
      <point x="136" y="721"/>
      <point x="164" y="721" type="curve" smooth="yes"/>
      <point x="191" y="721"/>
      <point x="212" y="699"/>
      <point x="212" y="672" type="curve" smooth="yes"/>
      <point x="212" y="645"/>
      <point x="191" y="622"/>
    </contour>
  </outline>
</glyph>
<glyph name="ogonek" format="1">
  <advance width="359"/>
  <unicode hex="02DB"/>
  <outline>
    <contour>
      <point x="203" y="-202" type="curve" smooth="yes"/>
      <point x="226" y="-202"/>
      <point x="254" y="-195"/>
      <point x="270" y="-188" type="curve"/>
      <point x="269" y="-143" type="line"/>
      <point x="259" y="-147"/>
      <point x="237" y="-154"/>
      <point x="218" y="-154" type="curve" smooth="yes"/>
      <point x="195" y="-154"/>
      <point x="176" y="-142"/>
      <point x="176" y="-113" type="curve" smooth="yes"/>
      <point x="176" y="-74"/>
      <point x="218" y="-21"/>
      <point x="250" y="1" type="curve"/>
      <point x="213" y="1" type="line"/>
      <point x="160" y="-22"/>
      <point x="114" y="-78"/>
      <point x="114" y="-131" type="curve" smooth="yes"/>
      <point x="114" y="-175"/>
      <point x="147" y="-202"/>
    </contour>
  </outline>
</glyph>
<glyph name="tilde" format="1">
  <advance width="485"/>
  <unicode hex="02DC"/>
  <outline>
    <contour>
      <point x="243" y="519" type="move" name="_top"/>
    </contour>
    <contour>
      <point x="87" y="637" type="curve"/>
      <point x="126" y="637" type="line"/>
      <point x="129" y="671"/>
      <point x="142" y="686"/>
      <point x="160" y="686" type="curve" smooth="yes"/>
      <point x="196" y="686"/>
      <point x="257" y="637"/>
      <point x="307" y="637" type="curve" smooth="yes"/>
      <point x="345" y="637"/>
      <point x="375" y="663"/>
      <point x="375" y="733" type="curve"/>
      <point x="334" y="733" type="line"/>
      <point x="330" y="701"/>
      <point x="320" y="690"/>
      <point x="304" y="690" type="curve" smooth="yes"/>
      <point x="273" y="690"/>
      <point x="221" y="734"/>
      <point x="163" y="734" type="curve" smooth="yes"/>
      <point x="120" y="734"/>
      <point x="87" y="706"/>
    </contour>
  </outline>
</glyph>
<glyph name="hungarumlaut" format="1">
  <advance width="375"/>
  <unicode hex="02DD"/>
  <outline>
    <contour>
      <point x="162" y="519" type="move" name="_top"/>
    </contour>
    <contour>
      <point x="204" y="607" type="line"/>
      <point x="250" y="607" type="line"/>
      <point x="353" y="772" type="line"/>
      <point x="277" y="772" type="line"/>
    </contour>
    <contour>
      <point x="81" y="607" type="line"/>
      <point x="127" y="607" type="line"/>
      <point x="210" y="772" type="line"/>
      <point x="142" y="772" type="line"/>
    </contour>
  </outline>
</glyph>
<glyph name="uni0307" format="1">
  <advance width="188"/>
  <unicode hex="0307"/>
  <outline>
    <contour>
      <point x="151" y="708" type="curve" smooth="yes"/>
      <point x="151" y="741"/>
      <point x="132" y="760"/>
      <point x="97" y="760" type="curve" smooth="yes"/>
      <point x="62" y="760"/>
      <point x="43" y="741"/>
      <point x="43" y="708" type="curve" smooth="yes"/>
      <point x="43" y="675"/>
      <point x="62" y="656"/>
      <point x="97" y="656" type="curve" smooth="yes"/>
      <point x="132" y="656"/>
      <point x="151" y="675"/>
    </contour>
  </outline>
</glyph>
<glyph name="uni030F" format="1">
  <advance width="407"/>
  <unicode hex="030F"/>
  <outline>
    <contour>
      <point x="224" y="519" type="move" name="_top"/>
    </contour>
    <contour>
      <point x="257" y="607" type="line"/>
      <point x="304" y="607" type="line"/>
      <point x="243" y="772" type="line"/>
      <point x="175" y="772" type="line"/>
    </contour>
    <contour>
      <point x="135" y="607" type="line"/>
      <point x="181" y="607" type="line"/>
      <point x="107" y="772" type="line"/>
      <point x="32" y="772" type="line"/>
    </contour>
  </outline>
</glyph>
<glyph name="uni0311" format="1">
  <advance width="379"/>
  <unicode hex="0311"/>
  <outline>
    <contour>
      <point x="196" y="519" type="move" name="_top"/>
    </contour>
    <contour>
      <point x="82" y="625" type="curve"/>
      <point x="129" y="625" type="line"/>
      <point x="129" y="673"/>
      <point x="163" y="694"/>
      <point x="194" y="694" type="curve" smooth="yes"/>
      <point x="225" y="694"/>
      <point x="261" y="673"/>
      <point x="261" y="625" type="curve"/>
      <point x="308" y="625" type="line"/>
      <point x="308" y="705"/>
      <point x="256" y="740"/>
      <point x="194" y="740" type="curve" smooth="yes"/>
      <point x="132" y="740"/>
      <point x="82" y="705"/>
    </contour>
  </outline>
</glyph>
<glyph name="uni0312" format="1">
  <advance width="292"/>
  <unicode hex="0312"/>
  <outline>
    <contour>
      <point x="146" y="519" type="move" name="_top"/>
    </contour>
    <contour>
      <point x="103" y="639" type="curve"/>
      <point x="102" y="627" type="line"/>
      <point x="185" y="627" type="line"/>
      <point x="185" y="669"/>
      <point x="197" y="870"/>
      <point x="197" y="870" type="curve"/>
      <point x="150" y="870" type="line"/>
      <point x="150" y="870"/>
      <point x="103" y="660"/>
    </contour>
  </outline>
</glyph>
<glyph name="uni0326" format="1">
  <advance width="296"/>
  <unicode hex="0326"/>
  <outline>
    <contour>
      <point x="158" y="0" type="move" name="_bot"/>
    </contour>
    <contour>
      <point x="103" y="-251" type="curve"/>
      <point x="150" y="-251" type="line"/>
      <point x="150" y="-251"/>
      <point x="194" y="-95"/>
      <point x="193" y="-70" type="curve"/>
      <point x="121" y="-70" type="line"/>
      <point x="121" y="-112"/>
      <point x="103" y="-251"/>
    </contour>
  </outline>
</glyph>
<glyph name="uni0394" format="1">
  <advance width="653"/>
  <unicode hex="0394"/>
  <outline>
    <contour>
      <point x="123" y="65" type="line"/>
      <point x="322" y="649" type="line"/>
      <point x="526" y="65" type="line"/>
    </contour>
    <contour>
      <point x="30" y="0" type="line"/>
      <point x="619" y="0" type="line"/>
      <point x="359" y="726" type="line"/>
      <point x="286" y="726" type="line"/>
    </contour>
  </outline>
</glyph>
<glyph name="Sigma" format="1">
  <advance width="543"/>
  <unicode hex="03A3"/>
  <outline>
    <contour>
      <point x="49" y="721" type="line"/>
      <point x="49" y="678" type="line"/>
      <point x="298" y="304" type="line"/>
      <point x="38" y="-70" type="line"/>
      <point x="38" y="-112" type="line"/>
      <point x="518" y="-112" type="line"/>
      <point x="518" y="-42" type="line"/>
      <point x="137" y="-42" type="line"/>
      <point x="389" y="302" type="line"/>
      <point x="146" y="656" type="line"/>
      <point x="496" y="656" type="line"/>
      <point x="496" y="721" type="line"/>
    </contour>
  </outline>
</glyph>
<glyph name="uni03A9" format="1">
  <advance width="782"/>
  <unicode hex="03A9"/>
  <outline>
    <contour>
      <point x="60" y="0" type="line"/>
      <point x="53" y="57" type="line"/>
      <point x="229" y="57" type="line"/>
      <point x="131" y="125"/>
      <point x="60" y="236"/>
      <point x="60" y="377" type="curve" smooth="yes"/>
      <point x="60" y="577"/>
      <point x="204" y="707"/>
      <point x="398" y="707" type="curve" smooth="yes"/>
      <point x="599" y="707"/>
      <point x="726" y="564"/>
      <point x="726" y="376" type="curve" smooth="yes"/>
      <point x="726" y="232"/>
      <point x="640" y="123"/>
      <point x="554" y="57" type="curve"/>
      <point x="728" y="57" type="line"/>
      <point x="722" y="0" type="line"/>
      <point x="475" y="0" type="line"/>
      <point x="474" y="54" type="line"/>
      <point x="575" y="121"/>
      <point x="649" y="231"/>
      <point x="649" y="367" type="curve" smooth="yes"/>
      <point x="649" y="516"/>
      <point x="564" y="644"/>
      <point x="396" y="644" type="curve" smooth="yes"/>
      <point x="243" y="644"/>
      <point x="136" y="534"/>
      <point x="136" y="369" type="curve" smooth="yes"/>
      <point x="136" y="234"/>
      <point x="206" y="121"/>
      <point x="310" y="54" type="curve"/>
      <point x="310" y="0" type="line"/>
    </contour>
  </outline>
</glyph>
<glyph name="uni03BC" format="1">
  <advance width="579"/>
  <unicode hex="03BC"/>
  <outline>
    <contour>
      <point x="426" y="122" type="line"/>
      <point x="404" y="92"/>
      <point x="360" y="45"/>
      <point x="271" y="45" type="curve" smooth="yes"/>
      <point x="182" y="45"/>
      <point x="150" y="102"/>
      <point x="150" y="193" type="curve" smooth="yes"/>
      <point x="150" y="528" type="line"/>
      <point x="77" y="528" type="line"/>
      <point x="77" y="-146" type="line"/>
      <point x="150" y="-146" type="line"/>
      <point x="150" y="20" type="line"/>
      <point x="180" y="0"/>
      <point x="219" y="-10"/>
      <point x="266" y="-10" type="curve" smooth="yes"/>
      <point x="345" y="-10"/>
      <point x="397" y="19"/>
      <point x="432" y="66" type="curve"/>
      <point x="436" y="0" type="line"/>
      <point x="499" y="0" type="line"/>
      <point x="499" y="528" type="line"/>
      <point x="426" y="528" type="line"/>
    </contour>
  </outline>
</glyph>
<glyph name="pi" format="1">
  <advance width="687"/>
  <unicode hex="03C0"/>
  <outline>
    <contour>
      <point x="547" y="-6" type="curve" smooth="yes"/>
      <point x="583" y="-6"/>
      <point x="615" y="5"/>
      <point x="633" y="22" type="curve"/>
      <point x="633" y="78" type="line"/>
      <point x="619" y="73"/>
      <point x="592" y="62"/>
      <point x="571" y="62" type="curve" smooth="yes"/>
      <point x="528" y="62"/>
      <point x="507" y="110"/>
      <point x="507" y="214" type="curve" smooth="yes"/>
      <point x="507" y="274"/>
      <point x="514" y="355"/>
      <point x="528" y="455" type="curve"/>
      <point x="646" y="455" type="line"/>
      <point x="646" y="528" type="line"/>
      <point x="209" y="528" type="line" smooth="yes"/>
      <point x="92" y="528"/>
      <point x="59" y="488"/>
      <point x="59" y="380" type="curve"/>
      <point x="102" y="380" type="line"/>
      <point x="108" y="427"/>
      <point x="128" y="455"/>
      <point x="170" y="455" type="curve" smooth="yes"/>
      <point x="232" y="455" type="line"/>
      <point x="197" y="189" type="line" smooth="yes"/>
      <point x="183" y="81"/>
      <point x="120" y="51"/>
      <point x="60" y="51" type="curve"/>
      <point x="60" y="2" type="line"/>
      <point x="225" y="2"/>
      <point x="258" y="54"/>
      <point x="264" y="163" type="curve" smooth="yes"/>
      <point x="282" y="455" type="line"/>
      <point x="473" y="455" type="line"/>
      <point x="456" y="331"/>
      <point x="436" y="221"/>
      <point x="436" y="141" type="curve" smooth="yes"/>
      <point x="436" y="49"/>
      <point x="462" y="-6"/>
    </contour>
  </outline>
</glyph>
<glyph name="endash" format="1">
  <advance width="650"/>
  <unicode hex="2013"/>
  <outline>
    <contour>
      <point x="42" y="264" type="line"/>
      <point x="608" y="264" type="line"/>
      <point x="608" y="320" type="line"/>
      <point x="42" y="320" type="line"/>
    </contour>
  </outline>
</glyph>
<glyph name="emdash" format="1">
  <advance width="1055"/>
  <unicode hex="2014"/>
  <outline>
    <contour>
      <point x="29" y="260" type="line"/>
      <point x="1026" y="260" type="line"/>
      <point x="1026" y="320" type="line"/>
      <point x="29" y="320" type="line"/>
    </contour>
  </outline>
</glyph>
<glyph name="quoteleft" format="1">
  <advance width="255"/>
  <unicode hex="2018"/>
  <outline>
    <contour>
      <point x="188" y="727" type="line"/>
      <point x="135" y="727" type="line"/>
      <point x="83" y="496" type="line"/>
      <point x="164" y="496" type="line"/>
    </contour>
  </outline>
</glyph>
<glyph name="quoteright" format="1">
  <advance width="255"/>
  <unicode hex="2019"/>
  <outline>
    <contour>
      <point x="83" y="496" type="line"/>
      <point x="136" y="496" type="line"/>
      <point x="188" y="727" type="line"/>
      <point x="106" y="727" type="line"/>
    </contour>
  </outline>
</glyph>
<glyph name="quotesinglbase" format="1">
  <advance width="215"/>
  <unicode hex="201A"/>
  <outline>
    <contour>
      <point x="47" y="-145" type="line"/>
      <point x="96" y="-145" type="line"/>
      <point x="149" y="81" type="line"/>
      <point x="77" y="81" type="line"/>
    </contour>
  </outline>
</glyph>
<glyph name="quotedblleft" format="1">
  <advance width="433"/>
  <unicode hex="201C"/>
  <outline>
    <contour>
      <point x="246" y="496" type="line"/>
      <point x="327" y="496" type="line"/>
      <point x="351" y="727" type="line"/>
      <point x="298" y="727" type="line"/>
    </contour>
    <contour>
      <point x="83" y="496" type="line"/>
      <point x="164" y="496" type="line"/>
      <point x="188" y="727" type="line"/>
      <point x="135" y="727" type="line"/>
    </contour>
  </outline>
</glyph>
<glyph name="quotedblright" format="1">
  <advance width="433"/>
  <unicode hex="201D"/>
  <outline>
    <contour>
      <point x="83" y="496" type="line"/>
      <point x="136" y="496" type="line"/>
      <point x="188" y="727" type="line"/>
      <point x="106" y="727" type="line"/>
    </contour>
    <contour>
      <point x="246" y="496" type="line"/>
      <point x="299" y="496" type="line"/>
      <point x="351" y="727" type="line"/>
      <point x="270" y="727" type="line"/>
    </contour>
  </outline>
</glyph>
<glyph name="quotedblbase" format="1">
  <advance width="348"/>
  <unicode hex="201E"/>
  <outline>
    <contour>
      <point x="192" y="-145" type="line"/>
      <point x="237" y="-145" type="line"/>
      <point x="290" y="81" type="line"/>
      <point x="217" y="81" type="line"/>
    </contour>
    <contour>
      <point x="54" y="-145" type="line"/>
      <point x="101" y="-145" type="line"/>
      <point x="150" y="81" type="line"/>
      <point x="81" y="81" type="line"/>
    </contour>
  </outline>
</glyph>
<glyph name="dagger" format="1">
  <advance width="502"/>
  <unicode hex="2020"/>
  <outline>
    <contour>
      <point x="225" y="726" type="line"/>
      <point x="225" y="536" type="line"/>
      <point x="85" y="536" type="line"/>
      <point x="85" y="493" type="line"/>
      <point x="225" y="493" type="line"/>
      <point x="225" y="59" type="line"/>
      <point x="272" y="59" type="line"/>
      <point x="272" y="493" type="line"/>
      <point x="412" y="493" type="line"/>
      <point x="412" y="536" type="line"/>
      <point x="270" y="536" type="line"/>
      <point x="270" y="726" type="line"/>
    </contour>
  </outline>
</glyph>
<glyph name="daggerdbl" format="1">
  <advance width="502"/>
  <unicode hex="2021"/>
  <outline>
    <contour>
      <point x="223" y="718" type="line"/>
      <point x="223" y="528" type="line"/>
      <point x="86" y="528" type="line"/>
      <point x="86" y="486" type="line"/>
      <point x="223" y="486" type="line"/>
      <point x="223" y="267" type="line"/>
      <point x="86" y="267" type="line"/>
      <point x="86" y="226" type="line"/>
      <point x="223" y="226" type="line"/>
      <point x="223" y="46" type="line"/>
      <point x="271" y="46" type="line"/>
      <point x="271" y="226" type="line"/>
      <point x="404" y="226" type="line"/>
      <point x="404" y="267" type="line"/>
      <point x="271" y="267" type="line"/>
      <point x="271" y="486" type="line"/>
      <point x="405" y="486" type="line"/>
      <point x="405" y="528" type="line"/>
      <point x="269" y="528" type="line"/>
      <point x="269" y="718" type="line"/>
    </contour>
  </outline>
</glyph>
<glyph name="bullet" format="1">
  <advance width="433"/>
  <unicode hex="2022"/>
  <outline>
    <contour>
      <point x="211" y="207" type="curve" smooth="yes"/>
      <point x="290" y="207"/>
      <point x="365" y="263"/>
      <point x="365" y="367" type="curve" smooth="yes"/>
      <point x="365" y="471"/>
      <point x="292" y="527"/>
      <point x="214" y="527" type="curve" smooth="yes"/>
      <point x="135" y="527"/>
      <point x="61" y="469"/>
      <point x="61" y="365" type="curve" smooth="yes"/>
      <point x="61" y="262"/>
      <point x="133" y="207"/>
    </contour>
  </outline>
</glyph>
<glyph name="perthousand" format="1">
  <advance width="1140"/>
  <unicode hex="2030"/>
  <outline>
    <component base="percent" xOffset="4"/>
    <contour>
      <point x="917" y="-1" type="curve" smooth="yes"/>
      <point x="1026" y="-1"/>
      <point x="1066" y="80"/>
      <point x="1066" y="185" type="curve" smooth="yes"/>
      <point x="1066" y="292"/>
      <point x="1028" y="370"/>
      <point x="917" y="370" type="curve" smooth="yes"/>
      <point x="809" y="370"/>
      <point x="768" y="290"/>
      <point x="768" y="185" type="curve" smooth="yes"/>
      <point x="768" y="80"/>
      <point x="807" y="-1"/>
    </contour>
    <contour>
      <point x="917" y="42" type="curve" smooth="yes"/>
      <point x="839" y="42"/>
      <point x="821" y="103"/>
      <point x="821" y="185" type="curve" smooth="yes"/>
      <point x="821" y="265"/>
      <point x="839" y="326"/>
      <point x="917" y="326" type="curve" smooth="yes"/>
      <point x="995" y="326"/>
      <point x="1013" y="268"/>
      <point x="1013" y="185" type="curve" smooth="yes"/>
      <point x="1013" y="105"/>
      <point x="995" y="42"/>
    </contour>
  </outline>
</glyph>
<glyph name="guilsinglleft" format="1">
  <advance width="299"/>
  <unicode hex="2039"/>
  <outline>
    <contour>
      <point x="188" y="71" type="line"/>
      <point x="257" y="71" type="line"/>
      <point x="119" y="271" type="line"/>
      <point x="261" y="471" type="line"/>
      <point x="190" y="471" type="line"/>
      <point x="46" y="270" type="line"/>
    </contour>
  </outline>
</glyph>
<glyph name="guilsinglright" format="1">
  <advance width="365"/>
  <unicode hex="203A"/>
  <outline>
    <contour>
      <point x="77" y="71" type="line"/>
      <point x="146" y="71" type="line"/>
      <point x="292" y="279" type="line"/>
      <point x="145" y="489" type="line"/>
      <point x="75" y="489" type="line"/>
      <point x="217" y="279" type="line"/>
    </contour>
  </outline>
</glyph>
<glyph name="fraction" format="1">
  <advance width="520"/>
  <unicode hex="2044"/>
  <outline>
    <contour>
      <point x="73" y="0" type="line"/>
      <point x="137" y="0" type="line"/>
      <point x="447" y="723" type="line"/>
      <point x="382" y="723" type="line"/>
    </contour>
  </outline>
</glyph>
<glyph name="uni2074" format="1">
  <advance width="344"/>
  <unicode hex="2074"/>
  <outline>
    <contour>
      <point x="88" y="456" type="line"/>
      <point x="208" y="660" type="line"/>
      <point x="208" y="456" type="line"/>
    </contour>
    <contour>
      <point x="208" y="309" type="line"/>
      <point x="262" y="309" type="line"/>
      <point x="262" y="413" type="line"/>
      <point x="320" y="413" type="line"/>
      <point x="322" y="456" type="line"/>
      <point x="263" y="456" type="line"/>
      <point x="263" y="731" type="line"/>
      <point x="204" y="731" type="line"/>
      <point x="31" y="459" type="line"/>
      <point x="31" y="413" type="line"/>
      <point x="208" y="413" type="line"/>
    </contour>
  </outline>
</glyph>
<glyph name="Euro" format="1">
  <advance width="672"/>
  <unicode hex="20AC"/>
  <outline>
    <contour>
      <point x="-19" y="260" type="line"/>
      <point x="406" y="260" type="line"/>
      <point x="411" y="312" type="line"/>
      <point x="104" y="312" type="line"/>
      <point x="104" y="403" type="line"/>
      <point x="411" y="403" type="line"/>
      <point x="415" y="453" type="line"/>
      <point x="-11" y="453" type="line"/>
      <point x="-15" y="403" type="line"/>
      <point x="66" y="403" type="line"/>
      <point x="65" y="312" type="line"/>
      <point x="-14" y="312" type="line"/>
    </contour>
    <component base="C" xOffset="-31"/>
  </outline>
</glyph>
<glyph name="afii61289" format="1">
  <advance width="576"/>
  <unicode hex="2113"/>
  <outline>
    <contour>
      <point x="287" y="367" type="line"/>
      <point x="354" y="661" type="line" smooth="yes"/>
      <point x="371" y="733"/>
      <point x="410" y="760"/>
      <point x="447" y="760" type="curve" smooth="yes"/>
      <point x="489" y="760"/>
      <point x="529" y="725"/>
      <point x="529" y="682" type="curve" smooth="yes"/>
      <point x="529" y="648"/>
      <point x="476" y="537"/>
      <point x="391" y="460" type="curve" smooth="yes"/>
    </contour>
    <contour>
      <point x="150" y="124" type="curve" smooth="yes"/>
      <point x="150" y="29"/>
      <point x="196" y="-10"/>
      <point x="268" y="-10" type="curve" smooth="yes"/>
      <point x="374" y="-10"/>
      <point x="444" y="48"/>
      <point x="444" y="48" type="curve"/>
      <point x="433" y="98" type="line"/>
      <point x="383" y="70"/>
      <point x="340" y="53"/>
      <point x="300" y="53" type="curve" smooth="yes"/>
      <point x="255" y="53"/>
      <point x="235" y="77"/>
      <point x="235" y="123" type="curve" smooth="yes"/>
      <point x="235" y="145"/>
      <point x="240" y="172"/>
      <point x="248" y="204" type="curve" smooth="yes"/>
      <point x="271" y="302" type="line"/>
      <point x="417" y="422" type="line" smooth="yes"/>
      <point x="535" y="519"/>
      <point x="580" y="579"/>
      <point x="580" y="682" type="curve" smooth="yes"/>
      <point x="580" y="780"/>
      <point x="513" y="822"/>
      <point x="443" y="822" type="curve" smooth="yes"/>
      <point x="381" y="822"/>
      <point x="318" y="793"/>
      <point x="288" y="682" type="curve" smooth="yes"/>
      <point x="187" y="308" type="line"/>
      <point x="41" y="197" type="line"/>
      <point x="61" y="163" type="line"/>
      <point x="170" y="245" type="line"/>
      <point x="157" y="198"/>
      <point x="150" y="158"/>
    </contour>
  </outline>
</glyph>
<glyph name="trademark" format="1">
  <advance width="1050"/>
  <unicode hex="2122"/>
  <outline>
    <contour>
      <point x="191" y="258" type="line"/>
      <point x="249" y="258" type="line"/>
      <point x="249" y="666" type="line"/>
      <point x="401" y="666" type="line"/>
      <point x="401" y="713" type="line"/>
      <point x="42" y="713" type="line"/>
      <point x="42" y="666" type="line"/>
      <point x="191" y="666" type="line"/>
    </contour>
    <contour>
      <point x="470" y="258" type="line"/>
      <point x="521" y="258" type="line"/>
      <point x="524" y="642" type="line"/>
      <point x="681" y="312" type="line"/>
      <point x="725" y="312" type="line"/>
      <point x="880" y="638" type="line"/>
      <point x="883" y="258" type="line"/>
      <point x="935" y="258" type="line"/>
      <point x="927" y="713" type="line"/>
      <point x="866" y="713" type="line"/>
      <point x="704" y="374" type="line"/>
      <point x="540" y="713" type="line"/>
      <point x="478" y="713" type="line"/>
    </contour>
  </outline>
</glyph>
<glyph name="estimated" format="1">
  <advance width="536"/>
  <unicode hex="212E"/>
  <outline>
    <contour>
      <point x="472" y="278" type="curve"/>
      <point x="153" y="278" type="line"/>
      <point x="160" y="400"/>
      <point x="229" y="483"/>
      <point x="310" y="483" type="curve" smooth="yes"/>
      <point x="407" y="483"/>
      <point x="472" y="387"/>
    </contour>
    <contour>
      <point x="51" y="250" type="curve" smooth="yes"/>
      <point x="51" y="102"/>
      <point x="137" y="-10"/>
      <point x="315" y="-10" type="curve" smooth="yes"/>
      <point x="411" y="-10"/>
      <point x="475" y="32"/>
      <point x="521" y="87" type="curve"/>
      <point x="496" y="110" type="line"/>
      <point x="451" y="62"/>
      <point x="398" y="24"/>
      <point x="315" y="24" type="curve" smooth="yes"/>
      <point x="209" y="24"/>
      <point x="152" y="113"/>
      <point x="152" y="241" type="curve"/>
      <point x="524" y="241" type="line"/>
      <point x="524" y="403"/>
      <point x="455" y="511"/>
      <point x="307" y="511" type="curve" smooth="yes"/>
      <point x="157" y="511"/>
      <point x="51" y="398"/>
    </contour>
  </outline>
</glyph>
<glyph name="partialdiff" format="1">
  <advance width="569"/>
  <unicode hex="2202"/>
  <outline>
    <contour>
      <point x="233" y="36" type="curve" smooth="yes"/>
      <point x="187" y="36"/>
      <point x="165" y="74"/>
      <point x="165" y="127" type="curve" smooth="yes"/>
      <point x="165" y="236"/>
      <point x="260" y="405"/>
      <point x="430" y="408" type="curve"/>
      <point x="423" y="256"/>
      <point x="360" y="36"/>
    </contour>
    <contour>
      <point x="228" y="-9" type="curve" smooth="yes"/>
      <point x="393" y="-9"/>
      <point x="504" y="185"/>
      <point x="504" y="442" type="curve" smooth="yes"/>
      <point x="504" y="643"/>
      <point x="395" y="762"/>
      <point x="256" y="762" type="curve" smooth="yes"/>
      <point x="211" y="762"/>
      <point x="163" y="750"/>
      <point x="115" y="724" type="curve"/>
      <point x="132" y="682" type="line"/>
      <point x="170" y="699"/>
      <point x="206" y="707"/>
      <point x="239" y="707" type="curve" smooth="yes"/>
      <point x="352" y="707"/>
      <point x="432" y="613"/>
      <point x="432" y="465" type="curve" smooth="yes"/>
      <point x="432" y="448" type="line"/>
      <point x="208" y="448"/>
      <point x="82" y="271"/>
      <point x="82" y="137" type="curve" smooth="yes"/>
      <point x="82" y="56"/>
      <point x="128" y="-9"/>
    </contour>
  </outline>
</glyph>
<glyph name="Delta" format="1">
  <advance width="631"/>
  <unicode hex="2206"/>
  <outline>
    <contour>
      <point x="330" y="594" type="line"/>
      <point x="510" y="77" type="line"/>
      <point x="120" y="77" type="line"/>
      <point x="298" y="594" type="line"/>
      <point x="313" y="651" type="line"/>
    </contour>
    <contour>
      <point x="276" y="747" type="line"/>
      <point x="36" y="42" type="line"/>
      <point x="36" y="0" type="line"/>
      <point x="597" y="0" type="line"/>
      <point x="597" y="42" type="line"/>
      <point x="357" y="747" type="line"/>
    </contour>
  </outline>
</glyph>
<glyph name="product" format="1">
  <advance width="738"/>
  <unicode hex="220F"/>
  <outline>
    <contour>
      <point x="99" y="727" type="line"/>
      <point x="99" y="0" type="line"/>
      <point x="175" y="0" type="line"/>
      <point x="175" y="659" type="line"/>
      <point x="571" y="659" type="line"/>
      <point x="571" y="0" type="line"/>
      <point x="646" y="0" type="line"/>
      <point x="646" y="727" type="line"/>
    </contour>
  </outline>
</glyph>
<glyph name="minus" format="1">
  <advance width="560"/>
  <unicode hex="2212"/>
  <outline>
    <contour>
      <point x="47" y="327" type="line"/>
      <point x="47" y="264" type="line"/>
      <point x="512" y="264" type="line"/>
      <point x="512" y="327" type="line"/>
    </contour>
  </outline>
</glyph>
<glyph name="radical" format="1">
  <advance width="564"/>
  <unicode hex="221A"/>
  <outline>
    <contour>
      <point x="493" y="834" type="line"/>
      <point x="441" y="616"/>
      <point x="348" y="241"/>
      <point x="297" y="23" type="curve"/>
      <point x="253" y="164"/>
      <point x="201" y="296"/>
      <point x="153" y="433" type="curve"/>
      <point x="31" y="405" type="line"/>
      <point x="38" y="353" type="line"/>
      <point x="109" y="368" type="line"/>
      <point x="272" y="-79" type="line"/>
      <point x="332" y="-79" type="line"/>
      <point x="544" y="834" type="line"/>
    </contour>
  </outline>
</glyph>
<glyph name="infinity" format="1">
  <advance width="812"/>
  <unicode hex="221E"/>
  <outline>
    <contour>
      <point x="716" y="320" type="curve" smooth="yes"/>
      <point x="716" y="240"/>
      <point x="679" y="179"/>
      <point x="604" y="179" type="curve" smooth="yes"/>
      <point x="545" y="179"/>
      <point x="499" y="223"/>
      <point x="437" y="309" type="curve"/>
      <point x="483" y="379"/>
      <point x="536" y="435"/>
      <point x="602" y="435" type="curve" smooth="yes"/>
      <point x="669" y="435"/>
      <point x="716" y="383"/>
    </contour>
    <contour>
      <point x="375" y="305" type="curve"/>
      <point x="326" y="232"/>
      <point x="272" y="179"/>
      <point x="208" y="179" type="curve" smooth="yes"/>
      <point x="136" y="179"/>
      <point x="88" y="240"/>
      <point x="88" y="307" type="curve" smooth="yes"/>
      <point x="88" y="377"/>
      <point x="133" y="435"/>
      <point x="205" y="435" type="curve" smooth="yes"/>
      <point x="274" y="435"/>
      <point x="327" y="383"/>
    </contour>
    <contour>
      <point x="406" y="355" type="curve"/>
      <point x="344" y="439"/>
      <point x="284" y="490"/>
      <point x="206" y="490" type="curve" smooth="yes"/>
      <point x="111" y="490"/>
      <point x="37" y="415"/>
      <point x="37" y="317" type="curve" smooth="yes"/>
      <point x="37" y="210"/>
      <point x="102" y="123"/>
      <point x="208" y="123" type="curve" smooth="yes"/>
      <point x="285" y="123"/>
      <point x="345" y="175"/>
      <point x="406" y="257" type="curve"/>
      <point x="473" y="166"/>
      <point x="533" y="123"/>
      <point x="603" y="123" type="curve" smooth="yes"/>
      <point x="699" y="123"/>
      <point x="771" y="199"/>
      <point x="771" y="309" type="curve" smooth="yes"/>
      <point x="771" y="415"/>
      <point x="710" y="490"/>
      <point x="604" y="490" type="curve" smooth="yes"/>
      <point x="524" y="490"/>
      <point x="465" y="438"/>
    </contour>
  </outline>
</glyph>
<glyph name="integral" format="1">
  <advance width="458"/>
  <unicode hex="222B"/>
  <outline>
    <contour>
      <point x="241" y="562" type="curve" smooth="yes"/>
      <point x="241" y="-21" type="line" smooth="yes"/>
      <point x="241" y="-103"/>
      <point x="231" y="-157"/>
      <point x="164" y="-157" type="curve" smooth="yes"/>
      <point x="151" y="-157"/>
      <point x="135" y="-155"/>
      <point x="117" y="-150" type="curve"/>
      <point x="117" y="-194" type="line"/>
      <point x="137" y="-198"/>
      <point x="155" y="-201"/>
      <point x="171" y="-201" type="curve" smooth="yes"/>
      <point x="259" y="-201"/>
      <point x="295" y="-137"/>
      <point x="295" y="-17" type="curve" smooth="yes"/>
      <point x="295" y="563" type="line" smooth="yes"/>
      <point x="295" y="647"/>
      <point x="307" y="693"/>
      <point x="364" y="693" type="curve" smooth="yes"/>
      <point x="377" y="693"/>
      <point x="391" y="690"/>
      <point x="409" y="685" type="curve"/>
      <point x="409" y="729" type="line"/>
      <point x="388" y="734"/>
      <point x="369" y="736"/>
      <point x="352" y="736" type="curve" smooth="yes"/>
      <point x="270" y="736"/>
      <point x="241" y="679"/>
    </contour>
  </outline>
</glyph>
<glyph name="approxequal" format="1">
  <advance width="571"/>
  <unicode hex="2248"/>
  <outline>
    <contour>
      <point x="410" y="279" type="curve" smooth="yes"/>
      <point x="380" y="279"/>
      <point x="340" y="299"/>
      <point x="293" y="320" type="curve" smooth="yes"/>
      <point x="243" y="343"/>
      <point x="210" y="355"/>
      <point x="170" y="355" type="curve" smooth="yes"/>
      <point x="110" y="355"/>
      <point x="70" y="316"/>
      <point x="49" y="258" type="curve"/>
      <point x="69" y="219" type="line"/>
      <point x="89" y="266"/>
      <point x="128" y="300"/>
      <point x="170" y="300" type="curve" smooth="yes"/>
      <point x="204" y="300"/>
      <point x="242" y="282"/>
      <point x="291" y="260" type="curve" smooth="yes"/>
      <point x="336" y="239"/>
      <point x="374" y="224"/>
      <point x="410" y="224" type="curve" smooth="yes"/>
      <point x="468" y="224"/>
      <point x="503" y="260"/>
      <point x="523" y="322" type="curve"/>
      <point x="501" y="358" type="line"/>
      <point x="486" y="312"/>
      <point x="450" y="279"/>
    </contour>
    <contour>
      <point x="410" y="444" type="curve" smooth="yes"/>
      <point x="380" y="444"/>
      <point x="340" y="464"/>
      <point x="293" y="485" type="curve" smooth="yes"/>
      <point x="243" y="508"/>
      <point x="210" y="521"/>
      <point x="170" y="521" type="curve" smooth="yes"/>
      <point x="110" y="521"/>
      <point x="70" y="481"/>
      <point x="49" y="423" type="curve"/>
      <point x="69" y="384" type="line"/>
      <point x="89" y="431"/>
      <point x="128" y="465"/>
      <point x="170" y="465" type="curve" smooth="yes"/>
      <point x="204" y="465"/>
      <point x="242" y="447"/>
      <point x="291" y="425" type="curve" smooth="yes"/>
      <point x="336" y="404"/>
      <point x="374" y="389"/>
      <point x="410" y="389" type="curve" smooth="yes"/>
      <point x="468" y="389"/>
      <point x="503" y="425"/>
      <point x="523" y="487" type="curve"/>
      <point x="501" y="523" type="line"/>
      <point x="486" y="477"/>
      <point x="450" y="444"/>
    </contour>
  </outline>
</glyph>
<glyph name="notequal" format="1">
  <advance width="535"/>
  <unicode hex="2260"/>
  <outline>
    <contour>
      <point x="147" y="24" type="line"/>
      <point x="220" y="175" type="line"/>
      <point x="486" y="175" type="line"/>
      <point x="484" y="228" type="line"/>
      <point x="243" y="228" type="line"/>
      <point x="327" y="389" type="line"/>
      <point x="486" y="389" type="line"/>
      <point x="482" y="442" type="line"/>
      <point x="350" y="442" type="line"/>
      <point x="411" y="583" type="line"/>
      <point x="367" y="588" type="line"/>
      <point x="296" y="442" type="line"/>
      <point x="38" y="442" type="line"/>
      <point x="41" y="389" type="line"/>
      <point x="273" y="389" type="line"/>
      <point x="191" y="228" type="line"/>
      <point x="38" y="228" type="line"/>
      <point x="41" y="175" type="line"/>
      <point x="165" y="175" type="line"/>
      <point x="104" y="31" type="line"/>
    </contour>
  </outline>
</glyph>
<glyph name="lessequal" format="1">
  <advance width="587"/>
  <unicode hex="2264"/>
  <outline>
    <contour>
      <point x="62" y="3" type="line"/>
      <point x="521" y="3" type="line"/>
      <point x="521" y="60" type="line"/>
      <point x="62" y="61" type="line"/>
    </contour>
    <contour>
      <point x="505" y="115" type="line"/>
      <point x="505" y="176" type="line"/>
      <point x="155" y="369" type="line"/>
      <point x="504" y="575" type="line"/>
      <point x="504" y="638" type="line"/>
      <point x="75" y="387" type="line"/>
      <point x="75" y="351" type="line"/>
    </contour>
  </outline>
</glyph>
<glyph name="greaterequal" format="1">
  <advance width="587"/>
  <unicode hex="2265"/>
  <outline>
    <contour>
      <point x="62" y="4" type="line"/>
      <point x="521" y="4" type="line"/>
      <point x="521" y="62" type="line"/>
      <point x="62" y="62" type="line"/>
    </contour>
    <contour>
      <point x="79" y="116" type="line"/>
      <point x="511" y="352" type="line"/>
      <point x="511" y="388" type="line"/>
      <point x="81" y="639" type="line"/>
      <point x="81" y="576" type="line"/>
      <point x="439" y="370" type="line"/>
      <point x="79" y="178" type="line"/>
    </contour>
  </outline>
</glyph>
<glyph name="lozenge" format="1">
  <advance width="570"/>
  <unicode hex="25CA"/>
  <outline>
    <contour>
      <point x="444" y="376" type="line"/>
      <point x="283" y="55" type="line"/>
      <point x="124" y="377" type="line"/>
      <point x="287" y="695" type="line"/>
    </contour>
    <contour>
      <point x="262" y="776" type="line"/>
      <point x="58" y="376" type="line"/>
      <point x="259" y="-22" type="line"/>
      <point x="306" y="-22" type="line"/>
      <point x="510" y="377" type="line"/>
      <point x="310" y="776" type="line"/>
    </contour>
  </outline>
</glyph>
<glyph name="uniE0FF" format="1">
  <advance width="1000"/>
  <unicode hex="E0FF"/>
  <outline>
    <contour>
      <point x="336" y="518" type="line"/>
      <point x="512" y="518" type="line"/>
      <point x="512" y="438" type="line"/>
      <point x="336" y="438" type="line"/>
    </contour>
  </outline>
</glyph>
<glyph name="uniF000" format="1">
  <advance width="1000"/>
  <unicode hex="F000"/>
  <outline>
    <contour>
      <point x="336" y="518" type="line"/>
      <point x="512" y="518" type="line"/>
      <point x="512" y="438" type="line"/>
      <point x="336" y="438" type="line"/>
    </contour>
  </outline>
</glyph>
<glyph name="caron.alt" format="1">
  <advance width="374"/>
  <outline>
    <contour>
      <point x="130" y="528" type="move" name="_caron.alt"/>
    </contour>
    <contour>
      <point x="241" y="571" type="line"/>
      <point x="297" y="571" type="line"/>
      <point x="338" y="751" type="line"/>
      <point x="262" y="751" type="line"/>
    </contour>
  </outline>
</glyph>
<glyph name="slashbar" format="1">
  <advance width="413"/>
  <outline>
    <contour>
      <point x="80" y="253" type="line"/>
      <point x="356" y="416" type="line"/>
      <point x="356" y="472" type="line"/>
      <point x="80" y="309" type="line"/>
    </contour>
  </outline>
</glyph>
